<?xml version="1.0" encoding="utf-8" standalone="no"?>
<!DOCTYPE svg PUBLIC "-//W3C//DTD SVG 1.1//EN"
  "http://www.w3.org/Graphics/SVG/1.1/DTD/svg11.dtd">
<svg xmlns:xlink="http://www.w3.org/1999/xlink" width="460.8pt" height="345.6pt" viewBox="0 0 460.8 345.6" xmlns="http://www.w3.org/2000/svg" version="1.1">
 <metadata>
  <rdf:RDF xmlns:dc="http://purl.org/dc/elements/1.1/" xmlns:cc="http://creativecommons.org/ns#" xmlns:rdf="http://www.w3.org/1999/02/22-rdf-syntax-ns#">
   <cc:Work>
    <dc:type rdf:resource="http://purl.org/dc/dcmitype/StillImage"/>
    <dc:date>2025-09-01T01:15:18.756336</dc:date>
    <dc:format>image/svg+xml</dc:format>
    <dc:creator>
     <cc:Agent>
      <dc:title>Matplotlib v3.10.5, https://matplotlib.org/</dc:title>
     </cc:Agent>
    </dc:creator>
   </cc:Work>
  </rdf:RDF>
 </metadata>
 <defs>
  <style type="text/css">*{stroke-linejoin: round; stroke-linecap: butt}</style>
 </defs>
 <g id="figure_1">
  <g id="patch_1">
   <path d="M 0 345.6 
L 460.8 345.6 
L 460.8 0 
L 0 0 
z
" style="fill: #ffffff"/>
  </g>
  <g id="axes_1">
   <g id="patch_2">
    <path d="M 47.72 303.64 
L 450 303.64 
L 450 26.88 
L 47.72 26.88 
z
" style="fill: #ffffff"/>
   </g>
   <g id="matplotlib.axis_1">
    <g id="xtick_1">
     <g id="line2d_1">
      <path d="M 66.005455 303.64 
L 66.005455 26.88 
" clip-path="url(#pfc7359f43d)" style="fill: none; stroke: #b0b0b0; stroke-width: 0.8; stroke-linecap: square"/>
     </g>
     <g id="line2d_2">
      <defs>
       <path id="mf9b0dc0aae" d="M 0 0 
L 0 3.5 
" style="stroke: #000000; stroke-width: 0.8"/>
      </defs>
      <g>
       <use xlink:href="#mf9b0dc0aae" x="66.005455" y="303.64" style="stroke: #000000; stroke-width: 0.8"/>
      </g>
     </g>
     <g id="text_1">
      <!-- 0 -->
      <g transform="translate(62.824205 318.238437) scale(0.1 -0.1)">
       <defs>
        <path id="DejaVuSans-30" d="M 2034 4250 
Q 1547 4250 1301 3770 
Q 1056 3291 1056 2328 
Q 1056 1369 1301 889 
Q 1547 409 2034 409 
Q 2525 409 2770 889 
Q 3016 1369 3016 2328 
Q 3016 3291 2770 3770 
Q 2525 4250 2034 4250 
z
M 2034 4750 
Q 2819 4750 3233 4129 
Q 3647 3509 3647 2328 
Q 3647 1150 3233 529 
Q 2819 -91 2034 -91 
Q 1250 -91 836 529 
Q 422 1150 422 2328 
Q 422 3509 836 4129 
Q 1250 4750 2034 4750 
z
" transform="scale(0.015625)"/>
       </defs>
       <use xlink:href="#DejaVuSans-30"/>
      </g>
     </g>
    </g>
    <g id="xtick_2">
     <g id="line2d_3">
      <path d="M 153.072829 303.64 
L 153.072829 26.88 
" clip-path="url(#pfc7359f43d)" style="fill: none; stroke: #b0b0b0; stroke-width: 0.8; stroke-linecap: square"/>
     </g>
     <g id="line2d_4">
      <g>
       <use xlink:href="#mf9b0dc0aae" x="153.072829" y="303.64" style="stroke: #000000; stroke-width: 0.8"/>
      </g>
     </g>
     <g id="text_2">
      <!-- 10000 -->
      <g transform="translate(137.166579 318.238437) scale(0.1 -0.1)">
       <defs>
        <path id="DejaVuSans-31" d="M 794 531 
L 1825 531 
L 1825 4091 
L 703 3866 
L 703 4441 
L 1819 4666 
L 2450 4666 
L 2450 531 
L 3481 531 
L 3481 0 
L 794 0 
L 794 531 
z
" transform="scale(0.015625)"/>
       </defs>
       <use xlink:href="#DejaVuSans-31"/>
       <use xlink:href="#DejaVuSans-30" transform="translate(63.623047 0)"/>
       <use xlink:href="#DejaVuSans-30" transform="translate(127.246094 0)"/>
       <use xlink:href="#DejaVuSans-30" transform="translate(190.869141 0)"/>
       <use xlink:href="#DejaVuSans-30" transform="translate(254.492188 0)"/>
      </g>
     </g>
    </g>
    <g id="xtick_3">
     <g id="line2d_5">
      <path d="M 240.140202 303.64 
L 240.140202 26.88 
" clip-path="url(#pfc7359f43d)" style="fill: none; stroke: #b0b0b0; stroke-width: 0.8; stroke-linecap: square"/>
     </g>
     <g id="line2d_6">
      <g>
       <use xlink:href="#mf9b0dc0aae" x="240.140202" y="303.64" style="stroke: #000000; stroke-width: 0.8"/>
      </g>
     </g>
     <g id="text_3">
      <!-- 20000 -->
      <g transform="translate(224.233952 318.238437) scale(0.1 -0.1)">
       <defs>
        <path id="DejaVuSans-32" d="M 1228 531 
L 3431 531 
L 3431 0 
L 469 0 
L 469 531 
Q 828 903 1448 1529 
Q 2069 2156 2228 2338 
Q 2531 2678 2651 2914 
Q 2772 3150 2772 3378 
Q 2772 3750 2511 3984 
Q 2250 4219 1831 4219 
Q 1534 4219 1204 4116 
Q 875 4013 500 3803 
L 500 4441 
Q 881 4594 1212 4672 
Q 1544 4750 1819 4750 
Q 2544 4750 2975 4387 
Q 3406 4025 3406 3419 
Q 3406 3131 3298 2873 
Q 3191 2616 2906 2266 
Q 2828 2175 2409 1742 
Q 1991 1309 1228 531 
z
" transform="scale(0.015625)"/>
       </defs>
       <use xlink:href="#DejaVuSans-32"/>
       <use xlink:href="#DejaVuSans-30" transform="translate(63.623047 0)"/>
       <use xlink:href="#DejaVuSans-30" transform="translate(127.246094 0)"/>
       <use xlink:href="#DejaVuSans-30" transform="translate(190.869141 0)"/>
       <use xlink:href="#DejaVuSans-30" transform="translate(254.492188 0)"/>
      </g>
     </g>
    </g>
    <g id="xtick_4">
     <g id="line2d_7">
      <path d="M 327.207576 303.64 
L 327.207576 26.88 
" clip-path="url(#pfc7359f43d)" style="fill: none; stroke: #b0b0b0; stroke-width: 0.8; stroke-linecap: square"/>
     </g>
     <g id="line2d_8">
      <g>
       <use xlink:href="#mf9b0dc0aae" x="327.207576" y="303.64" style="stroke: #000000; stroke-width: 0.8"/>
      </g>
     </g>
     <g id="text_4">
      <!-- 30000 -->
      <g transform="translate(311.301326 318.238437) scale(0.1 -0.1)">
       <defs>
        <path id="DejaVuSans-33" d="M 2597 2516 
Q 3050 2419 3304 2112 
Q 3559 1806 3559 1356 
Q 3559 666 3084 287 
Q 2609 -91 1734 -91 
Q 1441 -91 1130 -33 
Q 819 25 488 141 
L 488 750 
Q 750 597 1062 519 
Q 1375 441 1716 441 
Q 2309 441 2620 675 
Q 2931 909 2931 1356 
Q 2931 1769 2642 2001 
Q 2353 2234 1838 2234 
L 1294 2234 
L 1294 2753 
L 1863 2753 
Q 2328 2753 2575 2939 
Q 2822 3125 2822 3475 
Q 2822 3834 2567 4026 
Q 2313 4219 1838 4219 
Q 1578 4219 1281 4162 
Q 984 4106 628 3988 
L 628 4550 
Q 988 4650 1302 4700 
Q 1616 4750 1894 4750 
Q 2613 4750 3031 4423 
Q 3450 4097 3450 3541 
Q 3450 3153 3228 2886 
Q 3006 2619 2597 2516 
z
" transform="scale(0.015625)"/>
       </defs>
       <use xlink:href="#DejaVuSans-33"/>
       <use xlink:href="#DejaVuSans-30" transform="translate(63.623047 0)"/>
       <use xlink:href="#DejaVuSans-30" transform="translate(127.246094 0)"/>
       <use xlink:href="#DejaVuSans-30" transform="translate(190.869141 0)"/>
       <use xlink:href="#DejaVuSans-30" transform="translate(254.492188 0)"/>
      </g>
     </g>
    </g>
    <g id="xtick_5">
     <g id="line2d_9">
      <path d="M 414.27495 303.64 
L 414.27495 26.88 
" clip-path="url(#pfc7359f43d)" style="fill: none; stroke: #b0b0b0; stroke-width: 0.8; stroke-linecap: square"/>
     </g>
     <g id="line2d_10">
      <g>
       <use xlink:href="#mf9b0dc0aae" x="414.27495" y="303.64" style="stroke: #000000; stroke-width: 0.8"/>
      </g>
     </g>
     <g id="text_5">
      <!-- 40000 -->
      <g transform="translate(398.3687 318.238437) scale(0.1 -0.1)">
       <defs>
        <path id="DejaVuSans-34" d="M 2419 4116 
L 825 1625 
L 2419 1625 
L 2419 4116 
z
M 2253 4666 
L 3047 4666 
L 3047 1625 
L 3713 1625 
L 3713 1100 
L 3047 1100 
L 3047 0 
L 2419 0 
L 2419 1100 
L 313 1100 
L 313 1709 
L 2253 4666 
z
" transform="scale(0.015625)"/>
       </defs>
       <use xlink:href="#DejaVuSans-34"/>
       <use xlink:href="#DejaVuSans-30" transform="translate(63.623047 0)"/>
       <use xlink:href="#DejaVuSans-30" transform="translate(127.246094 0)"/>
       <use xlink:href="#DejaVuSans-30" transform="translate(190.869141 0)"/>
       <use xlink:href="#DejaVuSans-30" transform="translate(254.492188 0)"/>
      </g>
     </g>
    </g>
    <g id="text_6">
     <!-- Amount of edges -->
     <g transform="translate(206.108437 331.916562) scale(0.1 -0.1)">
      <defs>
       <path id="DejaVuSans-41" d="M 2188 4044 
L 1331 1722 
L 3047 1722 
L 2188 4044 
z
M 1831 4666 
L 2547 4666 
L 4325 0 
L 3669 0 
L 3244 1197 
L 1141 1197 
L 716 0 
L 50 0 
L 1831 4666 
z
" transform="scale(0.015625)"/>
       <path id="DejaVuSans-6d" d="M 3328 2828 
Q 3544 3216 3844 3400 
Q 4144 3584 4550 3584 
Q 5097 3584 5394 3201 
Q 5691 2819 5691 2113 
L 5691 0 
L 5113 0 
L 5113 2094 
Q 5113 2597 4934 2840 
Q 4756 3084 4391 3084 
Q 3944 3084 3684 2787 
Q 3425 2491 3425 1978 
L 3425 0 
L 2847 0 
L 2847 2094 
Q 2847 2600 2669 2842 
Q 2491 3084 2119 3084 
Q 1678 3084 1418 2786 
Q 1159 2488 1159 1978 
L 1159 0 
L 581 0 
L 581 3500 
L 1159 3500 
L 1159 2956 
Q 1356 3278 1631 3431 
Q 1906 3584 2284 3584 
Q 2666 3584 2933 3390 
Q 3200 3197 3328 2828 
z
" transform="scale(0.015625)"/>
       <path id="DejaVuSans-6f" d="M 1959 3097 
Q 1497 3097 1228 2736 
Q 959 2375 959 1747 
Q 959 1119 1226 758 
Q 1494 397 1959 397 
Q 2419 397 2687 759 
Q 2956 1122 2956 1747 
Q 2956 2369 2687 2733 
Q 2419 3097 1959 3097 
z
M 1959 3584 
Q 2709 3584 3137 3096 
Q 3566 2609 3566 1747 
Q 3566 888 3137 398 
Q 2709 -91 1959 -91 
Q 1206 -91 779 398 
Q 353 888 353 1747 
Q 353 2609 779 3096 
Q 1206 3584 1959 3584 
z
" transform="scale(0.015625)"/>
       <path id="DejaVuSans-75" d="M 544 1381 
L 544 3500 
L 1119 3500 
L 1119 1403 
Q 1119 906 1312 657 
Q 1506 409 1894 409 
Q 2359 409 2629 706 
Q 2900 1003 2900 1516 
L 2900 3500 
L 3475 3500 
L 3475 0 
L 2900 0 
L 2900 538 
Q 2691 219 2414 64 
Q 2138 -91 1772 -91 
Q 1169 -91 856 284 
Q 544 659 544 1381 
z
M 1991 3584 
L 1991 3584 
z
" transform="scale(0.015625)"/>
       <path id="DejaVuSans-6e" d="M 3513 2113 
L 3513 0 
L 2938 0 
L 2938 2094 
Q 2938 2591 2744 2837 
Q 2550 3084 2163 3084 
Q 1697 3084 1428 2787 
Q 1159 2491 1159 1978 
L 1159 0 
L 581 0 
L 581 3500 
L 1159 3500 
L 1159 2956 
Q 1366 3272 1645 3428 
Q 1925 3584 2291 3584 
Q 2894 3584 3203 3211 
Q 3513 2838 3513 2113 
z
" transform="scale(0.015625)"/>
       <path id="DejaVuSans-74" d="M 1172 4494 
L 1172 3500 
L 2356 3500 
L 2356 3053 
L 1172 3053 
L 1172 1153 
Q 1172 725 1289 603 
Q 1406 481 1766 481 
L 2356 481 
L 2356 0 
L 1766 0 
Q 1100 0 847 248 
Q 594 497 594 1153 
L 594 3053 
L 172 3053 
L 172 3500 
L 594 3500 
L 594 4494 
L 1172 4494 
z
" transform="scale(0.015625)"/>
       <path id="DejaVuSans-20" transform="scale(0.015625)"/>
       <path id="DejaVuSans-66" d="M 2375 4863 
L 2375 4384 
L 1825 4384 
Q 1516 4384 1395 4259 
Q 1275 4134 1275 3809 
L 1275 3500 
L 2222 3500 
L 2222 3053 
L 1275 3053 
L 1275 0 
L 697 0 
L 697 3053 
L 147 3053 
L 147 3500 
L 697 3500 
L 697 3744 
Q 697 4328 969 4595 
Q 1241 4863 1831 4863 
L 2375 4863 
z
" transform="scale(0.015625)"/>
       <path id="DejaVuSans-65" d="M 3597 1894 
L 3597 1613 
L 953 1613 
Q 991 1019 1311 708 
Q 1631 397 2203 397 
Q 2534 397 2845 478 
Q 3156 559 3463 722 
L 3463 178 
Q 3153 47 2828 -22 
Q 2503 -91 2169 -91 
Q 1331 -91 842 396 
Q 353 884 353 1716 
Q 353 2575 817 3079 
Q 1281 3584 2069 3584 
Q 2775 3584 3186 3129 
Q 3597 2675 3597 1894 
z
M 3022 2063 
Q 3016 2534 2758 2815 
Q 2500 3097 2075 3097 
Q 1594 3097 1305 2825 
Q 1016 2553 972 2059 
L 3022 2063 
z
" transform="scale(0.015625)"/>
       <path id="DejaVuSans-64" d="M 2906 2969 
L 2906 4863 
L 3481 4863 
L 3481 0 
L 2906 0 
L 2906 525 
Q 2725 213 2448 61 
Q 2172 -91 1784 -91 
Q 1150 -91 751 415 
Q 353 922 353 1747 
Q 353 2572 751 3078 
Q 1150 3584 1784 3584 
Q 2172 3584 2448 3432 
Q 2725 3281 2906 2969 
z
M 947 1747 
Q 947 1113 1208 752 
Q 1469 391 1925 391 
Q 2381 391 2643 752 
Q 2906 1113 2906 1747 
Q 2906 2381 2643 2742 
Q 2381 3103 1925 3103 
Q 1469 3103 1208 2742 
Q 947 2381 947 1747 
z
" transform="scale(0.015625)"/>
       <path id="DejaVuSans-67" d="M 2906 1791 
Q 2906 2416 2648 2759 
Q 2391 3103 1925 3103 
Q 1463 3103 1205 2759 
Q 947 2416 947 1791 
Q 947 1169 1205 825 
Q 1463 481 1925 481 
Q 2391 481 2648 825 
Q 2906 1169 2906 1791 
z
M 3481 434 
Q 3481 -459 3084 -895 
Q 2688 -1331 1869 -1331 
Q 1566 -1331 1297 -1286 
Q 1028 -1241 775 -1147 
L 775 -588 
Q 1028 -725 1275 -790 
Q 1522 -856 1778 -856 
Q 2344 -856 2625 -561 
Q 2906 -266 2906 331 
L 2906 616 
Q 2728 306 2450 153 
Q 2172 0 1784 0 
Q 1141 0 747 490 
Q 353 981 353 1791 
Q 353 2603 747 3093 
Q 1141 3584 1784 3584 
Q 2172 3584 2450 3431 
Q 2728 3278 2906 2969 
L 2906 3500 
L 3481 3500 
L 3481 434 
z
" transform="scale(0.015625)"/>
       <path id="DejaVuSans-73" d="M 2834 3397 
L 2834 2853 
Q 2591 2978 2328 3040 
Q 2066 3103 1784 3103 
Q 1356 3103 1142 2972 
Q 928 2841 928 2578 
Q 928 2378 1081 2264 
Q 1234 2150 1697 2047 
L 1894 2003 
Q 2506 1872 2764 1633 
Q 3022 1394 3022 966 
Q 3022 478 2636 193 
Q 2250 -91 1575 -91 
Q 1294 -91 989 -36 
Q 684 19 347 128 
L 347 722 
Q 666 556 975 473 
Q 1284 391 1588 391 
Q 1994 391 2212 530 
Q 2431 669 2431 922 
Q 2431 1156 2273 1281 
Q 2116 1406 1581 1522 
L 1381 1569 
Q 847 1681 609 1914 
Q 372 2147 372 2553 
Q 372 3047 722 3315 
Q 1072 3584 1716 3584 
Q 2034 3584 2315 3537 
Q 2597 3491 2834 3397 
z
" transform="scale(0.015625)"/>
      </defs>
      <use xlink:href="#DejaVuSans-41"/>
      <use xlink:href="#DejaVuSans-6d" transform="translate(68.408203 0)"/>
      <use xlink:href="#DejaVuSans-6f" transform="translate(165.820312 0)"/>
      <use xlink:href="#DejaVuSans-75" transform="translate(227.001953 0)"/>
      <use xlink:href="#DejaVuSans-6e" transform="translate(290.380859 0)"/>
      <use xlink:href="#DejaVuSans-74" transform="translate(353.759766 0)"/>
      <use xlink:href="#DejaVuSans-20" transform="translate(392.96875 0)"/>
      <use xlink:href="#DejaVuSans-6f" transform="translate(424.755859 0)"/>
      <use xlink:href="#DejaVuSans-66" transform="translate(485.9375 0)"/>
      <use xlink:href="#DejaVuSans-20" transform="translate(521.142578 0)"/>
      <use xlink:href="#DejaVuSans-65" transform="translate(552.929688 0)"/>
      <use xlink:href="#DejaVuSans-64" transform="translate(614.453125 0)"/>
      <use xlink:href="#DejaVuSans-67" transform="translate(677.929688 0)"/>
      <use xlink:href="#DejaVuSans-65" transform="translate(741.40625 0)"/>
      <use xlink:href="#DejaVuSans-73" transform="translate(802.929688 0)"/>
     </g>
    </g>
   </g>
   <g id="matplotlib.axis_2">
    <g id="ytick_1">
     <g id="line2d_11">
      <path d="M 47.72 291.076081 
L 450 291.076081 
" clip-path="url(#pfc7359f43d)" style="fill: none; stroke: #b0b0b0; stroke-width: 0.8; stroke-linecap: square"/>
     </g>
     <g id="line2d_12">
      <defs>
       <path id="m14ade4141f" d="M 0 0 
L -3.5 0 
" style="stroke: #000000; stroke-width: 0.8"/>
      </defs>
      <g>
       <use xlink:href="#m14ade4141f" x="47.72" y="291.076081" style="stroke: #000000; stroke-width: 0.8"/>
      </g>
     </g>
     <g id="text_7">
      <!-- 0.0 -->
      <g transform="translate(24.816875 294.8753) scale(0.1 -0.1)">
       <defs>
        <path id="DejaVuSans-2e" d="M 684 794 
L 1344 794 
L 1344 0 
L 684 0 
L 684 794 
z
" transform="scale(0.015625)"/>
       </defs>
       <use xlink:href="#DejaVuSans-30"/>
       <use xlink:href="#DejaVuSans-2e" transform="translate(63.623047 0)"/>
       <use xlink:href="#DejaVuSans-30" transform="translate(95.410156 0)"/>
      </g>
     </g>
    </g>
    <g id="ytick_2">
     <g id="line2d_13">
      <path d="M 47.72 245.231488 
L 450 245.231488 
" clip-path="url(#pfc7359f43d)" style="fill: none; stroke: #b0b0b0; stroke-width: 0.8; stroke-linecap: square"/>
     </g>
     <g id="line2d_14">
      <g>
       <use xlink:href="#m14ade4141f" x="47.72" y="245.231488" style="stroke: #000000; stroke-width: 0.8"/>
      </g>
     </g>
     <g id="text_8">
      <!-- 0.5 -->
      <g transform="translate(24.816875 249.030707) scale(0.1 -0.1)">
       <defs>
        <path id="DejaVuSans-35" d="M 691 4666 
L 3169 4666 
L 3169 4134 
L 1269 4134 
L 1269 2991 
Q 1406 3038 1543 3061 
Q 1681 3084 1819 3084 
Q 2600 3084 3056 2656 
Q 3513 2228 3513 1497 
Q 3513 744 3044 326 
Q 2575 -91 1722 -91 
Q 1428 -91 1123 -41 
Q 819 9 494 109 
L 494 744 
Q 775 591 1075 516 
Q 1375 441 1709 441 
Q 2250 441 2565 725 
Q 2881 1009 2881 1497 
Q 2881 1984 2565 2268 
Q 2250 2553 1709 2553 
Q 1456 2553 1204 2497 
Q 953 2441 691 2322 
L 691 4666 
z
" transform="scale(0.015625)"/>
       </defs>
       <use xlink:href="#DejaVuSans-30"/>
       <use xlink:href="#DejaVuSans-2e" transform="translate(63.623047 0)"/>
       <use xlink:href="#DejaVuSans-35" transform="translate(95.410156 0)"/>
      </g>
     </g>
    </g>
    <g id="ytick_3">
     <g id="line2d_15">
      <path d="M 47.72 199.386895 
L 450 199.386895 
" clip-path="url(#pfc7359f43d)" style="fill: none; stroke: #b0b0b0; stroke-width: 0.8; stroke-linecap: square"/>
     </g>
     <g id="line2d_16">
      <g>
       <use xlink:href="#m14ade4141f" x="47.72" y="199.386895" style="stroke: #000000; stroke-width: 0.8"/>
      </g>
     </g>
     <g id="text_9">
      <!-- 1.0 -->
      <g transform="translate(24.816875 203.186113) scale(0.1 -0.1)">
       <use xlink:href="#DejaVuSans-31"/>
       <use xlink:href="#DejaVuSans-2e" transform="translate(63.623047 0)"/>
       <use xlink:href="#DejaVuSans-30" transform="translate(95.410156 0)"/>
      </g>
     </g>
    </g>
    <g id="ytick_4">
     <g id="line2d_17">
      <path d="M 47.72 153.542301 
L 450 153.542301 
" clip-path="url(#pfc7359f43d)" style="fill: none; stroke: #b0b0b0; stroke-width: 0.8; stroke-linecap: square"/>
     </g>
     <g id="line2d_18">
      <g>
       <use xlink:href="#m14ade4141f" x="47.72" y="153.542301" style="stroke: #000000; stroke-width: 0.8"/>
      </g>
     </g>
     <g id="text_10">
      <!-- 1.5 -->
      <g transform="translate(24.816875 157.34152) scale(0.1 -0.1)">
       <use xlink:href="#DejaVuSans-31"/>
       <use xlink:href="#DejaVuSans-2e" transform="translate(63.623047 0)"/>
       <use xlink:href="#DejaVuSans-35" transform="translate(95.410156 0)"/>
      </g>
     </g>
    </g>
    <g id="ytick_5">
     <g id="line2d_19">
      <path d="M 47.72 107.697708 
L 450 107.697708 
" clip-path="url(#pfc7359f43d)" style="fill: none; stroke: #b0b0b0; stroke-width: 0.8; stroke-linecap: square"/>
     </g>
     <g id="line2d_20">
      <g>
       <use xlink:href="#m14ade4141f" x="47.72" y="107.697708" style="stroke: #000000; stroke-width: 0.8"/>
      </g>
     </g>
     <g id="text_11">
      <!-- 2.0 -->
      <g transform="translate(24.816875 111.496927) scale(0.1 -0.1)">
       <use xlink:href="#DejaVuSans-32"/>
       <use xlink:href="#DejaVuSans-2e" transform="translate(63.623047 0)"/>
       <use xlink:href="#DejaVuSans-30" transform="translate(95.410156 0)"/>
      </g>
     </g>
    </g>
    <g id="ytick_6">
     <g id="line2d_21">
      <path d="M 47.72 61.853114 
L 450 61.853114 
" clip-path="url(#pfc7359f43d)" style="fill: none; stroke: #b0b0b0; stroke-width: 0.8; stroke-linecap: square"/>
     </g>
     <g id="line2d_22">
      <g>
       <use xlink:href="#m14ade4141f" x="47.72" y="61.853114" style="stroke: #000000; stroke-width: 0.8"/>
      </g>
     </g>
     <g id="text_12">
      <!-- 2.5 -->
      <g transform="translate(24.816875 65.652333) scale(0.1 -0.1)">
       <use xlink:href="#DejaVuSans-32"/>
       <use xlink:href="#DejaVuSans-2e" transform="translate(63.623047 0)"/>
       <use xlink:href="#DejaVuSans-35" transform="translate(95.410156 0)"/>
      </g>
     </g>
    </g>
    <g id="text_13">
     <!-- Nanoseconds -->
     <g transform="translate(18.737188 198.730312) rotate(-90) scale(0.1 -0.1)">
      <defs>
       <path id="DejaVuSans-4e" d="M 628 4666 
L 1478 4666 
L 3547 763 
L 3547 4666 
L 4159 4666 
L 4159 0 
L 3309 0 
L 1241 3903 
L 1241 0 
L 628 0 
L 628 4666 
z
" transform="scale(0.015625)"/>
       <path id="DejaVuSans-61" d="M 2194 1759 
Q 1497 1759 1228 1600 
Q 959 1441 959 1056 
Q 959 750 1161 570 
Q 1363 391 1709 391 
Q 2188 391 2477 730 
Q 2766 1069 2766 1631 
L 2766 1759 
L 2194 1759 
z
M 3341 1997 
L 3341 0 
L 2766 0 
L 2766 531 
Q 2569 213 2275 61 
Q 1981 -91 1556 -91 
Q 1019 -91 701 211 
Q 384 513 384 1019 
Q 384 1609 779 1909 
Q 1175 2209 1959 2209 
L 2766 2209 
L 2766 2266 
Q 2766 2663 2505 2880 
Q 2244 3097 1772 3097 
Q 1472 3097 1187 3025 
Q 903 2953 641 2809 
L 641 3341 
Q 956 3463 1253 3523 
Q 1550 3584 1831 3584 
Q 2591 3584 2966 3190 
Q 3341 2797 3341 1997 
z
" transform="scale(0.015625)"/>
       <path id="DejaVuSans-63" d="M 3122 3366 
L 3122 2828 
Q 2878 2963 2633 3030 
Q 2388 3097 2138 3097 
Q 1578 3097 1268 2742 
Q 959 2388 959 1747 
Q 959 1106 1268 751 
Q 1578 397 2138 397 
Q 2388 397 2633 464 
Q 2878 531 3122 666 
L 3122 134 
Q 2881 22 2623 -34 
Q 2366 -91 2075 -91 
Q 1284 -91 818 406 
Q 353 903 353 1747 
Q 353 2603 823 3093 
Q 1294 3584 2113 3584 
Q 2378 3584 2631 3529 
Q 2884 3475 3122 3366 
z
" transform="scale(0.015625)"/>
      </defs>
      <use xlink:href="#DejaVuSans-4e"/>
      <use xlink:href="#DejaVuSans-61" transform="translate(74.804688 0)"/>
      <use xlink:href="#DejaVuSans-6e" transform="translate(136.083984 0)"/>
      <use xlink:href="#DejaVuSans-6f" transform="translate(199.462891 0)"/>
      <use xlink:href="#DejaVuSans-73" transform="translate(260.644531 0)"/>
      <use xlink:href="#DejaVuSans-65" transform="translate(312.744141 0)"/>
      <use xlink:href="#DejaVuSans-63" transform="translate(374.267578 0)"/>
      <use xlink:href="#DejaVuSans-6f" transform="translate(429.248047 0)"/>
      <use xlink:href="#DejaVuSans-6e" transform="translate(490.429688 0)"/>
      <use xlink:href="#DejaVuSans-64" transform="translate(553.808594 0)"/>
      <use xlink:href="#DejaVuSans-73" transform="translate(617.285156 0)"/>
     </g>
    </g>
    <g id="text_14">
     <!-- 1e8 -->
     <g transform="translate(47.72 23.88) scale(0.1 -0.1)">
      <defs>
       <path id="DejaVuSans-38" d="M 2034 2216 
Q 1584 2216 1326 1975 
Q 1069 1734 1069 1313 
Q 1069 891 1326 650 
Q 1584 409 2034 409 
Q 2484 409 2743 651 
Q 3003 894 3003 1313 
Q 3003 1734 2745 1975 
Q 2488 2216 2034 2216 
z
M 1403 2484 
Q 997 2584 770 2862 
Q 544 3141 544 3541 
Q 544 4100 942 4425 
Q 1341 4750 2034 4750 
Q 2731 4750 3128 4425 
Q 3525 4100 3525 3541 
Q 3525 3141 3298 2862 
Q 3072 2584 2669 2484 
Q 3125 2378 3379 2068 
Q 3634 1759 3634 1313 
Q 3634 634 3220 271 
Q 2806 -91 2034 -91 
Q 1263 -91 848 271 
Q 434 634 434 1313 
Q 434 1759 690 2068 
Q 947 2378 1403 2484 
z
M 1172 3481 
Q 1172 3119 1398 2916 
Q 1625 2713 2034 2713 
Q 2441 2713 2670 2916 
Q 2900 3119 2900 3481 
Q 2900 3844 2670 4047 
Q 2441 4250 2034 4250 
Q 1625 4250 1398 4047 
Q 1172 3844 1172 3481 
z
" transform="scale(0.015625)"/>
      </defs>
      <use xlink:href="#DejaVuSans-31"/>
      <use xlink:href="#DejaVuSans-65" transform="translate(63.623047 0)"/>
      <use xlink:href="#DejaVuSans-38" transform="translate(125.146484 0)"/>
     </g>
    </g>
   </g>
   <g id="line2d_23">
    <path d="M 66.005455 291.06 
L 66.127349 290.992958 
L 68.295326 290.745922 
L 74.8515 290.358013 
L 74.964687 290.509865 
L 76.819222 290.553248 
L 76.93241 290.628261 
L 78.786945 290.643212 
L 78.900133 290.711921 
L 81.738529 290.722311 
L 81.851717 290.756049 
L 86.657836 290.661445 
L 86.771023 290.685791 
L 89.60942 290.626959 
L 89.722607 290.658444 
L 92.561004 290.616591 
L 92.674191 290.67113 
L 95.512588 290.64095 
L 95.625775 290.685289 
L 98.464172 290.644511 
L 98.577359 290.682921 
L 101.415756 290.632611 
L 101.528943 290.677294 
L 104.36734 290.655885 
L 104.480527 290.686994 
L 106.726865 290.687018 
L 109.286646 290.672921 
L 109.399834 290.723412 
L 113.222091 290.670197 
L 113.335279 290.707632 
L 116.173675 290.679993 
L 116.286863 290.701459 
L 120.109121 290.678888 
L 120.222308 290.718316 
L 123.060705 290.687934 
L 123.173892 290.723331 
L 130.931595 290.49765 
L 131.044783 290.534481 
L 132.899318 290.523244 
L 133.012506 290.661717 
L 134.867041 290.678435 
L 134.980228 290.718597 
L 137.818625 290.694881 
L 137.931812 290.731556 
L 141.75407 290.67278 
L 141.867257 290.709291 
L 144.705654 290.70327 
L 144.818841 290.7367 
L 148.641099 290.721524 
L 148.754287 290.765392 
L 153.560406 290.709941 
L 153.673593 290.746249 
L 157.495851 290.724006 
L 157.617745 290.748949 
L 160.447435 290.734288 
L 160.560623 290.790007 
L 164.38288 290.750966 
L 164.496068 290.784145 
L 168.257379 290.78479 
L 171.26991 290.808104 
L 171.391804 290.839247 
L 175.205355 290.840474 
L 175.327249 290.865659 
L 182.092384 290.849253 
L 182.214279 290.870732 
L 188.605024 290.610638 
L 189.318976 290.589404 
L 193.89872 290.462928 
L 194.011908 290.592692 
L 195.866443 290.592567 
L 195.97963 290.686787 
L 197.834165 290.715471 
L 197.947353 290.753154 
L 199.801888 290.761583 
L 199.915076 290.82194 
L 203.232343 290.848199 
L 206.688917 290.852379 
L 206.810812 290.872613 
L 210.842031 290.874627 
L 216.518824 290.856106 
L 216.640718 290.875335 
L 222.421992 290.859464 
L 222.543886 290.883628 
L 228.32516 290.868812 
L 228.447054 290.887408 
L 233.244466 290.869814 
L 233.366361 290.889089 
L 243.08308 290.769817 
L 243.196267 290.866189 
L 247.027232 290.863172 
L 251.937832 290.842128 
L 252.059726 290.865008 
L 256.857138 290.857642 
L 256.979033 290.879034 
L 260.792584 290.852564 
L 260.914478 290.872011 
L 266.695752 290.838311 
L 266.817646 290.861065 
L 271.615058 290.826663 
L 271.736953 290.849424 
L 275.550503 290.823201 
L 275.672398 290.845224 
L 280.46981 290.811568 
L 280.591704 290.833475 
L 286.372978 290.793671 
L 286.494872 290.817969 
L 290.308423 290.797136 
L 290.430318 290.821295 
L 293.260007 290.807177 
L 293.373195 290.852749 
L 297.195453 290.848734 
L 297.317347 290.871315 
L 301.130898 290.852119 
L 301.252792 290.873641 
L 307.034066 290.848457 
L 307.15596 290.870003 
L 311.953373 290.841201 
L 312.075267 290.863284 
L 316.872679 290.844264 
L 316.994574 290.867262 
L 322.775847 290.854171 
L 322.897741 290.874488 
L 326.711292 290.85868 
L 326.833187 290.87828 
L 332.61446 290.847723 
L 332.736355 290.868546 
L 338.517628 290.848843 
L 338.639523 290.869526 
L 343.436935 290.836407 
L 343.558829 290.859164 
L 348.356242 290.839507 
L 348.478136 290.863827 
L 353.266842 290.844255 
L 353.388736 290.867105 
L 362.121593 290.697924 
L 362.243488 290.720082 
L 364.089316 290.699823 
L 364.202504 290.84858 
L 369.008623 290.830937 
L 369.130517 290.856216 
L 373.927929 290.815327 
L 374.049824 290.83794 
L 381.972955 290.762117 
L 383.766543 290.752107 
L 383.87973 290.859879 
L 396.55674 290.543568 
L 396.669927 290.57911 
L 399.508324 290.504181 
L 399.621511 290.637439 
L 401.476046 290.634518 
L 401.589234 290.686128 
L 403.443769 290.676388 
L 403.556957 290.719241 
L 406.395353 290.715939 
L 406.508541 290.811523 
L 411.31466 290.765451 
L 411.436554 290.792656 
L 414.823475 290.784293 
L 419.18555 290.809399 
L 419.307445 290.833051 
L 422.259029 290.818943 
L 426.07258 290.779374 
L 426.194474 290.803157 
L 430.008025 290.772613 
L 430.129919 290.801315 
L 431.714545 290.784987 
L 431.714545 290.784987 
" clip-path="url(#pfc7359f43d)" style="fill: none; stroke: #1f77b4; stroke-width: 3; stroke-linecap: square"/>
   </g>
   <g id="line2d_24">
    <path d="M 66.005455 291.029507 
L 66.127349 290.877628 
L 67.590081 290.206636 
L 68.408514 289.850991 
L 70.219515 289.307183 
L 74.8515 288.594155 
L 74.860206 289.009104 
L 74.964687 288.995436 
L 75.835361 288.8625 
L 75.844068 289.315705 
L 75.948549 289.302672 
L 76.819222 289.188258 
L 76.827929 289.568744 
L 76.93241 289.550812 
L 77.803084 289.439288 
L 77.81179 289.717592 
L 77.916271 289.699669 
L 78.786945 289.598942 
L 78.795652 289.807037 
L 78.900133 289.79226 
L 79.770806 289.683486 
L 79.779513 289.852434 
L 79.883994 289.835914 
L 80.754668 289.71485 
L 80.763374 289.862647 
L 80.867855 289.845444 
L 81.738529 289.727999 
L 81.747236 289.85503 
L 81.851717 289.839015 
L 82.496015 289.745691 
L 82.72239 289.713406 
L 82.731097 289.880729 
L 82.835578 289.86565 
L 83.706252 289.747374 
L 83.714958 289.89997 
L 83.819439 289.882435 
L 84.690113 289.680024 
L 84.69882 289.835487 
L 84.803301 289.806153 
L 85.673974 289.571338 
L 85.682681 289.723088 
L 85.787162 289.701748 
L 87.641697 289.346953 
L 87.650404 289.478898 
L 87.754885 289.445085 
L 90.593281 289.019455 
L 90.601988 289.156448 
L 90.706469 289.134362 
L 92.561004 288.890075 
L 92.56971 289.111273 
L 92.674191 289.092532 
L 93.544865 288.893963 
L 93.553572 289.158173 
L 93.658053 289.132837 
L 94.528726 288.945154 
L 94.537433 289.183091 
L 94.641914 289.156405 
L 95.512588 288.966684 
L 95.521294 289.244506 
L 95.625775 289.224446 
L 96.496449 289.049141 
L 96.505156 289.303119 
L 96.609636 289.283792 
L 97.48031 289.078433 
L 97.489017 289.342016 
L 97.593498 289.317752 
L 97.976594 289.211116 
L 98.464172 289.126866 
L 98.472878 289.350761 
L 98.577359 289.335459 
L 99.448033 289.235094 
L 99.45674 289.42612 
L 99.56122 289.407253 
L 100.431894 289.271824 
L 100.440601 289.477821 
L 100.545082 289.467573 
L 101.415756 289.351318 
L 101.424462 289.563371 
L 101.528943 289.549315 
L 102.399617 289.446426 
L 102.408324 289.661015 
L 102.512804 289.648518 
L 103.383478 289.537929 
L 103.392185 289.752887 
L 103.496666 289.738447 
L 104.36734 289.599714 
L 104.384753 289.796704 
L 104.480527 289.783458 
L 105.351201 289.680499 
L 105.359908 289.903189 
L 105.464388 289.876618 
L 106.335062 289.66567 
L 106.343769 289.877429 
L 106.44825 289.836915 
L 107.318923 289.658772 
L 107.32763 289.776095 
L 107.432111 289.750771 
L 108.302785 289.571114 
L 108.311492 289.724136 
L 108.415972 289.706257 
L 109.208286 289.512119 
L 109.286646 289.498683 
L 109.295353 289.629273 
L 109.399834 289.619491 
L 110.749378 289.401685 
L 111.254369 289.358256 
L 111.263076 289.482731 
L 111.367556 289.474419 
L 112.23823 289.41776 
L 112.246937 289.569034 
L 112.351418 289.55994 
L 113.222091 289.504354 
L 113.335279 289.614017 
L 114.205953 289.554337 
L 114.21466 289.787197 
L 114.31914 289.779399 
L 115.189814 289.667073 
L 115.198521 289.894015 
L 115.303002 289.882065 
L 116.173675 289.772844 
L 116.182382 289.982534 
L 116.286863 289.968647 
L 117.157537 289.878666 
L 117.166243 290.104663 
L 117.270724 290.090525 
L 118.141398 289.922064 
L 118.150105 290.18105 
L 118.254586 290.166953 
L 119.125259 290.052588 
L 119.133966 290.183644 
L 119.238447 290.173432 
L 121.092982 290.036998 
L 121.197463 290.093932 
L 121.20617 290.091472 
L 123.060705 289.919709 
L 123.069411 290.038572 
L 123.173892 290.024473 
L 125.028427 289.918958 
L 125.037134 290.019883 
L 125.141615 290.009486 
L 126.012289 289.909954 
L 126.020995 290.090574 
L 126.125476 290.076978 
L 126.99615 289.975928 
L 127.004857 290.102682 
L 127.109338 290.089857 
L 127.980011 289.987185 
L 127.988718 290.097841 
L 128.093199 290.081209 
L 129.947734 289.875018 
L 129.956441 289.993042 
L 130.060922 289.973499 
L 133.883179 289.468193 
L 133.891886 289.577904 
L 133.996367 289.557801 
L 134.867041 289.382128 
L 134.875747 289.498264 
L 134.980228 289.479053 
L 135.850902 289.296414 
L 135.859609 289.409833 
L 135.96409 289.391671 
L 136.834763 289.248791 
L 136.84347 289.40902 
L 136.947951 289.392229 
L 137.818625 289.276982 
L 137.827331 289.432802 
L 137.931812 289.420441 
L 138.802486 289.263283 
L 138.811193 289.458955 
L 138.915674 289.439657 
L 139.786347 289.292974 
L 139.795054 289.59517 
L 139.899535 289.580876 
L 140.770209 289.479451 
L 140.778915 289.680901 
L 140.883396 289.665695 
L 141.75407 289.519997 
L 141.762777 289.717302 
L 141.867257 289.70223 
L 142.737931 289.545588 
L 142.746638 289.73752 
L 142.851119 289.717678 
L 143.721793 289.607155 
L 143.730499 289.807343 
L 143.83498 289.795236 
L 144.705654 289.677064 
L 144.714361 289.839067 
L 144.818841 289.826237 
L 145.689515 289.715243 
L 145.698222 289.845509 
L 145.802703 289.832014 
L 146.673377 289.723871 
L 146.682083 289.89602 
L 146.786564 289.881237 
L 147.657238 289.772662 
L 147.665945 289.934387 
L 147.770425 289.921681 
L 149.346345 289.837871 
L 149.433412 289.864753 
L 149.459533 289.857181 
L 149.624961 289.832065 
L 149.633667 289.950623 
L 149.738148 289.935928 
L 150.608822 289.862157 
L 150.617529 290.036886 
L 150.722009 290.029249 
L 151.592683 289.966823 
L 151.60139 290.100313 
L 151.705871 290.089388 
L 152.576544 290.018692 
L 152.585251 290.149747 
L 152.689732 290.14084 
L 153.560406 290.081715 
L 153.569113 290.207471 
L 153.673593 290.19702 
L 154.544267 290.129563 
L 154.552974 290.248544 
L 154.657455 290.239514 
L 155.528128 290.161058 
L 155.536835 290.287488 
L 155.641316 290.270566 
L 156.51199 290.176563 
L 156.520697 290.299309 
L 156.625177 290.290358 
L 158.479712 290.231667 
L 158.5929 290.313159 
L 160.447435 290.244259 
L 160.560623 290.319226 
L 163.399019 290.215185 
L 163.512207 290.296467 
L 164.38288 290.228975 
L 164.426414 290.337632 
L 164.496068 290.331611 
L 167.334464 290.196007 
L 167.447652 290.259074 
L 168.475047 290.259664 
L 170.286048 290.197749 
L 170.399236 290.267609 
L 172.253771 290.215669 
L 172.366959 290.285217 
L 173.237632 290.207622 
L 173.246339 290.367879 
L 173.35082 290.358774 
L 175.205355 290.296087 
L 175.214062 290.407475 
L 175.318543 290.365662 
L 176.041202 290.174577 
L 176.345938 290.195711 
L 177.739016 290.149787 
L 179.1408 290.116416 
L 179.253988 290.185452 
L 181.108523 290.1177 
L 181.221711 290.19887 
L 183.076246 290.132146 
L 183.189433 290.193335 
L 184.060107 290.151279 
L 184.068814 290.389313 
L 184.173295 290.371688 
L 185.043968 290.297003 
L 185.157156 290.393002 
L 187.011691 290.345237 
L 187.124878 290.408303 
L 189.963275 290.264958 
L 189.971982 290.341142 
L 190.076462 290.317662 
L 191.930998 290.253638 
L 192.044185 290.316689 
L 193.89872 290.250845 
L 193.916134 290.318142 
L 194.011908 290.30356 
L 194.969649 290.298569 
L 195.970924 290.301139 
L 196.084111 39.810954 
L 196.850304 39.707636 
L 196.859011 39.797196 
L 196.963492 39.781657 
L 197.834165 39.663145 
L 197.842872 39.766087 
L 197.947353 39.7495 
L 198.931214 39.720656 
L 201.769611 39.521636 
L 201.778318 39.612139 
L 201.882798 39.600926 
L 203.737333 39.486965 
L 203.763454 39.555048 
L 203.850521 39.540088 
L 204.721195 39.46 
L 204.729902 290.099306 
L 204.834382 290.089594 
L 205.705056 290.024676 
L 205.713763 290.155301 
L 205.818244 290.148258 
L 207.672779 290.109863 
L 207.681485 290.26067 
L 207.785966 290.252487 
L 209.631795 290.218271 
L 209.649208 290.320412 
L 209.744982 290.311884 
L 213.56724 290.163853 
L 213.575947 290.242057 
L 213.680428 290.230062 
L 215.534963 290.170847 
L 215.64815 290.242609 
L 217.502685 290.173814 
L 217.615873 290.240834 
L 219.470408 290.170842 
L 219.479115 290.332413 
L 219.583596 290.324094 
L 220.454269 290.260035 
L 220.462976 290.381485 
L 220.567457 290.373736 
L 222.421992 290.264597 
L 222.448112 290.347076 
L 222.535179 290.317433 
L 224.537729 290.194593 
L 226.357437 290.127051 
L 226.366144 290.231441 
L 226.470625 290.221777 
L 228.32516 290.16122 
L 228.438347 290.230937 
L 230.292882 290.129385 
L 230.301589 290.254222 
L 230.40607 290.24471 
L 231.276744 290.160651 
L 231.285451 290.341253 
L 231.389931 290.333218 
L 232.260605 290.269612 
L 232.269312 290.38262 
L 232.373793 290.372645 
L 238.163773 289.948005 
L 238.25084 290.032809 
L 238.276961 290.028867 
L 240.131496 289.901913 
L 240.20115 289.97125 
L 240.244683 289.965743 
L 240.462352 289.940615 
L 240.584246 289.641464 
L 241.986031 289.428166 
L 242.464901 289.426597 
L 242.473608 289.516925 
L 242.578089 289.501013 
L 243.08308 289.410776 
L 243.091786 289.632855 
L 243.196267 289.612721 
L 244.066941 289.489923 
L 244.075648 289.605959 
L 244.180129 289.588297 
L 245.512259 289.333099 
L 245.660274 289.229374 
L 246.034664 289.145691 
L 246.04337 289.262113 
L 246.147851 289.229384 
L 248.986248 288.816545 
L 248.994954 289.294653 
L 249.099435 289.276708 
L 250.95397 289.08334 
L 250.962677 289.248261 
L 251.067158 289.233738 
L 251.937832 289.119501 
L 251.946538 289.264754 
L 252.051019 289.252935 
L 252.921693 289.162084 
L 252.9304 289.351941 
L 253.034881 289.340387 
L 253.905554 289.25502 
L 253.914261 289.640382 
L 254.018742 289.628416 
L 254.889416 289.528371 
L 254.898122 289.765435 
L 255.002603 289.752665 
L 255.873277 289.666028 
L 255.881984 289.896693 
L 255.986465 289.884541 
L 256.003878 289.88277 
L 256.117066 62.921324 
L 256.857138 62.820315 
L 256.865845 63.016474 
L 256.970326 63.001186 
L 257.841 62.914911 
L 257.849706 63.092844 
L 257.954187 63.069625 
L 258.824861 62.890013 
L 258.833568 63.054149 
L 258.938049 63.0338 
L 259.808722 62.902647 
L 259.817429 63.034743 
L 259.92191 63.022209 
L 260.792584 62.918303 
L 260.80129 63.020239 
L 260.905771 63.00638 
L 264.728029 62.613713 
L 264.736736 289.696359 
L 264.841216 289.668372 
L 266.243001 289.495859 
L 266.356189 289.514562 
L 266.695752 289.453364 
L 266.704458 289.658545 
L 266.808939 289.639949 
L 267.679613 289.56945 
L 267.7928 289.710743 
L 268.663474 289.66362 
L 268.689594 289.782749 
L 268.776662 289.745989 
L 270.631197 289.641918 
L 270.639904 289.870972 
L 270.744384 289.856574 
L 271.615058 289.764873 
L 271.623765 289.962903 
L 271.728246 289.955592 
L 272.59892 289.892385 
L 272.607626 290.069182 
L 272.712107 290.059324 
L 273.582781 289.988605 
L 273.591488 290.183241 
L 273.695968 290.172408 
L 274.566642 290.101375 
L 274.575349 290.288631 
L 274.67983 290.279417 
L 277.518226 290.18262 
L 277.631414 290.277137 
L 278.502087 290.211832 
L 278.510794 290.372441 
L 278.615275 290.364885 
L 279.485949 290.293365 
L 279.494656 290.401471 
L 279.599136 290.392214 
L 284.405255 290.135532 
L 284.518443 290.211861 
L 285.389117 290.141845 
L 285.423944 290.218864 
L 285.502304 290.203896 
L 286.050829 290.156087 
L 287.356839 290.125485 
L 287.470027 290.194707 
L 289.03724 290.163504 
L 289.150427 290.198089 
L 289.324562 290.185816 
L 289.333269 290.346693 
L 289.43775 290.33888 
L 290.308423 290.269195 
L 290.31713 290.40645 
L 290.421611 290.394477 
L 292.276146 290.31503 
L 292.302266 290.392835 
L 292.380627 290.311573 
L 293.14682 290.128868 
L 293.886892 290.106377 
L 300.147037 289.693042 
L 300.260224 289.777873 
L 301.130898 289.791947 
L 301.139605 290.017609 
L 301.244086 290.011213 
L 302.114759 289.964941 
L 302.227947 290.096592 
L 303.098621 290.049637 
L 303.176981 290.216042 
L 303.211808 290.214119 
L 303.89964 290.115935 
L 304.021535 290.053917 
L 304.596179 289.930401 
L 304.726781 289.821154 
L 305.066343 289.789214 
L 305.07505 289.915547 
L 305.179531 289.904363 
L 306.050205 289.814121 
L 306.058911 289.960148 
L 306.163392 289.945681 
L 307.034066 289.792361 
L 307.042773 289.963837 
L 307.147254 289.953895 
L 310.969511 289.504407 
L 311.082699 289.550842 
L 311.953373 289.513933 
L 312.06656 289.682203 
L 312.310349 289.671565 
L 312.423536 289.789671 
L 312.937234 289.7648 
L 312.945941 290.067466 
L 313.050421 290.060391 
L 314.904957 290.071676 
L 314.913663 290.241362 
L 315.018144 290.235756 
L 316.289328 290.067388 
L 316.611477 290.020622 
L 316.872679 289.993664 
L 316.881386 290.148531 
L 316.985867 290.136558 
L 318.840402 290.00861 
L 318.849109 290.172285 
L 318.953589 290.161396 
L 321.252168 289.905461 
L 321.791986 289.783791 
L 321.852933 289.825706 
L 321.905173 289.813161 
L 323.124117 289.757019 
L 324.74357 289.736856 
L 324.752277 290.088389 
L 324.856757 290.083186 
L 325.727431 290.046847 
L 325.840619 290.186287 
L 326.711292 290.145641 
L 326.746119 290.272405 
L 326.815773 290.138457 
L 329.662876 289.897292 
L 329.671583 290.111075 
L 329.776064 290.092613 
L 331.630599 289.842795 
L 331.639306 289.890503 
L 331.743787 289.865806 
L 332.414205 289.697384 
L 333.006264 289.633895 
L 335.505097 289.563255 
L 335.635698 289.85446 
L 336.549906 289.80143 
L 336.558612 289.980285 
L 336.663093 289.974567 
L 338.517628 289.869153 
L 338.543749 290.042817 
L 338.630816 289.924166 
L 339.17934 289.794866 
L 339.50149 289.673529 
L 339.510196 289.862072 
L 339.614677 289.817732 
L 340.485351 289.607781 
L 340.494058 289.852226 
L 340.598539 289.830321 
L 341.469212 289.66031 
L 341.477919 289.750178 
L 341.5824 289.73135 
L 342.688156 289.610088 
L 344.420796 289.585137 
L 344.533984 289.637472 
L 346.388519 289.637433 
L 346.397226 289.824275 
L 346.501707 289.818493 
L 347.37238 289.688162 
L 347.381087 290.053133 
L 347.485568 290.038104 
L 348.356242 289.851999 
L 348.364948 290.121034 
L 348.469429 290.095878 
L 350.323964 289.875991 
L 350.332671 290.065069 
L 350.437152 289.928404 
L 351.952124 289.774931 
L 354.250703 289.727999 
L 354.36389 289.769378 
L 355.234564 289.716205 
L 355.347752 289.848006 
L 357.202287 289.805611 
L 357.210994 290.030076 
L 357.315474 290.011729 
L 358.186148 289.846649 
L 358.194855 290.059093 
L 358.299336 290.033907 
L 359.065529 289.912109 
L 359.170009 289.773704 
L 359.178716 289.973437 
L 359.283197 289.953777 
L 360.42378 289.691193 
L 363.105455 289.5632 
L 363.218642 289.611185 
L 363.471138 289.46288 
L 364.089316 289.09964 
L 364.098023 289.239847 
L 364.202504 289.218322 
L 365.073177 289.05013 
L 365.090591 289.155888 
L 365.186365 289.114647 
L 366.057039 288.886258 
L 366.065745 289.070647 
L 366.170226 289.052233 
L 367.0409 288.867712 
L 367.049607 289.251864 
L 367.154088 289.222089 
L 367.850627 289.073092 
L 368.024761 289.066143 
L 368.033468 289.384416 
L 368.137949 289.378777 
L 369.992484 289.342079 
L 370.105672 289.401027 
L 370.976345 289.385202 
L 371.089533 289.478221 
L 371.960207 289.426884 
L 371.968913 289.945821 
L 372.073394 289.92934 
L 372.944068 289.796782 
L 372.952775 289.98247 
L 373.057256 289.973135 
L 373.927929 289.858513 
L 373.936636 290.129703 
L 374.041117 289.958028 
L 374.911791 289.778279 
L 374.920497 289.983658 
L 375.024978 289.975664 
L 375.895652 289.902591 
L 375.904359 290.097051 
L 376.00884 290.08895 
L 380.814959 289.61368 
L 380.928146 289.758067 
L 381.79882 289.720366 
L 381.912008 289.838903 
L 382.756561 289.798695 
L 382.887162 290.144714 
L 384.750404 290.134624 
L 384.767817 290.237155 
L 384.820058 289.928942 
L 384.837471 289.927626 
L 385.734265 289.847249 
L 385.742972 289.987965 
L 385.847453 289.976565 
L 386.413391 289.921451 
L 386.718127 289.84655 
L 386.726833 290.06844 
L 386.831314 290.012177 
L 387.701988 289.814159 
L 387.710695 290.015446 
L 387.815175 289.988725 
L 388.685849 289.792795 
L 388.694556 289.847778 
L 388.799037 289.824111 
L 390.514264 289.528909 
L 392.621295 289.519171 
L 392.734482 289.562816 
L 393.483262 289.526136 
L 393.491968 289.800749 
L 393.596449 289.79599 
L 393.605156 289.795545 
L 393.718343 289.90669 
L 394.589017 289.867384 
L 394.702205 290.000704 
L 395.38133 289.858893 
L 395.572879 289.828175 
L 395.581585 290.080324 
L 395.686066 290.060644 
L 396.55674 289.945979 
L 396.565447 290.168867 
L 396.669927 290.014819 
L 397.540601 289.854651 
L 397.549308 290.117554 
L 397.653789 290.104439 
L 401.06683 289.758411 
L 401.632768 289.661327 
L 403.443769 289.625654 
L 403.452476 289.805107 
L 403.556957 289.799485 
L 404.42763 289.737431 
L 404.540818 289.864204 
L 405.411492 289.819068 
L 405.420199 290.139456 
L 405.524679 290.132987 
L 406.395353 290.074342 
L 406.40406 290.19899 
L 406.508541 290.184516 
L 408.554624 289.916384 
L 409.346937 289.744761 
L 409.355644 289.993929 
L 409.460125 289.973132 
L 411.31466 289.658764 
L 411.427847 289.69304 
L 413.282382 289.671213 
L 413.39557 289.716404 
L 415.250105 289.699957 
L 415.363293 289.875709 
L 416.233966 289.835695 
L 416.347154 289.967251 
L 416.599649 289.937042 
L 416.608356 290.119291 
L 416.712837 290.054882 
L 417.217828 289.991755 
L 417.226534 290.254996 
L 417.331015 290.23761 
L 418.201689 290.160909 
L 418.210396 290.355399 
L 418.314877 290.34935 
L 419.18555 290.283725 
L 419.194257 290.476944 
L 419.298738 290.467173 
L 424.766569 290.00121 
L 425.088718 289.944147 
L 425.097425 290.10769 
L 425.201906 290.094365 
L 426.864893 289.832737 
L 428.040302 289.853335 
L 428.15349 289.999618 
L 429.024164 289.961647 
L 429.137351 290.083024 
L 430.991886 290.094062 
L 431.105074 290.197936 
L 431.714545 290.162866 
L 431.714545 290.162866 
" clip-path="url(#pfc7359f43d)" style="fill: none; stroke: #ff7f0e; stroke-width: 3; stroke-linecap: square"/>
   </g>
   <g id="patch_3">
    <path d="M 47.72 303.64 
L 47.72 26.88 
" style="fill: none; stroke: #000000; stroke-width: 0.8; stroke-linejoin: miter; stroke-linecap: square"/>
   </g>
   <g id="patch_4">
    <path d="M 450 303.64 
L 450 26.88 
" style="fill: none; stroke: #000000; stroke-width: 0.8; stroke-linejoin: miter; stroke-linecap: square"/>
   </g>
   <g id="patch_5">
    <path d="M 47.72 303.64 
L 450 303.64 
" style="fill: none; stroke: #000000; stroke-width: 0.8; stroke-linejoin: miter; stroke-linecap: square"/>
   </g>
   <g id="patch_6">
    <path d="M 47.72 26.88 
L 450 26.88 
" style="fill: none; stroke: #000000; stroke-width: 0.8; stroke-linejoin: miter; stroke-linecap: square"/>
   </g>
   <g id="text_15">
    <!-- Comparison of 2 Measurements -->
    <g transform="translate(153.300625 20.88) scale(0.12 -0.12)">
     <defs>
      <path id="DejaVuSans-43" d="M 4122 4306 
L 4122 3641 
Q 3803 3938 3442 4084 
Q 3081 4231 2675 4231 
Q 1875 4231 1450 3742 
Q 1025 3253 1025 2328 
Q 1025 1406 1450 917 
Q 1875 428 2675 428 
Q 3081 428 3442 575 
Q 3803 722 4122 1019 
L 4122 359 
Q 3791 134 3420 21 
Q 3050 -91 2638 -91 
Q 1578 -91 968 557 
Q 359 1206 359 2328 
Q 359 3453 968 4101 
Q 1578 4750 2638 4750 
Q 3056 4750 3426 4639 
Q 3797 4528 4122 4306 
z
" transform="scale(0.015625)"/>
      <path id="DejaVuSans-70" d="M 1159 525 
L 1159 -1331 
L 581 -1331 
L 581 3500 
L 1159 3500 
L 1159 2969 
Q 1341 3281 1617 3432 
Q 1894 3584 2278 3584 
Q 2916 3584 3314 3078 
Q 3713 2572 3713 1747 
Q 3713 922 3314 415 
Q 2916 -91 2278 -91 
Q 1894 -91 1617 61 
Q 1341 213 1159 525 
z
M 3116 1747 
Q 3116 2381 2855 2742 
Q 2594 3103 2138 3103 
Q 1681 3103 1420 2742 
Q 1159 2381 1159 1747 
Q 1159 1113 1420 752 
Q 1681 391 2138 391 
Q 2594 391 2855 752 
Q 3116 1113 3116 1747 
z
" transform="scale(0.015625)"/>
      <path id="DejaVuSans-72" d="M 2631 2963 
Q 2534 3019 2420 3045 
Q 2306 3072 2169 3072 
Q 1681 3072 1420 2755 
Q 1159 2438 1159 1844 
L 1159 0 
L 581 0 
L 581 3500 
L 1159 3500 
L 1159 2956 
Q 1341 3275 1631 3429 
Q 1922 3584 2338 3584 
Q 2397 3584 2469 3576 
Q 2541 3569 2628 3553 
L 2631 2963 
z
" transform="scale(0.015625)"/>
      <path id="DejaVuSans-69" d="M 603 3500 
L 1178 3500 
L 1178 0 
L 603 0 
L 603 3500 
z
M 603 4863 
L 1178 4863 
L 1178 4134 
L 603 4134 
L 603 4863 
z
" transform="scale(0.015625)"/>
      <path id="DejaVuSans-4d" d="M 628 4666 
L 1569 4666 
L 2759 1491 
L 3956 4666 
L 4897 4666 
L 4897 0 
L 4281 0 
L 4281 4097 
L 3078 897 
L 2444 897 
L 1241 4097 
L 1241 0 
L 628 0 
L 628 4666 
z
" transform="scale(0.015625)"/>
     </defs>
     <use xlink:href="#DejaVuSans-43"/>
     <use xlink:href="#DejaVuSans-6f" transform="translate(69.824219 0)"/>
     <use xlink:href="#DejaVuSans-6d" transform="translate(131.005859 0)"/>
     <use xlink:href="#DejaVuSans-70" transform="translate(228.417969 0)"/>
     <use xlink:href="#DejaVuSans-61" transform="translate(291.894531 0)"/>
     <use xlink:href="#DejaVuSans-72" transform="translate(353.173828 0)"/>
     <use xlink:href="#DejaVuSans-69" transform="translate(394.287109 0)"/>
     <use xlink:href="#DejaVuSans-73" transform="translate(422.070312 0)"/>
     <use xlink:href="#DejaVuSans-6f" transform="translate(474.169922 0)"/>
     <use xlink:href="#DejaVuSans-6e" transform="translate(535.351562 0)"/>
     <use xlink:href="#DejaVuSans-20" transform="translate(598.730469 0)"/>
     <use xlink:href="#DejaVuSans-6f" transform="translate(630.517578 0)"/>
     <use xlink:href="#DejaVuSans-66" transform="translate(691.699219 0)"/>
     <use xlink:href="#DejaVuSans-20" transform="translate(726.904297 0)"/>
     <use xlink:href="#DejaVuSans-32" transform="translate(758.691406 0)"/>
     <use xlink:href="#DejaVuSans-20" transform="translate(822.314453 0)"/>
     <use xlink:href="#DejaVuSans-4d" transform="translate(854.101562 0)"/>
     <use xlink:href="#DejaVuSans-65" transform="translate(940.380859 0)"/>
     <use xlink:href="#DejaVuSans-61" transform="translate(1001.904297 0)"/>
     <use xlink:href="#DejaVuSans-73" transform="translate(1063.183594 0)"/>
     <use xlink:href="#DejaVuSans-75" transform="translate(1115.283203 0)"/>
     <use xlink:href="#DejaVuSans-72" transform="translate(1178.662109 0)"/>
     <use xlink:href="#DejaVuSans-65" transform="translate(1217.525391 0)"/>
     <use xlink:href="#DejaVuSans-6d" transform="translate(1279.048828 0)"/>
     <use xlink:href="#DejaVuSans-65" transform="translate(1376.460938 0)"/>
     <use xlink:href="#DejaVuSans-6e" transform="translate(1437.984375 0)"/>
     <use xlink:href="#DejaVuSans-74" transform="translate(1501.363281 0)"/>
     <use xlink:href="#DejaVuSans-73" transform="translate(1540.572266 0)"/>
    </g>
   </g>
   <g id="legend_1">
    <g id="patch_7">
     <path d="M 314.574375 71.7075 
L 441.6 71.7075 
Q 444 71.7075 444 69.3075 
L 444 35.28 
Q 444 32.88 441.6 32.88 
L 314.574375 32.88 
Q 312.174375 32.88 312.174375 35.28 
L 312.174375 69.3075 
Q 312.174375 71.7075 314.574375 71.7075 
z
" style="fill: #ffffff; opacity: 0.8; stroke: #cccccc; stroke-linejoin: miter"/>
    </g>
    <g id="line2d_25">
     <path d="M 316.974375 42.598125 
L 328.974375 42.598125 
L 340.974375 42.598125 
" style="fill: none; stroke: #1f77b4; stroke-width: 3; stroke-linecap: square"/>
    </g>
    <g id="text_16">
     <!-- Euler Tour Tree -->
     <g transform="translate(350.574375 46.798125) scale(0.12 -0.12)">
      <defs>
       <path id="DejaVuSans-45" d="M 628 4666 
L 3578 4666 
L 3578 4134 
L 1259 4134 
L 1259 2753 
L 3481 2753 
L 3481 2222 
L 1259 2222 
L 1259 531 
L 3634 531 
L 3634 0 
L 628 0 
L 628 4666 
z
" transform="scale(0.015625)"/>
       <path id="DejaVuSans-6c" d="M 603 4863 
L 1178 4863 
L 1178 0 
L 603 0 
L 603 4863 
z
" transform="scale(0.015625)"/>
       <path id="DejaVuSans-54" d="M -19 4666 
L 3928 4666 
L 3928 4134 
L 2272 4134 
L 2272 0 
L 1638 0 
L 1638 4134 
L -19 4134 
L -19 4666 
z
" transform="scale(0.015625)"/>
      </defs>
      <use xlink:href="#DejaVuSans-45"/>
      <use xlink:href="#DejaVuSans-75" transform="translate(63.183594 0)"/>
      <use xlink:href="#DejaVuSans-6c" transform="translate(126.5625 0)"/>
      <use xlink:href="#DejaVuSans-65" transform="translate(154.345703 0)"/>
      <use xlink:href="#DejaVuSans-72" transform="translate(215.869141 0)"/>
      <use xlink:href="#DejaVuSans-20" transform="translate(256.982422 0)"/>
      <use xlink:href="#DejaVuSans-54" transform="translate(288.769531 0)"/>
      <use xlink:href="#DejaVuSans-6f" transform="translate(332.853516 0)"/>
      <use xlink:href="#DejaVuSans-75" transform="translate(394.035156 0)"/>
      <use xlink:href="#DejaVuSans-72" transform="translate(457.414062 0)"/>
      <use xlink:href="#DejaVuSans-20" transform="translate(498.527344 0)"/>
      <use xlink:href="#DejaVuSans-54" transform="translate(530.314453 0)"/>
      <use xlink:href="#DejaVuSans-72" transform="translate(576.648438 0)"/>
      <use xlink:href="#DejaVuSans-65" transform="translate(615.511719 0)"/>
      <use xlink:href="#DejaVuSans-65" transform="translate(677.035156 0)"/>
     </g>
    </g>
    <g id="line2d_26">
     <path d="M 316.974375 60.211875 
L 328.974375 60.211875 
L 340.974375 60.211875 
" style="fill: none; stroke: #ff7f0e; stroke-width: 3; stroke-linecap: square"/>
    </g>
    <g id="text_17">
     <!-- Link-Cut Tree -->
     <g transform="translate(350.574375 64.411875) scale(0.12 -0.12)">
      <defs>
       <path id="DejaVuSans-4c" d="M 628 4666 
L 1259 4666 
L 1259 531 
L 3531 531 
L 3531 0 
L 628 0 
L 628 4666 
z
" transform="scale(0.015625)"/>
       <path id="DejaVuSans-6b" d="M 581 4863 
L 1159 4863 
L 1159 1991 
L 2875 3500 
L 3609 3500 
L 1753 1863 
L 3688 0 
L 2938 0 
L 1159 1709 
L 1159 0 
L 581 0 
L 581 4863 
z
" transform="scale(0.015625)"/>
       <path id="DejaVuSans-2d" d="M 313 2009 
L 1997 2009 
L 1997 1497 
L 313 1497 
L 313 2009 
z
" transform="scale(0.015625)"/>
      </defs>
      <use xlink:href="#DejaVuSans-4c"/>
      <use xlink:href="#DejaVuSans-69" transform="translate(55.712891 0)"/>
      <use xlink:href="#DejaVuSans-6e" transform="translate(83.496094 0)"/>
      <use xlink:href="#DejaVuSans-6b" transform="translate(146.875 0)"/>
      <use xlink:href="#DejaVuSans-2d" transform="translate(204.785156 0)"/>
      <use xlink:href="#DejaVuSans-43" transform="translate(240.869141 0)"/>
      <use xlink:href="#DejaVuSans-75" transform="translate(310.693359 0)"/>
      <use xlink:href="#DejaVuSans-74" transform="translate(374.072266 0)"/>
      <use xlink:href="#DejaVuSans-20" transform="translate(413.28125 0)"/>
      <use xlink:href="#DejaVuSans-54" transform="translate(445.068359 0)"/>
      <use xlink:href="#DejaVuSans-72" transform="translate(491.402344 0)"/>
      <use xlink:href="#DejaVuSans-65" transform="translate(530.265625 0)"/>
      <use xlink:href="#DejaVuSans-65" transform="translate(591.789062 0)"/>
     </g>
    </g>
   </g>
  </g>
 </g>
 <defs>
  <clipPath id="pfc7359f43d">
   <rect x="47.72" y="26.88" width="402.28" height="276.76"/>
  </clipPath>
 </defs>
</svg>
