<?xml version="1.0" encoding="utf-8" standalone="no"?>
<!DOCTYPE svg PUBLIC "-//W3C//DTD SVG 1.1//EN"
  "http://www.w3.org/Graphics/SVG/1.1/DTD/svg11.dtd">
<svg xmlns:xlink="http://www.w3.org/1999/xlink" width="460.8pt" height="345.6pt" viewBox="0 0 460.8 345.6" xmlns="http://www.w3.org/2000/svg" version="1.1">
 <metadata>
  <rdf:RDF xmlns:dc="http://purl.org/dc/elements/1.1/" xmlns:cc="http://creativecommons.org/ns#" xmlns:rdf="http://www.w3.org/1999/02/22-rdf-syntax-ns#">
   <cc:Work>
    <dc:type rdf:resource="http://purl.org/dc/dcmitype/StillImage"/>
    <dc:date>2025-09-01T01:15:18.188835</dc:date>
    <dc:format>image/svg+xml</dc:format>
    <dc:creator>
     <cc:Agent>
      <dc:title>Matplotlib v3.10.5, https://matplotlib.org/</dc:title>
     </cc:Agent>
    </dc:creator>
   </cc:Work>
  </rdf:RDF>
 </metadata>
 <defs>
  <style type="text/css">*{stroke-linejoin: round; stroke-linecap: butt}</style>
 </defs>
 <g id="figure_1">
  <g id="patch_1">
   <path d="M 0 345.6 
L 460.8 345.6 
L 460.8 0 
L 0 0 
z
" style="fill: #ffffff"/>
  </g>
  <g id="axes_1">
   <g id="patch_2">
    <path d="M 47.81 303.64 
L 450 303.64 
L 450 26.88 
L 47.81 26.88 
z
" style="fill: #ffffff"/>
   </g>
   <g id="matplotlib.axis_1">
    <g id="xtick_1">
     <g id="line2d_1">
      <path d="M 66.091364 303.64 
L 66.091364 26.88 
" clip-path="url(#p124f2dc06c)" style="fill: none; stroke: #b0b0b0; stroke-width: 0.8; stroke-linecap: square"/>
     </g>
     <g id="line2d_2">
      <defs>
       <path id="ma31f8f552a" d="M 0 0 
L 0 3.5 
" style="stroke: #000000; stroke-width: 0.8"/>
      </defs>
      <g>
       <use xlink:href="#ma31f8f552a" x="66.091364" y="303.64" style="stroke: #000000; stroke-width: 0.8"/>
      </g>
     </g>
     <g id="text_1">
      <!-- 0 -->
      <g transform="translate(62.910114 318.238437) scale(0.1 -0.1)">
       <defs>
        <path id="DejaVuSans-30" d="M 2034 4250 
Q 1547 4250 1301 3770 
Q 1056 3291 1056 2328 
Q 1056 1369 1301 889 
Q 1547 409 2034 409 
Q 2525 409 2770 889 
Q 3016 1369 3016 2328 
Q 3016 3291 2770 3770 
Q 2525 4250 2034 4250 
z
M 2034 4750 
Q 2819 4750 3233 4129 
Q 3647 3509 3647 2328 
Q 3647 1150 3233 529 
Q 2819 -91 2034 -91 
Q 1250 -91 836 529 
Q 422 1150 422 2328 
Q 422 3509 836 4129 
Q 1250 4750 2034 4750 
z
" transform="scale(0.015625)"/>
       </defs>
       <use xlink:href="#DejaVuSans-30"/>
      </g>
     </g>
    </g>
    <g id="xtick_2">
     <g id="line2d_3">
      <path d="M 148.981246 303.64 
L 148.981246 26.88 
" clip-path="url(#p124f2dc06c)" style="fill: none; stroke: #b0b0b0; stroke-width: 0.8; stroke-linecap: square"/>
     </g>
     <g id="line2d_4">
      <g>
       <use xlink:href="#ma31f8f552a" x="148.981246" y="303.64" style="stroke: #000000; stroke-width: 0.8"/>
      </g>
     </g>
     <g id="text_2">
      <!-- 2000 -->
      <g transform="translate(136.256246 318.238437) scale(0.1 -0.1)">
       <defs>
        <path id="DejaVuSans-32" d="M 1228 531 
L 3431 531 
L 3431 0 
L 469 0 
L 469 531 
Q 828 903 1448 1529 
Q 2069 2156 2228 2338 
Q 2531 2678 2651 2914 
Q 2772 3150 2772 3378 
Q 2772 3750 2511 3984 
Q 2250 4219 1831 4219 
Q 1534 4219 1204 4116 
Q 875 4013 500 3803 
L 500 4441 
Q 881 4594 1212 4672 
Q 1544 4750 1819 4750 
Q 2544 4750 2975 4387 
Q 3406 4025 3406 3419 
Q 3406 3131 3298 2873 
Q 3191 2616 2906 2266 
Q 2828 2175 2409 1742 
Q 1991 1309 1228 531 
z
" transform="scale(0.015625)"/>
       </defs>
       <use xlink:href="#DejaVuSans-32"/>
       <use xlink:href="#DejaVuSans-30" transform="translate(63.623047 0)"/>
       <use xlink:href="#DejaVuSans-30" transform="translate(127.246094 0)"/>
       <use xlink:href="#DejaVuSans-30" transform="translate(190.869141 0)"/>
      </g>
     </g>
    </g>
    <g id="xtick_3">
     <g id="line2d_5">
      <path d="M 231.871129 303.64 
L 231.871129 26.88 
" clip-path="url(#p124f2dc06c)" style="fill: none; stroke: #b0b0b0; stroke-width: 0.8; stroke-linecap: square"/>
     </g>
     <g id="line2d_6">
      <g>
       <use xlink:href="#ma31f8f552a" x="231.871129" y="303.64" style="stroke: #000000; stroke-width: 0.8"/>
      </g>
     </g>
     <g id="text_3">
      <!-- 4000 -->
      <g transform="translate(219.146129 318.238437) scale(0.1 -0.1)">
       <defs>
        <path id="DejaVuSans-34" d="M 2419 4116 
L 825 1625 
L 2419 1625 
L 2419 4116 
z
M 2253 4666 
L 3047 4666 
L 3047 1625 
L 3713 1625 
L 3713 1100 
L 3047 1100 
L 3047 0 
L 2419 0 
L 2419 1100 
L 313 1100 
L 313 1709 
L 2253 4666 
z
" transform="scale(0.015625)"/>
       </defs>
       <use xlink:href="#DejaVuSans-34"/>
       <use xlink:href="#DejaVuSans-30" transform="translate(63.623047 0)"/>
       <use xlink:href="#DejaVuSans-30" transform="translate(127.246094 0)"/>
       <use xlink:href="#DejaVuSans-30" transform="translate(190.869141 0)"/>
      </g>
     </g>
    </g>
    <g id="xtick_4">
     <g id="line2d_7">
      <path d="M 314.761012 303.64 
L 314.761012 26.88 
" clip-path="url(#p124f2dc06c)" style="fill: none; stroke: #b0b0b0; stroke-width: 0.8; stroke-linecap: square"/>
     </g>
     <g id="line2d_8">
      <g>
       <use xlink:href="#ma31f8f552a" x="314.761012" y="303.64" style="stroke: #000000; stroke-width: 0.8"/>
      </g>
     </g>
     <g id="text_4">
      <!-- 6000 -->
      <g transform="translate(302.036012 318.238437) scale(0.1 -0.1)">
       <defs>
        <path id="DejaVuSans-36" d="M 2113 2584 
Q 1688 2584 1439 2293 
Q 1191 2003 1191 1497 
Q 1191 994 1439 701 
Q 1688 409 2113 409 
Q 2538 409 2786 701 
Q 3034 994 3034 1497 
Q 3034 2003 2786 2293 
Q 2538 2584 2113 2584 
z
M 3366 4563 
L 3366 3988 
Q 3128 4100 2886 4159 
Q 2644 4219 2406 4219 
Q 1781 4219 1451 3797 
Q 1122 3375 1075 2522 
Q 1259 2794 1537 2939 
Q 1816 3084 2150 3084 
Q 2853 3084 3261 2657 
Q 3669 2231 3669 1497 
Q 3669 778 3244 343 
Q 2819 -91 2113 -91 
Q 1303 -91 875 529 
Q 447 1150 447 2328 
Q 447 3434 972 4092 
Q 1497 4750 2381 4750 
Q 2619 4750 2861 4703 
Q 3103 4656 3366 4563 
z
" transform="scale(0.015625)"/>
       </defs>
       <use xlink:href="#DejaVuSans-36"/>
       <use xlink:href="#DejaVuSans-30" transform="translate(63.623047 0)"/>
       <use xlink:href="#DejaVuSans-30" transform="translate(127.246094 0)"/>
       <use xlink:href="#DejaVuSans-30" transform="translate(190.869141 0)"/>
      </g>
     </g>
    </g>
    <g id="xtick_5">
     <g id="line2d_9">
      <path d="M 397.650895 303.64 
L 397.650895 26.88 
" clip-path="url(#p124f2dc06c)" style="fill: none; stroke: #b0b0b0; stroke-width: 0.8; stroke-linecap: square"/>
     </g>
     <g id="line2d_10">
      <g>
       <use xlink:href="#ma31f8f552a" x="397.650895" y="303.64" style="stroke: #000000; stroke-width: 0.8"/>
      </g>
     </g>
     <g id="text_5">
      <!-- 8000 -->
      <g transform="translate(384.925895 318.238437) scale(0.1 -0.1)">
       <defs>
        <path id="DejaVuSans-38" d="M 2034 2216 
Q 1584 2216 1326 1975 
Q 1069 1734 1069 1313 
Q 1069 891 1326 650 
Q 1584 409 2034 409 
Q 2484 409 2743 651 
Q 3003 894 3003 1313 
Q 3003 1734 2745 1975 
Q 2488 2216 2034 2216 
z
M 1403 2484 
Q 997 2584 770 2862 
Q 544 3141 544 3541 
Q 544 4100 942 4425 
Q 1341 4750 2034 4750 
Q 2731 4750 3128 4425 
Q 3525 4100 3525 3541 
Q 3525 3141 3298 2862 
Q 3072 2584 2669 2484 
Q 3125 2378 3379 2068 
Q 3634 1759 3634 1313 
Q 3634 634 3220 271 
Q 2806 -91 2034 -91 
Q 1263 -91 848 271 
Q 434 634 434 1313 
Q 434 1759 690 2068 
Q 947 2378 1403 2484 
z
M 1172 3481 
Q 1172 3119 1398 2916 
Q 1625 2713 2034 2713 
Q 2441 2713 2670 2916 
Q 2900 3119 2900 3481 
Q 2900 3844 2670 4047 
Q 2441 4250 2034 4250 
Q 1625 4250 1398 4047 
Q 1172 3844 1172 3481 
z
" transform="scale(0.015625)"/>
       </defs>
       <use xlink:href="#DejaVuSans-38"/>
       <use xlink:href="#DejaVuSans-30" transform="translate(63.623047 0)"/>
       <use xlink:href="#DejaVuSans-30" transform="translate(127.246094 0)"/>
       <use xlink:href="#DejaVuSans-30" transform="translate(190.869141 0)"/>
      </g>
     </g>
    </g>
    <g id="text_6">
     <!-- Amount of edges -->
     <g transform="translate(206.153437 331.916562) scale(0.1 -0.1)">
      <defs>
       <path id="DejaVuSans-41" d="M 2188 4044 
L 1331 1722 
L 3047 1722 
L 2188 4044 
z
M 1831 4666 
L 2547 4666 
L 4325 0 
L 3669 0 
L 3244 1197 
L 1141 1197 
L 716 0 
L 50 0 
L 1831 4666 
z
" transform="scale(0.015625)"/>
       <path id="DejaVuSans-6d" d="M 3328 2828 
Q 3544 3216 3844 3400 
Q 4144 3584 4550 3584 
Q 5097 3584 5394 3201 
Q 5691 2819 5691 2113 
L 5691 0 
L 5113 0 
L 5113 2094 
Q 5113 2597 4934 2840 
Q 4756 3084 4391 3084 
Q 3944 3084 3684 2787 
Q 3425 2491 3425 1978 
L 3425 0 
L 2847 0 
L 2847 2094 
Q 2847 2600 2669 2842 
Q 2491 3084 2119 3084 
Q 1678 3084 1418 2786 
Q 1159 2488 1159 1978 
L 1159 0 
L 581 0 
L 581 3500 
L 1159 3500 
L 1159 2956 
Q 1356 3278 1631 3431 
Q 1906 3584 2284 3584 
Q 2666 3584 2933 3390 
Q 3200 3197 3328 2828 
z
" transform="scale(0.015625)"/>
       <path id="DejaVuSans-6f" d="M 1959 3097 
Q 1497 3097 1228 2736 
Q 959 2375 959 1747 
Q 959 1119 1226 758 
Q 1494 397 1959 397 
Q 2419 397 2687 759 
Q 2956 1122 2956 1747 
Q 2956 2369 2687 2733 
Q 2419 3097 1959 3097 
z
M 1959 3584 
Q 2709 3584 3137 3096 
Q 3566 2609 3566 1747 
Q 3566 888 3137 398 
Q 2709 -91 1959 -91 
Q 1206 -91 779 398 
Q 353 888 353 1747 
Q 353 2609 779 3096 
Q 1206 3584 1959 3584 
z
" transform="scale(0.015625)"/>
       <path id="DejaVuSans-75" d="M 544 1381 
L 544 3500 
L 1119 3500 
L 1119 1403 
Q 1119 906 1312 657 
Q 1506 409 1894 409 
Q 2359 409 2629 706 
Q 2900 1003 2900 1516 
L 2900 3500 
L 3475 3500 
L 3475 0 
L 2900 0 
L 2900 538 
Q 2691 219 2414 64 
Q 2138 -91 1772 -91 
Q 1169 -91 856 284 
Q 544 659 544 1381 
z
M 1991 3584 
L 1991 3584 
z
" transform="scale(0.015625)"/>
       <path id="DejaVuSans-6e" d="M 3513 2113 
L 3513 0 
L 2938 0 
L 2938 2094 
Q 2938 2591 2744 2837 
Q 2550 3084 2163 3084 
Q 1697 3084 1428 2787 
Q 1159 2491 1159 1978 
L 1159 0 
L 581 0 
L 581 3500 
L 1159 3500 
L 1159 2956 
Q 1366 3272 1645 3428 
Q 1925 3584 2291 3584 
Q 2894 3584 3203 3211 
Q 3513 2838 3513 2113 
z
" transform="scale(0.015625)"/>
       <path id="DejaVuSans-74" d="M 1172 4494 
L 1172 3500 
L 2356 3500 
L 2356 3053 
L 1172 3053 
L 1172 1153 
Q 1172 725 1289 603 
Q 1406 481 1766 481 
L 2356 481 
L 2356 0 
L 1766 0 
Q 1100 0 847 248 
Q 594 497 594 1153 
L 594 3053 
L 172 3053 
L 172 3500 
L 594 3500 
L 594 4494 
L 1172 4494 
z
" transform="scale(0.015625)"/>
       <path id="DejaVuSans-20" transform="scale(0.015625)"/>
       <path id="DejaVuSans-66" d="M 2375 4863 
L 2375 4384 
L 1825 4384 
Q 1516 4384 1395 4259 
Q 1275 4134 1275 3809 
L 1275 3500 
L 2222 3500 
L 2222 3053 
L 1275 3053 
L 1275 0 
L 697 0 
L 697 3053 
L 147 3053 
L 147 3500 
L 697 3500 
L 697 3744 
Q 697 4328 969 4595 
Q 1241 4863 1831 4863 
L 2375 4863 
z
" transform="scale(0.015625)"/>
       <path id="DejaVuSans-65" d="M 3597 1894 
L 3597 1613 
L 953 1613 
Q 991 1019 1311 708 
Q 1631 397 2203 397 
Q 2534 397 2845 478 
Q 3156 559 3463 722 
L 3463 178 
Q 3153 47 2828 -22 
Q 2503 -91 2169 -91 
Q 1331 -91 842 396 
Q 353 884 353 1716 
Q 353 2575 817 3079 
Q 1281 3584 2069 3584 
Q 2775 3584 3186 3129 
Q 3597 2675 3597 1894 
z
M 3022 2063 
Q 3016 2534 2758 2815 
Q 2500 3097 2075 3097 
Q 1594 3097 1305 2825 
Q 1016 2553 972 2059 
L 3022 2063 
z
" transform="scale(0.015625)"/>
       <path id="DejaVuSans-64" d="M 2906 2969 
L 2906 4863 
L 3481 4863 
L 3481 0 
L 2906 0 
L 2906 525 
Q 2725 213 2448 61 
Q 2172 -91 1784 -91 
Q 1150 -91 751 415 
Q 353 922 353 1747 
Q 353 2572 751 3078 
Q 1150 3584 1784 3584 
Q 2172 3584 2448 3432 
Q 2725 3281 2906 2969 
z
M 947 1747 
Q 947 1113 1208 752 
Q 1469 391 1925 391 
Q 2381 391 2643 752 
Q 2906 1113 2906 1747 
Q 2906 2381 2643 2742 
Q 2381 3103 1925 3103 
Q 1469 3103 1208 2742 
Q 947 2381 947 1747 
z
" transform="scale(0.015625)"/>
       <path id="DejaVuSans-67" d="M 2906 1791 
Q 2906 2416 2648 2759 
Q 2391 3103 1925 3103 
Q 1463 3103 1205 2759 
Q 947 2416 947 1791 
Q 947 1169 1205 825 
Q 1463 481 1925 481 
Q 2391 481 2648 825 
Q 2906 1169 2906 1791 
z
M 3481 434 
Q 3481 -459 3084 -895 
Q 2688 -1331 1869 -1331 
Q 1566 -1331 1297 -1286 
Q 1028 -1241 775 -1147 
L 775 -588 
Q 1028 -725 1275 -790 
Q 1522 -856 1778 -856 
Q 2344 -856 2625 -561 
Q 2906 -266 2906 331 
L 2906 616 
Q 2728 306 2450 153 
Q 2172 0 1784 0 
Q 1141 0 747 490 
Q 353 981 353 1791 
Q 353 2603 747 3093 
Q 1141 3584 1784 3584 
Q 2172 3584 2450 3431 
Q 2728 3278 2906 2969 
L 2906 3500 
L 3481 3500 
L 3481 434 
z
" transform="scale(0.015625)"/>
       <path id="DejaVuSans-73" d="M 2834 3397 
L 2834 2853 
Q 2591 2978 2328 3040 
Q 2066 3103 1784 3103 
Q 1356 3103 1142 2972 
Q 928 2841 928 2578 
Q 928 2378 1081 2264 
Q 1234 2150 1697 2047 
L 1894 2003 
Q 2506 1872 2764 1633 
Q 3022 1394 3022 966 
Q 3022 478 2636 193 
Q 2250 -91 1575 -91 
Q 1294 -91 989 -36 
Q 684 19 347 128 
L 347 722 
Q 666 556 975 473 
Q 1284 391 1588 391 
Q 1994 391 2212 530 
Q 2431 669 2431 922 
Q 2431 1156 2273 1281 
Q 2116 1406 1581 1522 
L 1381 1569 
Q 847 1681 609 1914 
Q 372 2147 372 2553 
Q 372 3047 722 3315 
Q 1072 3584 1716 3584 
Q 2034 3584 2315 3537 
Q 2597 3491 2834 3397 
z
" transform="scale(0.015625)"/>
      </defs>
      <use xlink:href="#DejaVuSans-41"/>
      <use xlink:href="#DejaVuSans-6d" transform="translate(68.408203 0)"/>
      <use xlink:href="#DejaVuSans-6f" transform="translate(165.820312 0)"/>
      <use xlink:href="#DejaVuSans-75" transform="translate(227.001953 0)"/>
      <use xlink:href="#DejaVuSans-6e" transform="translate(290.380859 0)"/>
      <use xlink:href="#DejaVuSans-74" transform="translate(353.759766 0)"/>
      <use xlink:href="#DejaVuSans-20" transform="translate(392.96875 0)"/>
      <use xlink:href="#DejaVuSans-6f" transform="translate(424.755859 0)"/>
      <use xlink:href="#DejaVuSans-66" transform="translate(485.9375 0)"/>
      <use xlink:href="#DejaVuSans-20" transform="translate(521.142578 0)"/>
      <use xlink:href="#DejaVuSans-65" transform="translate(552.929688 0)"/>
      <use xlink:href="#DejaVuSans-64" transform="translate(614.453125 0)"/>
      <use xlink:href="#DejaVuSans-67" transform="translate(677.929688 0)"/>
      <use xlink:href="#DejaVuSans-65" transform="translate(741.40625 0)"/>
      <use xlink:href="#DejaVuSans-73" transform="translate(802.929688 0)"/>
     </g>
    </g>
   </g>
   <g id="matplotlib.axis_2">
    <g id="ytick_1">
     <g id="line2d_11">
      <path d="M 47.81 294.834578 
L 450 294.834578 
" clip-path="url(#p124f2dc06c)" style="fill: none; stroke: #b0b0b0; stroke-width: 0.8; stroke-linecap: square"/>
     </g>
     <g id="line2d_12">
      <defs>
       <path id="mc3b944472d" d="M 0 0 
L -3.5 0 
" style="stroke: #000000; stroke-width: 0.8"/>
      </defs>
      <g>
       <use xlink:href="#mc3b944472d" x="47.81" y="294.834578" style="stroke: #000000; stroke-width: 0.8"/>
      </g>
     </g>
     <g id="text_7">
      <!-- 0.0 -->
      <g transform="translate(24.906875 298.633796) scale(0.1 -0.1)">
       <defs>
        <path id="DejaVuSans-2e" d="M 684 794 
L 1344 794 
L 1344 0 
L 684 0 
L 684 794 
z
" transform="scale(0.015625)"/>
       </defs>
       <use xlink:href="#DejaVuSans-30"/>
       <use xlink:href="#DejaVuSans-2e" transform="translate(63.623047 0)"/>
       <use xlink:href="#DejaVuSans-30" transform="translate(95.410156 0)"/>
      </g>
     </g>
    </g>
    <g id="ytick_2">
     <g id="line2d_13">
      <path d="M 47.81 264.022956 
L 450 264.022956 
" clip-path="url(#p124f2dc06c)" style="fill: none; stroke: #b0b0b0; stroke-width: 0.8; stroke-linecap: square"/>
     </g>
     <g id="line2d_14">
      <g>
       <use xlink:href="#mc3b944472d" x="47.81" y="264.022956" style="stroke: #000000; stroke-width: 0.8"/>
      </g>
     </g>
     <g id="text_8">
      <!-- 0.2 -->
      <g transform="translate(24.906875 267.822175) scale(0.1 -0.1)">
       <use xlink:href="#DejaVuSans-30"/>
       <use xlink:href="#DejaVuSans-2e" transform="translate(63.623047 0)"/>
       <use xlink:href="#DejaVuSans-32" transform="translate(95.410156 0)"/>
      </g>
     </g>
    </g>
    <g id="ytick_3">
     <g id="line2d_15">
      <path d="M 47.81 233.211334 
L 450 233.211334 
" clip-path="url(#p124f2dc06c)" style="fill: none; stroke: #b0b0b0; stroke-width: 0.8; stroke-linecap: square"/>
     </g>
     <g id="line2d_16">
      <g>
       <use xlink:href="#mc3b944472d" x="47.81" y="233.211334" style="stroke: #000000; stroke-width: 0.8"/>
      </g>
     </g>
     <g id="text_9">
      <!-- 0.4 -->
      <g transform="translate(24.906875 237.010553) scale(0.1 -0.1)">
       <use xlink:href="#DejaVuSans-30"/>
       <use xlink:href="#DejaVuSans-2e" transform="translate(63.623047 0)"/>
       <use xlink:href="#DejaVuSans-34" transform="translate(95.410156 0)"/>
      </g>
     </g>
    </g>
    <g id="ytick_4">
     <g id="line2d_17">
      <path d="M 47.81 202.399713 
L 450 202.399713 
" clip-path="url(#p124f2dc06c)" style="fill: none; stroke: #b0b0b0; stroke-width: 0.8; stroke-linecap: square"/>
     </g>
     <g id="line2d_18">
      <g>
       <use xlink:href="#mc3b944472d" x="47.81" y="202.399713" style="stroke: #000000; stroke-width: 0.8"/>
      </g>
     </g>
     <g id="text_10">
      <!-- 0.6 -->
      <g transform="translate(24.906875 206.198931) scale(0.1 -0.1)">
       <use xlink:href="#DejaVuSans-30"/>
       <use xlink:href="#DejaVuSans-2e" transform="translate(63.623047 0)"/>
       <use xlink:href="#DejaVuSans-36" transform="translate(95.410156 0)"/>
      </g>
     </g>
    </g>
    <g id="ytick_5">
     <g id="line2d_19">
      <path d="M 47.81 171.588091 
L 450 171.588091 
" clip-path="url(#p124f2dc06c)" style="fill: none; stroke: #b0b0b0; stroke-width: 0.8; stroke-linecap: square"/>
     </g>
     <g id="line2d_20">
      <g>
       <use xlink:href="#mc3b944472d" x="47.81" y="171.588091" style="stroke: #000000; stroke-width: 0.8"/>
      </g>
     </g>
     <g id="text_11">
      <!-- 0.8 -->
      <g transform="translate(24.906875 175.38731) scale(0.1 -0.1)">
       <use xlink:href="#DejaVuSans-30"/>
       <use xlink:href="#DejaVuSans-2e" transform="translate(63.623047 0)"/>
       <use xlink:href="#DejaVuSans-38" transform="translate(95.410156 0)"/>
      </g>
     </g>
    </g>
    <g id="ytick_6">
     <g id="line2d_21">
      <path d="M 47.81 140.776469 
L 450 140.776469 
" clip-path="url(#p124f2dc06c)" style="fill: none; stroke: #b0b0b0; stroke-width: 0.8; stroke-linecap: square"/>
     </g>
     <g id="line2d_22">
      <g>
       <use xlink:href="#mc3b944472d" x="47.81" y="140.776469" style="stroke: #000000; stroke-width: 0.8"/>
      </g>
     </g>
     <g id="text_12">
      <!-- 1.0 -->
      <g transform="translate(24.906875 144.575688) scale(0.1 -0.1)">
       <defs>
        <path id="DejaVuSans-31" d="M 794 531 
L 1825 531 
L 1825 4091 
L 703 3866 
L 703 4441 
L 1819 4666 
L 2450 4666 
L 2450 531 
L 3481 531 
L 3481 0 
L 794 0 
L 794 531 
z
" transform="scale(0.015625)"/>
       </defs>
       <use xlink:href="#DejaVuSans-31"/>
       <use xlink:href="#DejaVuSans-2e" transform="translate(63.623047 0)"/>
       <use xlink:href="#DejaVuSans-30" transform="translate(95.410156 0)"/>
      </g>
     </g>
    </g>
    <g id="ytick_7">
     <g id="line2d_23">
      <path d="M 47.81 109.964847 
L 450 109.964847 
" clip-path="url(#p124f2dc06c)" style="fill: none; stroke: #b0b0b0; stroke-width: 0.8; stroke-linecap: square"/>
     </g>
     <g id="line2d_24">
      <g>
       <use xlink:href="#mc3b944472d" x="47.81" y="109.964847" style="stroke: #000000; stroke-width: 0.8"/>
      </g>
     </g>
     <g id="text_13">
      <!-- 1.2 -->
      <g transform="translate(24.906875 113.764066) scale(0.1 -0.1)">
       <use xlink:href="#DejaVuSans-31"/>
       <use xlink:href="#DejaVuSans-2e" transform="translate(63.623047 0)"/>
       <use xlink:href="#DejaVuSans-32" transform="translate(95.410156 0)"/>
      </g>
     </g>
    </g>
    <g id="ytick_8">
     <g id="line2d_25">
      <path d="M 47.81 79.153226 
L 450 79.153226 
" clip-path="url(#p124f2dc06c)" style="fill: none; stroke: #b0b0b0; stroke-width: 0.8; stroke-linecap: square"/>
     </g>
     <g id="line2d_26">
      <g>
       <use xlink:href="#mc3b944472d" x="47.81" y="79.153226" style="stroke: #000000; stroke-width: 0.8"/>
      </g>
     </g>
     <g id="text_14">
      <!-- 1.4 -->
      <g transform="translate(24.906875 82.952444) scale(0.1 -0.1)">
       <use xlink:href="#DejaVuSans-31"/>
       <use xlink:href="#DejaVuSans-2e" transform="translate(63.623047 0)"/>
       <use xlink:href="#DejaVuSans-34" transform="translate(95.410156 0)"/>
      </g>
     </g>
    </g>
    <g id="ytick_9">
     <g id="line2d_27">
      <path d="M 47.81 48.341604 
L 450 48.341604 
" clip-path="url(#p124f2dc06c)" style="fill: none; stroke: #b0b0b0; stroke-width: 0.8; stroke-linecap: square"/>
     </g>
     <g id="line2d_28">
      <g>
       <use xlink:href="#mc3b944472d" x="47.81" y="48.341604" style="stroke: #000000; stroke-width: 0.8"/>
      </g>
     </g>
     <g id="text_15">
      <!-- 1.6 -->
      <g transform="translate(24.906875 52.140823) scale(0.1 -0.1)">
       <use xlink:href="#DejaVuSans-31"/>
       <use xlink:href="#DejaVuSans-2e" transform="translate(63.623047 0)"/>
       <use xlink:href="#DejaVuSans-36" transform="translate(95.410156 0)"/>
      </g>
     </g>
    </g>
    <g id="text_16">
     <!-- Nanoseconds -->
     <g transform="translate(18.827188 198.730312) rotate(-90) scale(0.1 -0.1)">
      <defs>
       <path id="DejaVuSans-4e" d="M 628 4666 
L 1478 4666 
L 3547 763 
L 3547 4666 
L 4159 4666 
L 4159 0 
L 3309 0 
L 1241 3903 
L 1241 0 
L 628 0 
L 628 4666 
z
" transform="scale(0.015625)"/>
       <path id="DejaVuSans-61" d="M 2194 1759 
Q 1497 1759 1228 1600 
Q 959 1441 959 1056 
Q 959 750 1161 570 
Q 1363 391 1709 391 
Q 2188 391 2477 730 
Q 2766 1069 2766 1631 
L 2766 1759 
L 2194 1759 
z
M 3341 1997 
L 3341 0 
L 2766 0 
L 2766 531 
Q 2569 213 2275 61 
Q 1981 -91 1556 -91 
Q 1019 -91 701 211 
Q 384 513 384 1019 
Q 384 1609 779 1909 
Q 1175 2209 1959 2209 
L 2766 2209 
L 2766 2266 
Q 2766 2663 2505 2880 
Q 2244 3097 1772 3097 
Q 1472 3097 1187 3025 
Q 903 2953 641 2809 
L 641 3341 
Q 956 3463 1253 3523 
Q 1550 3584 1831 3584 
Q 2591 3584 2966 3190 
Q 3341 2797 3341 1997 
z
" transform="scale(0.015625)"/>
       <path id="DejaVuSans-63" d="M 3122 3366 
L 3122 2828 
Q 2878 2963 2633 3030 
Q 2388 3097 2138 3097 
Q 1578 3097 1268 2742 
Q 959 2388 959 1747 
Q 959 1106 1268 751 
Q 1578 397 2138 397 
Q 2388 397 2633 464 
Q 2878 531 3122 666 
L 3122 134 
Q 2881 22 2623 -34 
Q 2366 -91 2075 -91 
Q 1284 -91 818 406 
Q 353 903 353 1747 
Q 353 2603 823 3093 
Q 1294 3584 2113 3584 
Q 2378 3584 2631 3529 
Q 2884 3475 3122 3366 
z
" transform="scale(0.015625)"/>
      </defs>
      <use xlink:href="#DejaVuSans-4e"/>
      <use xlink:href="#DejaVuSans-61" transform="translate(74.804688 0)"/>
      <use xlink:href="#DejaVuSans-6e" transform="translate(136.083984 0)"/>
      <use xlink:href="#DejaVuSans-6f" transform="translate(199.462891 0)"/>
      <use xlink:href="#DejaVuSans-73" transform="translate(260.644531 0)"/>
      <use xlink:href="#DejaVuSans-65" transform="translate(312.744141 0)"/>
      <use xlink:href="#DejaVuSans-63" transform="translate(374.267578 0)"/>
      <use xlink:href="#DejaVuSans-6f" transform="translate(429.248047 0)"/>
      <use xlink:href="#DejaVuSans-6e" transform="translate(490.429688 0)"/>
      <use xlink:href="#DejaVuSans-64" transform="translate(553.808594 0)"/>
      <use xlink:href="#DejaVuSans-73" transform="translate(617.285156 0)"/>
     </g>
    </g>
    <g id="text_17">
     <!-- 1e6 -->
     <g transform="translate(47.81 23.88) scale(0.1 -0.1)">
      <use xlink:href="#DejaVuSans-31"/>
      <use xlink:href="#DejaVuSans-65" transform="translate(63.623047 0)"/>
      <use xlink:href="#DejaVuSans-36" transform="translate(125.146484 0)"/>
     </g>
    </g>
   </g>
   <g id="line2d_29">
    <path d="M 66.091364 291.06 
L 66.215698 283.23924 
L 66.754483 279.764614 
L 67.914941 273.300643 
L 68.039276 272.727393 
L 68.080721 273.031812 
L 68.536615 270.426843 
L 68.90962 268.708787 
L 70.194413 263.050079 
L 70.235858 263.553541 
L 70.277303 263.358966 
L 71.189091 259.437262 
L 72.26666 254.842171 
L 72.308105 255.149363 
L 72.34955 254.998078 
L 73.137004 251.764706 
L 74.338907 246.460948 
L 74.380352 246.6053 
L 74.421797 246.445542 
L 75.126361 243.171961 
L 75.95526 239.336839 
L 78.068952 231.315495 
L 78.151842 231.166059 
L 78.483401 230.079641 
L 78.524846 230.538888 
L 78.607736 230.243559 
L 79.56097 227.067651 
L 80.555648 223.968772 
L 80.597093 224.86046 
L 80.679983 224.644471 
L 82.379226 219.957407 
L 82.627895 219.181262 
L 82.66934 219.542529 
L 82.75223 219.308052 
L 85.156037 212.607141 
L 85.860601 210.787868 
L 86.772389 208.594081 
L 86.813834 208.806373 
L 86.855279 208.721795 
L 89.88076 203.557613 
L 90.916884 202.081583 
L 90.999773 202.472428 
L 91.041218 202.417121 
L 92.864796 199.894728 
L 93.196355 199.675965 
L 94.356814 198.125987 
L 95.061378 197.10566 
L 95.102823 197.298849 
L 95.185712 197.196708 
L 97.133625 194.876285 
L 97.17507 194.959014 
L 97.216515 194.907405 
L 99.205872 192.371146 
L 99.247317 192.499784 
L 99.288762 192.446172 
L 100.69789 190.795748 
L 101.278119 190.106954 
L 101.319564 190.248379 
L 101.361009 190.183983 
L 103.350366 187.862481 
L 103.391811 188.002366 
L 103.474701 187.892677 
L 104.22071 186.865263 
L 105.422613 185.308044 
L 105.464058 185.483362 
L 105.546948 185.372902 
L 106.210067 184.302198 
L 106.956076 183.191131 
L 108.199424 181.679205 
L 108.240869 204.147964 
L 108.323759 204.033037 
L 111.680799 199.807685 
L 112.882702 198.421162 
L 112.924147 219.442083 
L 113.007037 219.320531 
L 114.084606 217.989469 
L 116.198298 215.311477 
L 117.565981 213.567539 
L 117.607426 231.419947 
L 117.690316 231.304095 
L 118.809329 229.783387 
L 122.249259 225.589155 
L 122.290704 239.112684 
L 122.373594 239.000068 
L 123.989947 236.804123 
L 124.404396 236.182961 
L 126.932538 233.00921 
L 126.973983 242.694689 
L 127.056872 242.588697 
L 130.952697 237.738332 
L 131.615816 236.936767 
L 131.657261 243.395808 
L 131.740151 243.278724 
L 132.278935 242.53339 
L 133.397948 241.168127 
L 136.299094 237.544373 
L 136.340539 243.318625 
L 136.423429 243.192143 
L 136.879323 242.490254 
L 139.573245 239.312344 
L 140.816593 237.804269 
L 140.982373 237.587663 
L 141.023818 243.125128 
L 141.106708 243.006965 
L 141.977051 241.836278 
L 145.665651 237.346716 
L 145.707096 243.780645 
L 145.789986 243.668491 
L 146.49455 242.756313 
L 150.348929 238.35934 
L 150.390374 244.191672 
L 150.473264 244.062109 
L 151.633723 242.341742 
L 153.54019 239.864796 
L 153.871749 239.391837 
L 155.032208 237.975427 
L 155.073653 243.835336 
L 155.156543 243.729652 
L 156.73145 241.669279 
L 158.762253 239.269207 
L 158.969477 237.938761 
L 159.425372 237.353187 
L 159.715486 236.978979 
L 159.756931 242.880946 
L 159.839821 242.74445 
L 160.75161 241.595023 
L 161.539064 240.60828 
L 163.196861 238.575021 
L 164.398765 237.148135 
L 164.440209 243.140996 
L 164.523099 242.999108 
L 165.227663 242.026539 
L 168.336034 238.252886 
L 169.082043 237.380917 
L 169.123488 243.144539 
L 169.206378 243.01359 
L 169.952387 242.001428 
L 173.765321 237.127645 
L 173.806766 243.152858 
L 173.889656 243.006657 
L 174.635665 242.025923 
L 177.453921 238.505233 
L 178.4486 237.237027 
L 178.490045 243.128055 
L 178.572935 242.997259 
L 179.443278 241.775733 
L 180.852406 239.780988 
L 181.55697 238.751726 
L 183.131878 236.719083 
L 183.173323 242.662799 
L 183.256213 242.534007 
L 183.877887 241.681911 
L 185.369905 239.754644 
L 187.815156 236.545768 
L 187.856601 242.116355 
L 187.939491 241.971078 
L 188.892725 240.780209 
L 192.498435 236.213002 
L 192.53988 242.494876 
L 192.62277 242.340048 
L 193.244444 241.426791 
L 195.399581 238.651126 
L 197.181713 236.40388 
L 197.223158 243.210476 
L 197.306048 243.087383 
L 197.927722 242.260091 
L 201.864992 237.453324 
L 201.906436 243.378707 
L 201.989326 243.255923 
L 204.103018 240.544654 
L 206.54827 237.478436 
L 206.589715 243.399197 
L 206.672605 243.271791 
L 207.542949 242.035475 
L 211.231548 237.335316 
L 211.272993 243.425695 
L 211.355883 243.303219 
L 212.557786 241.671435 
L 214.298474 239.265202 
L 214.754368 238.621085 
L 215.914827 237.088977 
L 215.956272 243.140225 
L 216.039161 242.995411 
L 217.075285 241.235451 
L 217.738404 239.703035 
L 218.940307 237.10161 
L 220.266546 234.252305 
L 220.598105 233.813393 
L 220.63955 240.307097 
L 220.72244 240.175069 
L 222.007233 237.714145 
L 224.203815 234.664102 
L 225.281383 233.282663 
L 225.322828 239.497675 
L 225.405718 239.34639 
L 226.027392 238.425585 
L 227.51941 236.374609 
L 229.011428 234.284811 
L 229.964662 233.104572 
L 230.006107 238.992057 
L 230.088997 238.860183 
L 231.000785 237.628796 
L 234.64794 233.278658 
L 234.689385 239.380129 
L 234.772275 239.26628 
L 235.269614 238.610763 
L 238.377985 234.486781 
L 239.206884 233.368474 
L 239.331219 233.184374 
L 239.372663 238.990208 
L 239.455553 238.858488 
L 239.994338 238.186333 
L 242.10803 235.550553 
L 243.061263 234.166957 
L 244.014497 232.946046 
L 244.055942 238.92612 
L 244.138832 238.770675 
L 244.760506 237.889771 
L 245.46507 236.960801 
L 248.324771 233.698774 
L 248.697775 233.254933 
L 248.73922 239.311265 
L 248.82211 239.11099 
L 249.443784 238.26444 
L 252.013371 235.040158 
L 253.090939 233.660722 
L 253.381054 233.325029 
L 253.422499 239.625236 
L 253.505388 239.4986 
L 254.209952 238.718449 
L 258.064332 234.339502 
L 258.105777 243.606405 
L 258.188667 243.492094 
L 259.72213 241.59456 
L 261.089813 239.96062 
L 262.74761 237.91442 
L 262.789055 244.907272 
L 262.871945 244.792961 
L 263.908069 243.50257 
L 267.430889 238.901316 
L 267.472334 245.366981 
L 267.555224 245.25683 
L 269.171576 243.14685 
L 270.12481 241.991722 
L 272.114167 239.527871 
L 272.155612 245.370062 
L 272.238502 245.259911 
L 273.150291 244.124194 
L 274.310749 242.61689 
L 275.305428 241.418934 
L 276.797446 239.801478 
L 276.83889 245.970581 
L 276.92178 245.861508 
L 280.195931 240.964155 
L 281.480724 238.667456 
L 281.522169 244.718243 
L 281.605059 244.547854 
L 281.895173 243.884634 
L 283.304301 241.614588 
L 284.008865 240.270739 
L 285.749553 236.962957 
L 286.164002 236.012881 
L 286.205447 241.59456 
L 286.288337 241.384887 
L 288.567809 236.24859 
L 289.023703 235.1765 
L 290.059827 232.826959 
L 290.847281 230.952996 
L 290.888726 236.876839 
L 290.971615 236.667474 
L 292.049184 233.988557 
L 292.546523 232.830349 
L 293.002418 231.768734 
L 294.121431 229.124481 
L 294.61877 227.983526 
L 295.530559 226.03654 
L 295.572004 231.340145 
L 295.654894 231.164672 
L 297.395581 227.3941 
L 298.55604 225.121743 
L 299.177714 224.021614 
L 300.213837 222.485501 
L 300.255282 228.221084 
L 300.338172 228.091521 
L 301.084181 226.863216 
L 302.493309 224.857996 
L 303.197873 223.862626 
L 304.897116 221.449922 
L 304.938561 227.424758 
L 305.021451 227.250056 
L 305.51879 226.39642 
L 307.300922 223.668975 
L 308.337046 222.129626 
L 309.580394 220.392775 
L 309.621839 226.170879 
L 309.704729 226.021288 
L 310.243513 225.285969 
L 310.657963 224.66265 
L 312.149981 222.627696 
L 314.263673 219.786249 
L 314.305117 225.35776 
L 314.388007 225.231432 
L 315.797135 223.145948 
L 318.283832 219.879762 
L 318.946951 219.089906 
L 318.988396 226.322472 
L 319.071286 226.203231 
L 319.734405 225.208632 
L 322.469771 221.350863 
L 322.80133 220.58504 
L 323.505894 219.050159 
L 323.630229 218.702912 
L 323.671674 227.381621 
L 323.754564 227.0752 
L 324.376238 224.848752 
L 325.080802 223.190471 
L 326.48993 219.871135 
L 327.028714 218.514191 
L 327.816168 216.557499 
L 328.313508 215.402063 
L 328.354953 226.033921 
L 328.437842 225.847973 
L 329.515411 223.618136 
L 331.048874 221.299715 
L 332.209332 219.647442 
L 332.996786 218.530983 
L 333.038231 229.312586 
L 333.121121 229.147435 
L 333.825685 228.04592 
L 336.105157 224.77881 
L 337.55573 222.552824 
L 337.680064 222.375965 
L 337.721509 231.218747 
L 337.804399 231.066537 
L 338.591853 229.958397 
L 340.208206 227.63705 
L 342.363343 224.66912 
L 342.404788 231.411319 
L 342.487678 231.26974 
L 342.943572 230.598971 
L 347.046621 225.028692 
L 347.088066 232.050815 
L 347.170956 231.925257 
L 347.834075 230.94021 
L 350.983891 226.574357 
L 351.7299 225.561271 
L 351.771344 231.945747 
L 351.854234 231.802165 
L 353.304807 229.639343 
L 356.164508 225.444495 
L 356.413178 225.088466 
L 356.454623 231.431655 
L 356.537513 231.304865 
L 358.60976 228.453096 
L 360.350447 226.136216 
L 361.096456 225.026843 
L 361.137901 232.606502 
L 361.220791 232.470315 
L 361.552351 231.965466 
L 365.779735 226.69406 
L 365.82118 238.572556 
L 365.904069 238.447153 
L 366.484299 237.672395 
L 367.230308 236.585207 
L 368.100651 235.347966 
L 369.26111 233.649167 
L 370.463013 232.053588 
L 370.504458 239.61137 
L 370.587348 239.444525 
L 373.322714 234.877627 
L 375.146291 232.06052 
L 375.187736 239.01763 
L 375.270626 238.871121 
L 376.05808 237.623096 
L 377.384318 235.532682 
L 379.125006 232.85053 
L 379.82957 231.808327 
L 379.871015 238.381833 
L 379.953905 238.224231 
L 380.824248 236.888393 
L 381.487367 235.828011 
L 382.896495 233.682906 
L 384.347068 231.710962 
L 384.512848 231.458307 
L 384.554293 237.838007 
L 384.637183 237.697352 
L 385.590417 236.304205 
L 388.242893 232.682761 
L 389.196127 231.39237 
L 389.237571 237.853567 
L 389.320461 237.716918 
L 390.23225 236.353349 
L 393.879405 231.324739 
L 393.92085 238.127637 
L 394.00374 237.998074 
L 398.562683 231.594032 
L 398.604128 237.999922 
L 398.687018 237.888076 
L 399.598807 236.587826 
L 400.593485 235.190673 
L 402.582843 232.547498 
L 403.245962 231.628233 
L 403.287407 237.701974 
L 403.370296 237.565479 
L 405.442544 234.744983 
L 407.100341 232.412697 
L 407.92924 231.330131 
L 407.970685 237.835851 
L 408.053575 237.71245 
L 412.612518 231.027252 
L 412.653963 238.551296 
L 412.736853 238.444688 
L 413.980201 236.339022 
L 414.436096 235.576588 
L 417.295797 231.511919 
L 417.337242 238.686405 
L 417.420132 238.5704 
L 418.41481 237.134424 
L 419.036484 236.238268 
L 420.860062 233.773184 
L 421.979075 232.210111 
L 422.02052 239.153818 
L 422.10341 239.040585 
L 425.004556 235.074513 
L 426.662354 232.702018 
L 426.703798 239.189713 
L 426.786688 239.062153 
L 428.527376 236.208535 
L 429.522054 234.685824 
L 430.268063 233.614658 
L 431.345632 231.849769 
L 431.387077 238.368429 
L 431.469967 238.206052 
L 431.718636 237.819983 
L 431.718636 237.819983 
" clip-path="url(#p124f2dc06c)" style="fill: none; stroke: #1f77b4; stroke-width: 3; stroke-linecap: square"/>
   </g>
   <g id="line2d_30">
    <path d="M 66.091364 289.691194 
L 66.257143 276.24454 
L 66.505813 272.670238 
L 67.086042 266.125079 
L 67.334712 262.620565 
L 67.459047 261.466978 
L 67.873496 256.598125 
L 68.246501 253.976211 
L 68.41228 252.488317 
L 68.619505 249.701252 
L 69.033954 244.591915 
L 69.158289 243.33249 
L 69.448404 238.751418 
L 70.194413 229.482358 
L 70.235858 230.075636 
L 70.277303 229.797253 
L 71.106202 221.150279 
L 74.504687 181.808614 
L 74.629022 180.732364 
L 75.043471 176.925588 
L 75.78948 172.098793 
L 76.079595 170.366102 
L 76.701269 166.803354 
L 77.322943 162.359856 
L 78.027507 158.244502 
L 78.276176 156.685588 
L 78.359066 156.742743 
L 78.483401 156.105713 
L 78.524846 156.807294 
L 78.607736 156.365301 
L 79.768194 148.671177 
L 80.058309 146.719877 
L 80.431313 144.404384 
L 81.674662 138.440178 
L 82.172001 135.786835 
L 82.627895 133.141195 
L 82.66934 133.186488 
L 83.871243 126.147419 
L 84.617252 122.71331 
L 84.948812 120.390576 
L 85.197482 118.375804 
L 86.233605 113.736498 
L 86.772389 111.730199 
L 86.813834 111.919075 
L 86.855279 111.788895 
L 88.844636 103.848741 
L 88.886081 103.918375 
L 89.466311 101.959218 
L 89.63209 101.340983 
L 89.88076 99.923956 
L 90.419544 98.107919 
L 92.160232 91.692169 
L 92.491791 90.373894 
L 93.65225 86.051332 
L 95.061378 80.853411 
L 95.102823 81.144581 
L 95.144268 80.993142 
L 96.180391 77.719253 
L 96.511951 75.458296 
L 97.133625 73.63394 
L 97.17507 74.060835 
L 97.216515 73.934507 
L 97.465184 73.286847 
L 99.081537 67.982626 
L 99.205872 67.497651 
L 99.247317 68.327716 
L 99.330207 68.059039 
L 100.11766 65.019935 
L 100.36633 63.97311 
L 100.407775 64.030882 
L 101.070894 61.706145 
L 103.018806 55.204739 
L 103.060251 55.417493 
L 103.101696 55.283462 
L 103.350366 54.543521 
L 103.391811 55.182092 
L 103.474701 54.934367 
L 103.599036 54.387306 
L 103.80626 53.471739 
L 104.800939 50.608877 
L 105.215388 49.351917 
L 105.256833 49.393975 
L 105.298278 49.303851 
L 105.878507 47.759727 
L 106.873186 44.052934 
L 107.49486 42.357987 
L 107.536305 42.377707 
L 107.82642 41.22982 
L 108.033644 40.310247 
L 108.199424 39.46 
L 108.240869 92.248011 
L 108.323759 91.813259 
L 108.530984 90.975029 
L 108.986878 88.915272 
L 109.442772 87.273321 
L 110.064446 84.713183 
L 111.639354 78.134748 
L 111.763689 77.846197 
L 112.882702 74.183927 
L 112.924147 126.692785 
L 113.007037 126.298858 
L 113.918826 123.655529 
L 113.960271 123.690038 
L 114.333275 122.179036 
L 114.70628 120.725652 
L 115.659514 117.991891 
L 115.825293 117.236698 
L 115.866738 117.248407 
L 116.529857 114.831081 
L 117.565981 111.309467 
L 117.607426 140.355428 
L 117.690316 139.895873 
L 117.856095 139.1832 
L 117.89754 139.215706 
L 118.560659 136.75925 
L 120.301347 131.074506 
L 120.342792 131.279865 
L 120.384237 131.148145 
L 121.83481 126.607437 
L 122.249259 125.29671 
L 122.290704 150.189574 
L 122.373594 149.811361 
L 123.161048 146.639305 
L 124.735956 141.706364 
L 125.067515 140.309673 
L 125.399075 138.717791 
L 125.854969 135.886511 
L 126.932538 131.593527 
L 126.973983 151.825825 
L 127.056872 151.493213 
L 128.258776 147.488165 
L 128.341666 147.246448 
L 128.383111 147.663175 
L 128.466 147.411752 
L 128.79756 146.256932 
L 130.123798 141.750579 
L 130.165243 141.804037 
L 131.615816 137.065517 
L 131.657261 154.328807 
L 131.740151 153.80655 
L 132.278935 151.392151 
L 132.900609 148.987304 
L 133.605173 145.956057 
L 133.978178 144.321962 
L 134.765631 140.857196 
L 136.299094 136.510908 
L 136.340539 151.824746 
L 136.423429 151.487359 
L 136.796434 150.262597 
L 137.127993 149.339943 
L 138.661456 144.958531 
L 139.656135 141.634419 
L 140.194919 139.892176 
L 140.609368 137.584693 
L 140.982373 136.288448 
L 141.023818 152.671142 
L 141.106708 152.379047 
L 141.313932 151.487667 
L 141.728382 149.845562 
L 142.764505 145.761481 
L 143.261844 144.044196 
L 143.593404 142.887373 
L 143.883519 142.096439 
L 144.712417 139.792808 
L 145.665651 136.833044 
L 145.707096 153.140095 
L 145.789986 152.839681 
L 146.121545 151.78238 
L 149.105581 143.007693 
L 149.312806 141.760592 
L 150.348929 137.811929 
L 150.390374 155.83796 
L 150.473264 155.476848 
L 150.846269 153.847992 
L 151.053493 153.019929 
L 151.219273 152.007767 
L 151.923837 149.171866 
L 155.032208 139.710849 
L 155.073653 156.17735 
L 155.156543 155.724265 
L 155.612437 153.645405 
L 156.73145 149.390012 
L 157.436014 147.265397 
L 158.264913 144.099503 
L 158.679363 142.402861 
L 159.674041 139.019436 
L 159.715486 139.109714 
L 159.756931 154.590089 
L 159.839821 153.988338 
L 160.378605 152.011619 
L 161.456174 148.660855 
L 161.787733 147.632363 
L 162.036403 146.869467 
L 162.658077 144.868715 
L 164.398765 139.28457 
L 164.440209 157.898641 
L 164.523099 157.590371 
L 164.564544 157.476676 
L 164.771769 156.179969 
L 165.144774 155.002041 
L 166.719681 149.583509 
L 167.63147 146.1722 
L 168.087364 144.31426 
L 168.750483 142.042519 
L 168.957708 141.272228 
L 169.082043 140.637817 
L 169.123488 156.303062 
L 169.206378 155.872777 
L 169.703717 154.271189 
L 170.491171 152.228687 
L 170.781286 150.436067 
L 171.112845 149.439465 
L 171.568739 148.130895 
L 172.066079 146.898584 
L 172.646308 145.150641 
L 172.687753 145.4452 
L 172.729198 145.299769 
L 173.765321 141.710061 
L 173.806766 159.560466 
L 173.889656 159.281313 
L 176.293463 150.463489 
L 178.324265 142.76767 
L 178.4486 142.26806 
L 178.490045 157.879692 
L 178.572935 157.5497 
L 180.769516 151.418803 
L 181.142521 150.292639 
L 181.63986 148.885164 
L 183.131878 144.536874 
L 183.173323 159.966409 
L 183.256213 159.614695 
L 184.333781 156.403199 
L 184.9969 154.022077 
L 185.369905 152.427884 
L 186.406028 149.173406 
L 186.944813 145.865163 
L 187.690822 143.586181 
L 187.815156 143.230153 
L 187.856601 158.991838 
L 187.939491 158.634731 
L 191.172197 148.255682 
L 191.213642 149.065412 
L 191.296532 148.807056 
L 192.498435 143.852547 
L 192.53988 158.629339 
L 192.62277 157.462811 
L 192.871439 156.010505 
L 195.150911 147.781645 
L 195.855475 145.636848 
L 197.181713 141.780774 
L 197.223158 159.103222 
L 197.306048 158.534901 
L 198.880956 153.945048 
L 199.7513 151.390457 
L 201.823547 144.831741 
L 201.864992 144.680918 
L 201.906436 160.326443 
L 201.989326 159.876902 
L 202.528111 157.24143 
L 202.735335 156.067507 
L 203.730014 152.727219 
L 205.222032 148.394489 
L 206.54827 144.761336 
L 206.589715 161.759646 
L 206.672605 161.38359 
L 210.195425 149.777622 
L 211.231548 145.767336 
L 211.272993 160.620386 
L 211.355883 160.315505 
L 211.853222 158.626258 
L 212.765011 155.580683 
L 213.26235 153.936729 
L 213.84258 152.536803 
L 214.505699 150.692111 
L 215.666157 147.354134 
L 215.707602 147.406052 
L 215.914827 146.775492 
L 215.956272 163.879485 
L 216.039161 163.648244 
L 217.44829 158.937763 
L 218.111409 156.884323 
L 218.360078 155.925773 
L 218.898862 152.708732 
L 219.064642 152.105902 
L 219.271867 150.949542 
L 219.644871 148.991772 
L 220.598105 145.598642 
L 220.63955 159.631487 
L 220.72244 159.235558 
L 221.136889 157.304747 
L 221.509894 156.075056 
L 222.711797 152.664055 
L 224.908379 145.907683 
L 225.281383 144.412086 
L 225.322828 161.095809 
L 225.405718 160.49375 
L 226.856291 155.549255 
L 227.063516 154.511982 
L 227.312186 153.562522 
L 227.892415 151.318357 
L 229.964662 143.857477 
L 230.006107 159.654442 
L 230.088997 159.325682 
L 230.462001 157.833783 
L 231.37379 155.336347 
L 232.202689 153.289223 
L 234.274936 147.549942 
L 234.606495 145.96376 
L 234.64794 145.608194 
L 234.689385 162.624066 
L 234.772275 161.949753 
L 235.06239 160.866571 
L 235.476839 159.62779 
L 237.590531 152.128857 
L 237.922091 151.062313 
L 238.295095 149.676714 
L 239.331219 146.112734 
L 239.372663 160.723605 
L 239.455553 160.334762 
L 239.745668 159.428747 
L 241.071906 155.755539 
L 241.900805 153.205569 
L 242.356699 152.002684 
L 242.812594 150.719842 
L 243.019818 150.143048 
L 243.227043 149.334397 
L 244.014497 146.891652 
L 244.055942 162.924171 
L 244.138832 162.57754 
L 244.470391 161.549819 
L 245.05062 159.717451 
L 247.951766 149.6439 
L 248.614885 147.413292 
L 248.697775 147.12012 
L 248.73922 163.266026 
L 248.82211 162.674135 
L 249.07078 161.843916 
L 251.143027 156.05965 
L 251.433141 154.993105 
L 251.640366 153.433421 
L 251.764701 152.927494 
L 252.013371 151.82829 
L 253.381054 147.793508 
L 253.422499 162.122453 
L 253.505388 161.801241 
L 254.044173 159.916032 
L 254.665847 157.741348 
L 256.323645 152.459774 
L 256.530869 151.545747 
L 257.359768 147.96975 
L 258.064332 145.548111 
L 258.105777 163.697543 
L 258.188667 163.324568 
L 259.141901 160.56092 
L 259.929354 158.287022 
L 261.711487 152.870339 
L 261.752932 153.050587 
L 261.794377 152.905772 
L 262.540386 150.594438 
L 262.74761 149.654376 
L 262.789055 164.116427 
L 262.871945 163.674588 
L 266.809215 150.159686 
L 267.016439 149.304664 
L 267.223664 148.405427 
L 267.430889 147.669953 
L 267.472334 164.862992 
L 267.555224 164.138611 
L 267.803893 162.457221 
L 268.094008 161.655965 
L 268.591347 159.857798 
L 269.254466 156.99771 
L 269.461691 155.860915 
L 272.114167 146.378946 
L 272.155612 160.216754 
L 272.238502 159.765518 
L 272.735841 157.951329 
L 273.854855 154.016993 
L 274.310749 152.991583 
L 274.352194 153.311869 
L 274.393639 153.154268 
L 275.678432 149.503091 
L 276.217216 148.171412 
L 276.797446 146.752383 
L 276.83889 162.482486 
L 276.92178 162.083322 
L 277.999349 158.761521 
L 278.538133 156.98292 
L 279.615702 154.170743 
L 281.439279 148.156161 
L 281.480724 148.035533 
L 281.522169 161.349081 
L 281.605059 161.051287 
L 282.226733 158.916195 
L 283.470081 153.799309 
L 283.677306 152.707499 
L 284.671984 149.522194 
L 285.127879 147.209936 
L 285.169324 147.248758 
L 286.164002 144.532252 
L 286.205447 160.319356 
L 286.288337 160.033887 
L 286.702787 158.827458 
L 286.992901 157.915896 
L 287.407351 156.591458 
L 287.614575 155.899583 
L 287.90469 154.935488 
L 288.111915 154.094485 
L 288.402029 152.512616 
L 289.065148 150.128104 
L 289.479598 148.557944 
L 289.811157 147.073132 
L 289.976937 145.01091 
L 290.184162 143.751023 
L 290.640056 141.341708 
L 290.847281 139.93485 
L 290.888726 155.238828 
L 290.971615 154.768643 
L 291.468955 152.921794 
L 292.587968 148.84249 
L 293.582647 144.328433 
L 295.530559 137.228049 
L 295.572004 153.625069 
L 295.654894 153.036567 
L 296.732462 148.980217 
L 296.856797 148.074356 
L 297.644251 143.517009 
L 297.892921 142.507004 
L 298.100145 141.530121 
L 299.633608 136.943349 
L 300.213837 135.373035 
L 300.255282 150.218537 
L 300.338172 149.86066 
L 301.125626 147.717403 
L 301.540076 146.493412 
L 302.659089 142.639956 
L 303.322208 140.703446 
L 304.192552 137.762476 
L 304.524111 136.695162 
L 304.897116 135.414323 
L 304.938561 152.214359 
L 305.021451 151.83322 
L 306.886473 145.288061 
L 309.373169 138.66803 
L 309.580394 138.088617 
L 309.621839 156.253763 
L 309.704729 155.988167 
L 311.694086 150.405871 
L 312.067091 149.402491 
L 312.108536 149.456565 
L 312.149981 149.351652 
L 312.771655 147.674421 
L 313.061769 146.495414 
L 313.724888 142.592352 
L 314.263673 140.734103 
L 314.305117 154.796527 
L 314.388007 154.430331 
L 314.843902 152.812721 
L 315.092571 151.937979 
L 315.548466 150.320831 
L 315.880025 149.197439 
L 318.946951 140.563407 
L 318.988396 155.581453 
L 319.071286 155.337271 
L 320.148854 152.578399 
L 320.273189 152.216978 
L 320.397524 127.906147 
L 320.563304 124.465567 
L 320.977753 122.798196 
L 321.557982 120.725344 
L 321.723762 117.744012 
L 321.972432 114.944622 
L 322.138211 111.889649 
L 322.594106 110.698626 
L 323.091445 107.28208 
L 323.630229 101.287833 
L 323.671674 118.537565 
L 323.754564 118.046582 
L 324.376238 115.543908 
L 324.624908 114.098381 
L 324.915022 112.549018 
L 325.080802 111.978387 
L 326.32415 107.460479 
L 327.774723 103.627667 
L 328.064838 102.780039 
L 328.313508 101.866321 
L 328.354953 122.10817 
L 328.437842 121.775096 
L 329.722636 117.551901 
L 330.137085 116.170616 
L 330.592979 114.686883 
L 331.131764 112.876546 
L 332.996786 107.221535 
L 333.038231 125.039125 
L 333.121121 124.699735 
L 333.86713 122.298894 
L 334.03291 120.929933 
L 334.198689 120.108804 
L 336.312381 114.541914 
L 336.685386 113.437317 
L 337.14128 112.419455 
L 337.680064 110.992877 
L 337.721509 129.141231 
L 337.804399 128.787513 
L 338.218849 127.401144 
L 339.130637 124.915263 
L 339.627977 123.394401 
L 340.000981 122.301359 
L 340.332541 121.288118 
L 340.373986 121.306605 
L 340.82988 119.973541 
L 342.156118 116.375513 
L 342.363343 115.785163 
L 342.404788 130.626813 
L 342.487678 130.266009 
L 342.902127 129.268945 
L 343.772471 127.21612 
L 343.855361 127.967616 
L 343.938251 127.746388 
L 344.60137 126.191634 
L 346.176277 122.488385 
L 347.046621 120.32618 
L 347.088066 134.180471 
L 347.170956 133.888069 
L 347.502516 132.912881 
L 349.035978 128.821868 
L 349.367538 127.578619 
L 350.403661 124.804187 
L 351.356895 121.937627 
L 351.7299 120.742291 
L 351.771344 136.44759 
L 351.854234 136.17537 
L 352.144349 135.164594 
L 352.931803 132.552539 
L 353.180472 131.443783 
L 353.346252 130.957422 
L 353.512032 130.341189 
L 354.133706 128.920465 
L 354.175151 129.017522 
L 354.216596 128.899051 
L 355.459944 125.889526 
L 355.957284 124.783389 
L 355.998728 124.81189 
L 356.413178 123.797879 
L 356.454623 137.897893 
L 356.537513 137.674355 
L 357.822306 134.548824 
L 358.029531 133.460096 
L 358.153865 133.069712 
L 358.734095 131.571959 
L 359.107099 130.197607 
L 359.438659 128.830495 
L 359.853108 127.435961 
L 360.889232 124.37837 
L 361.096456 123.707755 
L 361.137901 177.822977 
L 361.220791 177.584187 
L 361.676685 176.116937 
L 362.795699 173.030229 
L 363.790377 170.09157 
L 364.246272 169.235161 
L 364.329162 169.130556 
L 365.779735 165.684122 
L 365.82118 182.473991 
L 365.904069 182.118117 
L 367.396087 178.676304 
L 367.934872 177.404093 
L 368.722325 175.225249 
L 369.426889 173.339886 
L 369.841339 172.395047 
L 370.090009 171.502897 
L 370.463013 170.424644 
L 370.504458 185.383224 
L 370.587348 184.948934 
L 371.043242 183.483226 
L 371.209022 182.970058 
L 371.664916 180.744535 
L 372.493815 178.020479 
L 372.991154 176.657681 
L 373.239824 175.929756 
L 373.571384 174.995856 
L 375.146291 171.242076 
L 375.187736 185.701816 
L 375.270626 185.502465 
L 375.519296 184.736642 
L 376.22386 183.069425 
L 376.679754 182.00627 
L 376.928424 181.276343 
L 377.301428 180.265876 
L 378.130327 178.242323 
L 378.917781 176.492223 
L 379.249341 175.656766 
L 379.82957 173.971216 
L 379.871015 187.226221 
L 379.953905 186.976031 
L 380.617024 185.361964 
L 380.824248 184.726783 
L 381.072918 184.058479 
L 381.404478 183.00734 
L 382.772161 179.374496 
L 383.601059 177.269292 
L 383.849729 175.636892 
L 384.512848 172.818707 
L 384.554293 184.070187 
L 384.637183 183.729873 
L 385.424637 180.841745 
L 386.004866 179.170215 
L 386.62654 177.61053 
L 386.9581 176.813126 
L 387.165324 176.322913 
L 389.196127 171.301851 
L 389.237571 184.71908 
L 389.320461 184.461649 
L 389.693466 182.771631 
L 389.942135 181.810771 
L 390.771034 179.619602 
L 391.268374 178.287154 
L 391.517043 177.591273 
L 392.263052 175.180264 
L 392.967616 173.227269 
L 393.879405 170.522779 
L 393.92085 183.480915 
L 394.00374 183.272474 
L 394.625414 181.449196 
L 397.153555 174.253604 
L 398.065344 172.066133 
L 398.562683 170.886818 
L 398.604128 185.20806 
L 398.687018 185.005166 
L 399.971811 181.673197 
L 400.8836 179.116294 
L 401.04938 178.718824 
L 401.090825 178.946676 
L 401.173715 178.793235 
L 402.375618 175.844408 
L 403.245962 173.358835 
L 403.287407 185.275384 
L 403.370296 185.105457 
L 403.909081 183.590604 
L 407.058896 174.674799 
L 407.473346 173.589614 
L 407.92924 171.990183 
L 407.970685 184.041532 
L 408.053575 183.680882 
L 408.716694 181.682286 
L 408.799584 181.483551 
L 409.006808 180.204407 
L 409.131143 179.47602 
L 409.379813 178.578632 
L 409.711372 177.457705 
L 409.918597 176.821907 
L 410.208712 175.354195 
L 410.830386 173.425234 
L 412.612518 167.574723 
L 412.653963 181.73559 
L 412.736853 181.510666 
L 413.317082 179.872103 
L 415.637999 173.151164 
L 416.218228 171.732443 
L 416.466898 171.035638 
L 417.295797 169.190022 
L 417.337242 181.181906 
L 417.420132 181.002736 
L 418.124696 179.229065 
L 418.539145 178.219522 
L 420.528502 173.516744 
L 421.481736 170.318498 
L 421.979075 168.998528 
L 422.02052 183.765152 
L 422.10341 183.532678 
L 422.642194 181.826639 
L 424.009877 178.134636 
L 425.211781 174.896181 
L 426.662354 170.797002 
L 426.703798 183.758219 
L 426.786688 183.586753 
L 427.366918 182.307146 
L 428.154371 180.311785 
L 428.361596 179.716505 
L 428.651711 177.626861 
L 428.858935 176.849637 
L 429.14905 176.031435 
L 430.558178 172.448505 
L 430.972627 171.301851 
L 431.345632 170.125155 
L 431.387077 184.229329 
L 431.469967 183.931381 
L 431.718636 183.237195 
L 431.718636 183.237195 
" clip-path="url(#p124f2dc06c)" style="fill: none; stroke: #ff7f0e; stroke-width: 3; stroke-linecap: square"/>
   </g>
   <g id="patch_3">
    <path d="M 47.81 303.64 
L 47.81 26.88 
" style="fill: none; stroke: #000000; stroke-width: 0.8; stroke-linejoin: miter; stroke-linecap: square"/>
   </g>
   <g id="patch_4">
    <path d="M 450 303.64 
L 450 26.88 
" style="fill: none; stroke: #000000; stroke-width: 0.8; stroke-linejoin: miter; stroke-linecap: square"/>
   </g>
   <g id="patch_5">
    <path d="M 47.81 303.64 
L 450 303.64 
" style="fill: none; stroke: #000000; stroke-width: 0.8; stroke-linejoin: miter; stroke-linecap: square"/>
   </g>
   <g id="patch_6">
    <path d="M 47.81 26.88 
L 450 26.88 
" style="fill: none; stroke: #000000; stroke-width: 0.8; stroke-linejoin: miter; stroke-linecap: square"/>
   </g>
   <g id="text_18">
    <!-- Comparison of 2 Measurements -->
    <g transform="translate(153.345625 20.88) scale(0.12 -0.12)">
     <defs>
      <path id="DejaVuSans-43" d="M 4122 4306 
L 4122 3641 
Q 3803 3938 3442 4084 
Q 3081 4231 2675 4231 
Q 1875 4231 1450 3742 
Q 1025 3253 1025 2328 
Q 1025 1406 1450 917 
Q 1875 428 2675 428 
Q 3081 428 3442 575 
Q 3803 722 4122 1019 
L 4122 359 
Q 3791 134 3420 21 
Q 3050 -91 2638 -91 
Q 1578 -91 968 557 
Q 359 1206 359 2328 
Q 359 3453 968 4101 
Q 1578 4750 2638 4750 
Q 3056 4750 3426 4639 
Q 3797 4528 4122 4306 
z
" transform="scale(0.015625)"/>
      <path id="DejaVuSans-70" d="M 1159 525 
L 1159 -1331 
L 581 -1331 
L 581 3500 
L 1159 3500 
L 1159 2969 
Q 1341 3281 1617 3432 
Q 1894 3584 2278 3584 
Q 2916 3584 3314 3078 
Q 3713 2572 3713 1747 
Q 3713 922 3314 415 
Q 2916 -91 2278 -91 
Q 1894 -91 1617 61 
Q 1341 213 1159 525 
z
M 3116 1747 
Q 3116 2381 2855 2742 
Q 2594 3103 2138 3103 
Q 1681 3103 1420 2742 
Q 1159 2381 1159 1747 
Q 1159 1113 1420 752 
Q 1681 391 2138 391 
Q 2594 391 2855 752 
Q 3116 1113 3116 1747 
z
" transform="scale(0.015625)"/>
      <path id="DejaVuSans-72" d="M 2631 2963 
Q 2534 3019 2420 3045 
Q 2306 3072 2169 3072 
Q 1681 3072 1420 2755 
Q 1159 2438 1159 1844 
L 1159 0 
L 581 0 
L 581 3500 
L 1159 3500 
L 1159 2956 
Q 1341 3275 1631 3429 
Q 1922 3584 2338 3584 
Q 2397 3584 2469 3576 
Q 2541 3569 2628 3553 
L 2631 2963 
z
" transform="scale(0.015625)"/>
      <path id="DejaVuSans-69" d="M 603 3500 
L 1178 3500 
L 1178 0 
L 603 0 
L 603 3500 
z
M 603 4863 
L 1178 4863 
L 1178 4134 
L 603 4134 
L 603 4863 
z
" transform="scale(0.015625)"/>
      <path id="DejaVuSans-4d" d="M 628 4666 
L 1569 4666 
L 2759 1491 
L 3956 4666 
L 4897 4666 
L 4897 0 
L 4281 0 
L 4281 4097 
L 3078 897 
L 2444 897 
L 1241 4097 
L 1241 0 
L 628 0 
L 628 4666 
z
" transform="scale(0.015625)"/>
     </defs>
     <use xlink:href="#DejaVuSans-43"/>
     <use xlink:href="#DejaVuSans-6f" transform="translate(69.824219 0)"/>
     <use xlink:href="#DejaVuSans-6d" transform="translate(131.005859 0)"/>
     <use xlink:href="#DejaVuSans-70" transform="translate(228.417969 0)"/>
     <use xlink:href="#DejaVuSans-61" transform="translate(291.894531 0)"/>
     <use xlink:href="#DejaVuSans-72" transform="translate(353.173828 0)"/>
     <use xlink:href="#DejaVuSans-69" transform="translate(394.287109 0)"/>
     <use xlink:href="#DejaVuSans-73" transform="translate(422.070312 0)"/>
     <use xlink:href="#DejaVuSans-6f" transform="translate(474.169922 0)"/>
     <use xlink:href="#DejaVuSans-6e" transform="translate(535.351562 0)"/>
     <use xlink:href="#DejaVuSans-20" transform="translate(598.730469 0)"/>
     <use xlink:href="#DejaVuSans-6f" transform="translate(630.517578 0)"/>
     <use xlink:href="#DejaVuSans-66" transform="translate(691.699219 0)"/>
     <use xlink:href="#DejaVuSans-20" transform="translate(726.904297 0)"/>
     <use xlink:href="#DejaVuSans-32" transform="translate(758.691406 0)"/>
     <use xlink:href="#DejaVuSans-20" transform="translate(822.314453 0)"/>
     <use xlink:href="#DejaVuSans-4d" transform="translate(854.101562 0)"/>
     <use xlink:href="#DejaVuSans-65" transform="translate(940.380859 0)"/>
     <use xlink:href="#DejaVuSans-61" transform="translate(1001.904297 0)"/>
     <use xlink:href="#DejaVuSans-73" transform="translate(1063.183594 0)"/>
     <use xlink:href="#DejaVuSans-75" transform="translate(1115.283203 0)"/>
     <use xlink:href="#DejaVuSans-72" transform="translate(1178.662109 0)"/>
     <use xlink:href="#DejaVuSans-65" transform="translate(1217.525391 0)"/>
     <use xlink:href="#DejaVuSans-6d" transform="translate(1279.048828 0)"/>
     <use xlink:href="#DejaVuSans-65" transform="translate(1376.460938 0)"/>
     <use xlink:href="#DejaVuSans-6e" transform="translate(1437.984375 0)"/>
     <use xlink:href="#DejaVuSans-74" transform="translate(1501.363281 0)"/>
     <use xlink:href="#DejaVuSans-73" transform="translate(1540.572266 0)"/>
    </g>
   </g>
   <g id="legend_1">
    <g id="patch_7">
     <path d="M 314.574375 71.7075 
L 441.6 71.7075 
Q 444 71.7075 444 69.3075 
L 444 35.28 
Q 444 32.88 441.6 32.88 
L 314.574375 32.88 
Q 312.174375 32.88 312.174375 35.28 
L 312.174375 69.3075 
Q 312.174375 71.7075 314.574375 71.7075 
z
" style="fill: #ffffff; opacity: 0.8; stroke: #cccccc; stroke-linejoin: miter"/>
    </g>
    <g id="line2d_31">
     <path d="M 316.974375 42.598125 
L 328.974375 42.598125 
L 340.974375 42.598125 
" style="fill: none; stroke: #1f77b4; stroke-width: 3; stroke-linecap: square"/>
    </g>
    <g id="text_19">
     <!-- Euler Tour Tree -->
     <g transform="translate(350.574375 46.798125) scale(0.12 -0.12)">
      <defs>
       <path id="DejaVuSans-45" d="M 628 4666 
L 3578 4666 
L 3578 4134 
L 1259 4134 
L 1259 2753 
L 3481 2753 
L 3481 2222 
L 1259 2222 
L 1259 531 
L 3634 531 
L 3634 0 
L 628 0 
L 628 4666 
z
" transform="scale(0.015625)"/>
       <path id="DejaVuSans-6c" d="M 603 4863 
L 1178 4863 
L 1178 0 
L 603 0 
L 603 4863 
z
" transform="scale(0.015625)"/>
       <path id="DejaVuSans-54" d="M -19 4666 
L 3928 4666 
L 3928 4134 
L 2272 4134 
L 2272 0 
L 1638 0 
L 1638 4134 
L -19 4134 
L -19 4666 
z
" transform="scale(0.015625)"/>
      </defs>
      <use xlink:href="#DejaVuSans-45"/>
      <use xlink:href="#DejaVuSans-75" transform="translate(63.183594 0)"/>
      <use xlink:href="#DejaVuSans-6c" transform="translate(126.5625 0)"/>
      <use xlink:href="#DejaVuSans-65" transform="translate(154.345703 0)"/>
      <use xlink:href="#DejaVuSans-72" transform="translate(215.869141 0)"/>
      <use xlink:href="#DejaVuSans-20" transform="translate(256.982422 0)"/>
      <use xlink:href="#DejaVuSans-54" transform="translate(288.769531 0)"/>
      <use xlink:href="#DejaVuSans-6f" transform="translate(332.853516 0)"/>
      <use xlink:href="#DejaVuSans-75" transform="translate(394.035156 0)"/>
      <use xlink:href="#DejaVuSans-72" transform="translate(457.414062 0)"/>
      <use xlink:href="#DejaVuSans-20" transform="translate(498.527344 0)"/>
      <use xlink:href="#DejaVuSans-54" transform="translate(530.314453 0)"/>
      <use xlink:href="#DejaVuSans-72" transform="translate(576.648438 0)"/>
      <use xlink:href="#DejaVuSans-65" transform="translate(615.511719 0)"/>
      <use xlink:href="#DejaVuSans-65" transform="translate(677.035156 0)"/>
     </g>
    </g>
    <g id="line2d_32">
     <path d="M 316.974375 60.211875 
L 328.974375 60.211875 
L 340.974375 60.211875 
" style="fill: none; stroke: #ff7f0e; stroke-width: 3; stroke-linecap: square"/>
    </g>
    <g id="text_20">
     <!-- Link-Cut Tree -->
     <g transform="translate(350.574375 64.411875) scale(0.12 -0.12)">
      <defs>
       <path id="DejaVuSans-4c" d="M 628 4666 
L 1259 4666 
L 1259 531 
L 3531 531 
L 3531 0 
L 628 0 
L 628 4666 
z
" transform="scale(0.015625)"/>
       <path id="DejaVuSans-6b" d="M 581 4863 
L 1159 4863 
L 1159 1991 
L 2875 3500 
L 3609 3500 
L 1753 1863 
L 3688 0 
L 2938 0 
L 1159 1709 
L 1159 0 
L 581 0 
L 581 4863 
z
" transform="scale(0.015625)"/>
       <path id="DejaVuSans-2d" d="M 313 2009 
L 1997 2009 
L 1997 1497 
L 313 1497 
L 313 2009 
z
" transform="scale(0.015625)"/>
      </defs>
      <use xlink:href="#DejaVuSans-4c"/>
      <use xlink:href="#DejaVuSans-69" transform="translate(55.712891 0)"/>
      <use xlink:href="#DejaVuSans-6e" transform="translate(83.496094 0)"/>
      <use xlink:href="#DejaVuSans-6b" transform="translate(146.875 0)"/>
      <use xlink:href="#DejaVuSans-2d" transform="translate(204.785156 0)"/>
      <use xlink:href="#DejaVuSans-43" transform="translate(240.869141 0)"/>
      <use xlink:href="#DejaVuSans-75" transform="translate(310.693359 0)"/>
      <use xlink:href="#DejaVuSans-74" transform="translate(374.072266 0)"/>
      <use xlink:href="#DejaVuSans-20" transform="translate(413.28125 0)"/>
      <use xlink:href="#DejaVuSans-54" transform="translate(445.068359 0)"/>
      <use xlink:href="#DejaVuSans-72" transform="translate(491.402344 0)"/>
      <use xlink:href="#DejaVuSans-65" transform="translate(530.265625 0)"/>
      <use xlink:href="#DejaVuSans-65" transform="translate(591.789062 0)"/>
     </g>
    </g>
   </g>
  </g>
 </g>
 <defs>
  <clipPath id="p124f2dc06c">
   <rect x="47.81" y="26.88" width="402.19" height="276.76"/>
  </clipPath>
 </defs>
</svg>
