<?xml version="1.0" encoding="utf-8" standalone="no"?>
<!DOCTYPE svg PUBLIC "-//W3C//DTD SVG 1.1//EN"
  "http://www.w3.org/Graphics/SVG/1.1/DTD/svg11.dtd">
<svg xmlns:xlink="http://www.w3.org/1999/xlink" width="460.8pt" height="345.6pt" viewBox="0 0 460.8 345.6" xmlns="http://www.w3.org/2000/svg" version="1.1">
 <metadata>
  <rdf:RDF xmlns:dc="http://purl.org/dc/elements/1.1/" xmlns:cc="http://creativecommons.org/ns#" xmlns:rdf="http://www.w3.org/1999/02/22-rdf-syntax-ns#">
   <cc:Work>
    <dc:type rdf:resource="http://purl.org/dc/dcmitype/StillImage"/>
    <dc:date>2025-09-01T01:15:15.817583</dc:date>
    <dc:format>image/svg+xml</dc:format>
    <dc:creator>
     <cc:Agent>
      <dc:title>Matplotlib v3.10.5, https://matplotlib.org/</dc:title>
     </cc:Agent>
    </dc:creator>
   </cc:Work>
  </rdf:RDF>
 </metadata>
 <defs>
  <style type="text/css">*{stroke-linejoin: round; stroke-linecap: butt}</style>
 </defs>
 <g id="figure_1">
  <g id="patch_1">
   <path d="M 0 345.6 
L 460.8 345.6 
L 460.8 0 
L 0 0 
z
" style="fill: #ffffff"/>
  </g>
  <g id="axes_1">
   <g id="patch_2">
    <path d="M 69.77 303.64 
L 450 303.64 
L 450 26.88 
L 69.77 26.88 
z
" style="fill: #ffffff"/>
   </g>
   <g id="matplotlib.axis_1">
    <g id="xtick_1">
     <g id="line2d_1">
      <path d="M 87.053182 303.64 
L 87.053182 26.88 
" clip-path="url(#pfb25460fa8)" style="fill: none; stroke: #b0b0b0; stroke-width: 0.8; stroke-linecap: square"/>
     </g>
     <g id="line2d_2">
      <defs>
       <path id="m6a3f6c01eb" d="M 0 0 
L 0 3.5 
" style="stroke: #000000; stroke-width: 0.8"/>
      </defs>
      <g>
       <use xlink:href="#m6a3f6c01eb" x="87.053182" y="303.64" style="stroke: #000000; stroke-width: 0.8"/>
      </g>
     </g>
     <g id="text_1">
      <!-- 0.0 -->
      <g transform="translate(79.101619 318.238437) scale(0.1 -0.1)">
       <defs>
        <path id="DejaVuSans-30" d="M 2034 4250 
Q 1547 4250 1301 3770 
Q 1056 3291 1056 2328 
Q 1056 1369 1301 889 
Q 1547 409 2034 409 
Q 2525 409 2770 889 
Q 3016 1369 3016 2328 
Q 3016 3291 2770 3770 
Q 2525 4250 2034 4250 
z
M 2034 4750 
Q 2819 4750 3233 4129 
Q 3647 3509 3647 2328 
Q 3647 1150 3233 529 
Q 2819 -91 2034 -91 
Q 1250 -91 836 529 
Q 422 1150 422 2328 
Q 422 3509 836 4129 
Q 1250 4750 2034 4750 
z
" transform="scale(0.015625)"/>
        <path id="DejaVuSans-2e" d="M 684 794 
L 1344 794 
L 1344 0 
L 684 0 
L 684 794 
z
" transform="scale(0.015625)"/>
       </defs>
       <use xlink:href="#DejaVuSans-30"/>
       <use xlink:href="#DejaVuSans-2e" transform="translate(63.623047 0)"/>
       <use xlink:href="#DejaVuSans-30" transform="translate(95.410156 0)"/>
      </g>
     </g>
    </g>
    <g id="xtick_2">
     <g id="line2d_3">
      <path d="M 133.229926 303.64 
L 133.229926 26.88 
" clip-path="url(#pfb25460fa8)" style="fill: none; stroke: #b0b0b0; stroke-width: 0.8; stroke-linecap: square"/>
     </g>
     <g id="line2d_4">
      <g>
       <use xlink:href="#m6a3f6c01eb" x="133.229926" y="303.64" style="stroke: #000000; stroke-width: 0.8"/>
      </g>
     </g>
     <g id="text_2">
      <!-- 0.2 -->
      <g transform="translate(125.278363 318.238437) scale(0.1 -0.1)">
       <defs>
        <path id="DejaVuSans-32" d="M 1228 531 
L 3431 531 
L 3431 0 
L 469 0 
L 469 531 
Q 828 903 1448 1529 
Q 2069 2156 2228 2338 
Q 2531 2678 2651 2914 
Q 2772 3150 2772 3378 
Q 2772 3750 2511 3984 
Q 2250 4219 1831 4219 
Q 1534 4219 1204 4116 
Q 875 4013 500 3803 
L 500 4441 
Q 881 4594 1212 4672 
Q 1544 4750 1819 4750 
Q 2544 4750 2975 4387 
Q 3406 4025 3406 3419 
Q 3406 3131 3298 2873 
Q 3191 2616 2906 2266 
Q 2828 2175 2409 1742 
Q 1991 1309 1228 531 
z
" transform="scale(0.015625)"/>
       </defs>
       <use xlink:href="#DejaVuSans-30"/>
       <use xlink:href="#DejaVuSans-2e" transform="translate(63.623047 0)"/>
       <use xlink:href="#DejaVuSans-32" transform="translate(95.410156 0)"/>
      </g>
     </g>
    </g>
    <g id="xtick_3">
     <g id="line2d_5">
      <path d="M 179.40667 303.64 
L 179.40667 26.88 
" clip-path="url(#pfb25460fa8)" style="fill: none; stroke: #b0b0b0; stroke-width: 0.8; stroke-linecap: square"/>
     </g>
     <g id="line2d_6">
      <g>
       <use xlink:href="#m6a3f6c01eb" x="179.40667" y="303.64" style="stroke: #000000; stroke-width: 0.8"/>
      </g>
     </g>
     <g id="text_3">
      <!-- 0.4 -->
      <g transform="translate(171.455107 318.238437) scale(0.1 -0.1)">
       <defs>
        <path id="DejaVuSans-34" d="M 2419 4116 
L 825 1625 
L 2419 1625 
L 2419 4116 
z
M 2253 4666 
L 3047 4666 
L 3047 1625 
L 3713 1625 
L 3713 1100 
L 3047 1100 
L 3047 0 
L 2419 0 
L 2419 1100 
L 313 1100 
L 313 1709 
L 2253 4666 
z
" transform="scale(0.015625)"/>
       </defs>
       <use xlink:href="#DejaVuSans-30"/>
       <use xlink:href="#DejaVuSans-2e" transform="translate(63.623047 0)"/>
       <use xlink:href="#DejaVuSans-34" transform="translate(95.410156 0)"/>
      </g>
     </g>
    </g>
    <g id="xtick_4">
     <g id="line2d_7">
      <path d="M 225.583414 303.64 
L 225.583414 26.88 
" clip-path="url(#pfb25460fa8)" style="fill: none; stroke: #b0b0b0; stroke-width: 0.8; stroke-linecap: square"/>
     </g>
     <g id="line2d_8">
      <g>
       <use xlink:href="#m6a3f6c01eb" x="225.583414" y="303.64" style="stroke: #000000; stroke-width: 0.8"/>
      </g>
     </g>
     <g id="text_4">
      <!-- 0.6 -->
      <g transform="translate(217.631851 318.238437) scale(0.1 -0.1)">
       <defs>
        <path id="DejaVuSans-36" d="M 2113 2584 
Q 1688 2584 1439 2293 
Q 1191 2003 1191 1497 
Q 1191 994 1439 701 
Q 1688 409 2113 409 
Q 2538 409 2786 701 
Q 3034 994 3034 1497 
Q 3034 2003 2786 2293 
Q 2538 2584 2113 2584 
z
M 3366 4563 
L 3366 3988 
Q 3128 4100 2886 4159 
Q 2644 4219 2406 4219 
Q 1781 4219 1451 3797 
Q 1122 3375 1075 2522 
Q 1259 2794 1537 2939 
Q 1816 3084 2150 3084 
Q 2853 3084 3261 2657 
Q 3669 2231 3669 1497 
Q 3669 778 3244 343 
Q 2819 -91 2113 -91 
Q 1303 -91 875 529 
Q 447 1150 447 2328 
Q 447 3434 972 4092 
Q 1497 4750 2381 4750 
Q 2619 4750 2861 4703 
Q 3103 4656 3366 4563 
z
" transform="scale(0.015625)"/>
       </defs>
       <use xlink:href="#DejaVuSans-30"/>
       <use xlink:href="#DejaVuSans-2e" transform="translate(63.623047 0)"/>
       <use xlink:href="#DejaVuSans-36" transform="translate(95.410156 0)"/>
      </g>
     </g>
    </g>
    <g id="xtick_5">
     <g id="line2d_9">
      <path d="M 271.760158 303.64 
L 271.760158 26.88 
" clip-path="url(#pfb25460fa8)" style="fill: none; stroke: #b0b0b0; stroke-width: 0.8; stroke-linecap: square"/>
     </g>
     <g id="line2d_10">
      <g>
       <use xlink:href="#m6a3f6c01eb" x="271.760158" y="303.64" style="stroke: #000000; stroke-width: 0.8"/>
      </g>
     </g>
     <g id="text_5">
      <!-- 0.8 -->
      <g transform="translate(263.808595 318.238437) scale(0.1 -0.1)">
       <defs>
        <path id="DejaVuSans-38" d="M 2034 2216 
Q 1584 2216 1326 1975 
Q 1069 1734 1069 1313 
Q 1069 891 1326 650 
Q 1584 409 2034 409 
Q 2484 409 2743 651 
Q 3003 894 3003 1313 
Q 3003 1734 2745 1975 
Q 2488 2216 2034 2216 
z
M 1403 2484 
Q 997 2584 770 2862 
Q 544 3141 544 3541 
Q 544 4100 942 4425 
Q 1341 4750 2034 4750 
Q 2731 4750 3128 4425 
Q 3525 4100 3525 3541 
Q 3525 3141 3298 2862 
Q 3072 2584 2669 2484 
Q 3125 2378 3379 2068 
Q 3634 1759 3634 1313 
Q 3634 634 3220 271 
Q 2806 -91 2034 -91 
Q 1263 -91 848 271 
Q 434 634 434 1313 
Q 434 1759 690 2068 
Q 947 2378 1403 2484 
z
M 1172 3481 
Q 1172 3119 1398 2916 
Q 1625 2713 2034 2713 
Q 2441 2713 2670 2916 
Q 2900 3119 2900 3481 
Q 2900 3844 2670 4047 
Q 2441 4250 2034 4250 
Q 1625 4250 1398 4047 
Q 1172 3844 1172 3481 
z
" transform="scale(0.015625)"/>
       </defs>
       <use xlink:href="#DejaVuSans-30"/>
       <use xlink:href="#DejaVuSans-2e" transform="translate(63.623047 0)"/>
       <use xlink:href="#DejaVuSans-38" transform="translate(95.410156 0)"/>
      </g>
     </g>
    </g>
    <g id="xtick_6">
     <g id="line2d_11">
      <path d="M 317.936902 303.64 
L 317.936902 26.88 
" clip-path="url(#pfb25460fa8)" style="fill: none; stroke: #b0b0b0; stroke-width: 0.8; stroke-linecap: square"/>
     </g>
     <g id="line2d_12">
      <g>
       <use xlink:href="#m6a3f6c01eb" x="317.936902" y="303.64" style="stroke: #000000; stroke-width: 0.8"/>
      </g>
     </g>
     <g id="text_6">
      <!-- 1.0 -->
      <g transform="translate(309.985339 318.238437) scale(0.1 -0.1)">
       <defs>
        <path id="DejaVuSans-31" d="M 794 531 
L 1825 531 
L 1825 4091 
L 703 3866 
L 703 4441 
L 1819 4666 
L 2450 4666 
L 2450 531 
L 3481 531 
L 3481 0 
L 794 0 
L 794 531 
z
" transform="scale(0.015625)"/>
       </defs>
       <use xlink:href="#DejaVuSans-31"/>
       <use xlink:href="#DejaVuSans-2e" transform="translate(63.623047 0)"/>
       <use xlink:href="#DejaVuSans-30" transform="translate(95.410156 0)"/>
      </g>
     </g>
    </g>
    <g id="xtick_7">
     <g id="line2d_13">
      <path d="M 364.113646 303.64 
L 364.113646 26.88 
" clip-path="url(#pfb25460fa8)" style="fill: none; stroke: #b0b0b0; stroke-width: 0.8; stroke-linecap: square"/>
     </g>
     <g id="line2d_14">
      <g>
       <use xlink:href="#m6a3f6c01eb" x="364.113646" y="303.64" style="stroke: #000000; stroke-width: 0.8"/>
      </g>
     </g>
     <g id="text_7">
      <!-- 1.2 -->
      <g transform="translate(356.162083 318.238437) scale(0.1 -0.1)">
       <use xlink:href="#DejaVuSans-31"/>
       <use xlink:href="#DejaVuSans-2e" transform="translate(63.623047 0)"/>
       <use xlink:href="#DejaVuSans-32" transform="translate(95.410156 0)"/>
      </g>
     </g>
    </g>
    <g id="xtick_8">
     <g id="line2d_15">
      <path d="M 410.29039 303.64 
L 410.29039 26.88 
" clip-path="url(#pfb25460fa8)" style="fill: none; stroke: #b0b0b0; stroke-width: 0.8; stroke-linecap: square"/>
     </g>
     <g id="line2d_16">
      <g>
       <use xlink:href="#m6a3f6c01eb" x="410.29039" y="303.64" style="stroke: #000000; stroke-width: 0.8"/>
      </g>
     </g>
     <g id="text_8">
      <!-- 1.4 -->
      <g transform="translate(402.338827 318.238437) scale(0.1 -0.1)">
       <use xlink:href="#DejaVuSans-31"/>
       <use xlink:href="#DejaVuSans-2e" transform="translate(63.623047 0)"/>
       <use xlink:href="#DejaVuSans-34" transform="translate(95.410156 0)"/>
      </g>
     </g>
    </g>
    <g id="text_9">
     <!-- Amount of edges -->
     <g transform="translate(217.133437 331.916562) scale(0.1 -0.1)">
      <defs>
       <path id="DejaVuSans-41" d="M 2188 4044 
L 1331 1722 
L 3047 1722 
L 2188 4044 
z
M 1831 4666 
L 2547 4666 
L 4325 0 
L 3669 0 
L 3244 1197 
L 1141 1197 
L 716 0 
L 50 0 
L 1831 4666 
z
" transform="scale(0.015625)"/>
       <path id="DejaVuSans-6d" d="M 3328 2828 
Q 3544 3216 3844 3400 
Q 4144 3584 4550 3584 
Q 5097 3584 5394 3201 
Q 5691 2819 5691 2113 
L 5691 0 
L 5113 0 
L 5113 2094 
Q 5113 2597 4934 2840 
Q 4756 3084 4391 3084 
Q 3944 3084 3684 2787 
Q 3425 2491 3425 1978 
L 3425 0 
L 2847 0 
L 2847 2094 
Q 2847 2600 2669 2842 
Q 2491 3084 2119 3084 
Q 1678 3084 1418 2786 
Q 1159 2488 1159 1978 
L 1159 0 
L 581 0 
L 581 3500 
L 1159 3500 
L 1159 2956 
Q 1356 3278 1631 3431 
Q 1906 3584 2284 3584 
Q 2666 3584 2933 3390 
Q 3200 3197 3328 2828 
z
" transform="scale(0.015625)"/>
       <path id="DejaVuSans-6f" d="M 1959 3097 
Q 1497 3097 1228 2736 
Q 959 2375 959 1747 
Q 959 1119 1226 758 
Q 1494 397 1959 397 
Q 2419 397 2687 759 
Q 2956 1122 2956 1747 
Q 2956 2369 2687 2733 
Q 2419 3097 1959 3097 
z
M 1959 3584 
Q 2709 3584 3137 3096 
Q 3566 2609 3566 1747 
Q 3566 888 3137 398 
Q 2709 -91 1959 -91 
Q 1206 -91 779 398 
Q 353 888 353 1747 
Q 353 2609 779 3096 
Q 1206 3584 1959 3584 
z
" transform="scale(0.015625)"/>
       <path id="DejaVuSans-75" d="M 544 1381 
L 544 3500 
L 1119 3500 
L 1119 1403 
Q 1119 906 1312 657 
Q 1506 409 1894 409 
Q 2359 409 2629 706 
Q 2900 1003 2900 1516 
L 2900 3500 
L 3475 3500 
L 3475 0 
L 2900 0 
L 2900 538 
Q 2691 219 2414 64 
Q 2138 -91 1772 -91 
Q 1169 -91 856 284 
Q 544 659 544 1381 
z
M 1991 3584 
L 1991 3584 
z
" transform="scale(0.015625)"/>
       <path id="DejaVuSans-6e" d="M 3513 2113 
L 3513 0 
L 2938 0 
L 2938 2094 
Q 2938 2591 2744 2837 
Q 2550 3084 2163 3084 
Q 1697 3084 1428 2787 
Q 1159 2491 1159 1978 
L 1159 0 
L 581 0 
L 581 3500 
L 1159 3500 
L 1159 2956 
Q 1366 3272 1645 3428 
Q 1925 3584 2291 3584 
Q 2894 3584 3203 3211 
Q 3513 2838 3513 2113 
z
" transform="scale(0.015625)"/>
       <path id="DejaVuSans-74" d="M 1172 4494 
L 1172 3500 
L 2356 3500 
L 2356 3053 
L 1172 3053 
L 1172 1153 
Q 1172 725 1289 603 
Q 1406 481 1766 481 
L 2356 481 
L 2356 0 
L 1766 0 
Q 1100 0 847 248 
Q 594 497 594 1153 
L 594 3053 
L 172 3053 
L 172 3500 
L 594 3500 
L 594 4494 
L 1172 4494 
z
" transform="scale(0.015625)"/>
       <path id="DejaVuSans-20" transform="scale(0.015625)"/>
       <path id="DejaVuSans-66" d="M 2375 4863 
L 2375 4384 
L 1825 4384 
Q 1516 4384 1395 4259 
Q 1275 4134 1275 3809 
L 1275 3500 
L 2222 3500 
L 2222 3053 
L 1275 3053 
L 1275 0 
L 697 0 
L 697 3053 
L 147 3053 
L 147 3500 
L 697 3500 
L 697 3744 
Q 697 4328 969 4595 
Q 1241 4863 1831 4863 
L 2375 4863 
z
" transform="scale(0.015625)"/>
       <path id="DejaVuSans-65" d="M 3597 1894 
L 3597 1613 
L 953 1613 
Q 991 1019 1311 708 
Q 1631 397 2203 397 
Q 2534 397 2845 478 
Q 3156 559 3463 722 
L 3463 178 
Q 3153 47 2828 -22 
Q 2503 -91 2169 -91 
Q 1331 -91 842 396 
Q 353 884 353 1716 
Q 353 2575 817 3079 
Q 1281 3584 2069 3584 
Q 2775 3584 3186 3129 
Q 3597 2675 3597 1894 
z
M 3022 2063 
Q 3016 2534 2758 2815 
Q 2500 3097 2075 3097 
Q 1594 3097 1305 2825 
Q 1016 2553 972 2059 
L 3022 2063 
z
" transform="scale(0.015625)"/>
       <path id="DejaVuSans-64" d="M 2906 2969 
L 2906 4863 
L 3481 4863 
L 3481 0 
L 2906 0 
L 2906 525 
Q 2725 213 2448 61 
Q 2172 -91 1784 -91 
Q 1150 -91 751 415 
Q 353 922 353 1747 
Q 353 2572 751 3078 
Q 1150 3584 1784 3584 
Q 2172 3584 2448 3432 
Q 2725 3281 2906 2969 
z
M 947 1747 
Q 947 1113 1208 752 
Q 1469 391 1925 391 
Q 2381 391 2643 752 
Q 2906 1113 2906 1747 
Q 2906 2381 2643 2742 
Q 2381 3103 1925 3103 
Q 1469 3103 1208 2742 
Q 947 2381 947 1747 
z
" transform="scale(0.015625)"/>
       <path id="DejaVuSans-67" d="M 2906 1791 
Q 2906 2416 2648 2759 
Q 2391 3103 1925 3103 
Q 1463 3103 1205 2759 
Q 947 2416 947 1791 
Q 947 1169 1205 825 
Q 1463 481 1925 481 
Q 2391 481 2648 825 
Q 2906 1169 2906 1791 
z
M 3481 434 
Q 3481 -459 3084 -895 
Q 2688 -1331 1869 -1331 
Q 1566 -1331 1297 -1286 
Q 1028 -1241 775 -1147 
L 775 -588 
Q 1028 -725 1275 -790 
Q 1522 -856 1778 -856 
Q 2344 -856 2625 -561 
Q 2906 -266 2906 331 
L 2906 616 
Q 2728 306 2450 153 
Q 2172 0 1784 0 
Q 1141 0 747 490 
Q 353 981 353 1791 
Q 353 2603 747 3093 
Q 1141 3584 1784 3584 
Q 2172 3584 2450 3431 
Q 2728 3278 2906 2969 
L 2906 3500 
L 3481 3500 
L 3481 434 
z
" transform="scale(0.015625)"/>
       <path id="DejaVuSans-73" d="M 2834 3397 
L 2834 2853 
Q 2591 2978 2328 3040 
Q 2066 3103 1784 3103 
Q 1356 3103 1142 2972 
Q 928 2841 928 2578 
Q 928 2378 1081 2264 
Q 1234 2150 1697 2047 
L 1894 2003 
Q 2506 1872 2764 1633 
Q 3022 1394 3022 966 
Q 3022 478 2636 193 
Q 2250 -91 1575 -91 
Q 1294 -91 989 -36 
Q 684 19 347 128 
L 347 722 
Q 666 556 975 473 
Q 1284 391 1588 391 
Q 1994 391 2212 530 
Q 2431 669 2431 922 
Q 2431 1156 2273 1281 
Q 2116 1406 1581 1522 
L 1381 1569 
Q 847 1681 609 1914 
Q 372 2147 372 2553 
Q 372 3047 722 3315 
Q 1072 3584 1716 3584 
Q 2034 3584 2315 3537 
Q 2597 3491 2834 3397 
z
" transform="scale(0.015625)"/>
      </defs>
      <use xlink:href="#DejaVuSans-41"/>
      <use xlink:href="#DejaVuSans-6d" transform="translate(68.408203 0)"/>
      <use xlink:href="#DejaVuSans-6f" transform="translate(165.820312 0)"/>
      <use xlink:href="#DejaVuSans-75" transform="translate(227.001953 0)"/>
      <use xlink:href="#DejaVuSans-6e" transform="translate(290.380859 0)"/>
      <use xlink:href="#DejaVuSans-74" transform="translate(353.759766 0)"/>
      <use xlink:href="#DejaVuSans-20" transform="translate(392.96875 0)"/>
      <use xlink:href="#DejaVuSans-6f" transform="translate(424.755859 0)"/>
      <use xlink:href="#DejaVuSans-66" transform="translate(485.9375 0)"/>
      <use xlink:href="#DejaVuSans-20" transform="translate(521.142578 0)"/>
      <use xlink:href="#DejaVuSans-65" transform="translate(552.929688 0)"/>
      <use xlink:href="#DejaVuSans-64" transform="translate(614.453125 0)"/>
      <use xlink:href="#DejaVuSans-67" transform="translate(677.929688 0)"/>
      <use xlink:href="#DejaVuSans-65" transform="translate(741.40625 0)"/>
      <use xlink:href="#DejaVuSans-73" transform="translate(802.929688 0)"/>
     </g>
    </g>
    <g id="text_10">
     <!-- 1e6 -->
     <g transform="translate(431.121875 330.916562) scale(0.1 -0.1)">
      <use xlink:href="#DejaVuSans-31"/>
      <use xlink:href="#DejaVuSans-65" transform="translate(63.623047 0)"/>
      <use xlink:href="#DejaVuSans-36" transform="translate(125.146484 0)"/>
     </g>
    </g>
   </g>
   <g id="matplotlib.axis_2">
    <g id="ytick_1">
     <g id="line2d_17">
      <path d="M 69.77 291.06 
L 450 291.06 
" clip-path="url(#pfb25460fa8)" style="fill: none; stroke: #b0b0b0; stroke-width: 0.8; stroke-linecap: square"/>
     </g>
     <g id="line2d_18">
      <defs>
       <path id="mf9098f531f" d="M 0 0 
L -3.5 0 
" style="stroke: #000000; stroke-width: 0.8"/>
      </defs>
      <g>
       <use xlink:href="#mf9098f531f" x="69.77" y="291.06" style="stroke: #000000; stroke-width: 0.8"/>
      </g>
     </g>
     <g id="text_11">
      <!-- 0 -->
      <g transform="translate(56.4075 294.859219) scale(0.1 -0.1)">
       <use xlink:href="#DejaVuSans-30"/>
      </g>
     </g>
    </g>
    <g id="ytick_2">
     <g id="line2d_19">
      <path d="M 69.77 239.43513 
L 450 239.43513 
" clip-path="url(#pfb25460fa8)" style="fill: none; stroke: #b0b0b0; stroke-width: 0.8; stroke-linecap: square"/>
     </g>
     <g id="line2d_20">
      <g>
       <use xlink:href="#mf9098f531f" x="69.77" y="239.43513" style="stroke: #000000; stroke-width: 0.8"/>
      </g>
     </g>
     <g id="text_12">
      <!-- 100000 -->
      <g transform="translate(24.595 243.234349) scale(0.1 -0.1)">
       <use xlink:href="#DejaVuSans-31"/>
       <use xlink:href="#DejaVuSans-30" transform="translate(63.623047 0)"/>
       <use xlink:href="#DejaVuSans-30" transform="translate(127.246094 0)"/>
       <use xlink:href="#DejaVuSans-30" transform="translate(190.869141 0)"/>
       <use xlink:href="#DejaVuSans-30" transform="translate(254.492188 0)"/>
       <use xlink:href="#DejaVuSans-30" transform="translate(318.115234 0)"/>
      </g>
     </g>
    </g>
    <g id="ytick_3">
     <g id="line2d_21">
      <path d="M 69.77 187.81026 
L 450 187.81026 
" clip-path="url(#pfb25460fa8)" style="fill: none; stroke: #b0b0b0; stroke-width: 0.8; stroke-linecap: square"/>
     </g>
     <g id="line2d_22">
      <g>
       <use xlink:href="#mf9098f531f" x="69.77" y="187.81026" style="stroke: #000000; stroke-width: 0.8"/>
      </g>
     </g>
     <g id="text_13">
      <!-- 200000 -->
      <g transform="translate(24.595 191.609478) scale(0.1 -0.1)">
       <use xlink:href="#DejaVuSans-32"/>
       <use xlink:href="#DejaVuSans-30" transform="translate(63.623047 0)"/>
       <use xlink:href="#DejaVuSans-30" transform="translate(127.246094 0)"/>
       <use xlink:href="#DejaVuSans-30" transform="translate(190.869141 0)"/>
       <use xlink:href="#DejaVuSans-30" transform="translate(254.492188 0)"/>
       <use xlink:href="#DejaVuSans-30" transform="translate(318.115234 0)"/>
      </g>
     </g>
    </g>
    <g id="ytick_4">
     <g id="line2d_23">
      <path d="M 69.77 136.185389 
L 450 136.185389 
" clip-path="url(#pfb25460fa8)" style="fill: none; stroke: #b0b0b0; stroke-width: 0.8; stroke-linecap: square"/>
     </g>
     <g id="line2d_24">
      <g>
       <use xlink:href="#mf9098f531f" x="69.77" y="136.185389" style="stroke: #000000; stroke-width: 0.8"/>
      </g>
     </g>
     <g id="text_14">
      <!-- 300000 -->
      <g transform="translate(24.595 139.984608) scale(0.1 -0.1)">
       <defs>
        <path id="DejaVuSans-33" d="M 2597 2516 
Q 3050 2419 3304 2112 
Q 3559 1806 3559 1356 
Q 3559 666 3084 287 
Q 2609 -91 1734 -91 
Q 1441 -91 1130 -33 
Q 819 25 488 141 
L 488 750 
Q 750 597 1062 519 
Q 1375 441 1716 441 
Q 2309 441 2620 675 
Q 2931 909 2931 1356 
Q 2931 1769 2642 2001 
Q 2353 2234 1838 2234 
L 1294 2234 
L 1294 2753 
L 1863 2753 
Q 2328 2753 2575 2939 
Q 2822 3125 2822 3475 
Q 2822 3834 2567 4026 
Q 2313 4219 1838 4219 
Q 1578 4219 1281 4162 
Q 984 4106 628 3988 
L 628 4550 
Q 988 4650 1302 4700 
Q 1616 4750 1894 4750 
Q 2613 4750 3031 4423 
Q 3450 4097 3450 3541 
Q 3450 3153 3228 2886 
Q 3006 2619 2597 2516 
z
" transform="scale(0.015625)"/>
       </defs>
       <use xlink:href="#DejaVuSans-33"/>
       <use xlink:href="#DejaVuSans-30" transform="translate(63.623047 0)"/>
       <use xlink:href="#DejaVuSans-30" transform="translate(127.246094 0)"/>
       <use xlink:href="#DejaVuSans-30" transform="translate(190.869141 0)"/>
       <use xlink:href="#DejaVuSans-30" transform="translate(254.492188 0)"/>
       <use xlink:href="#DejaVuSans-30" transform="translate(318.115234 0)"/>
      </g>
     </g>
    </g>
    <g id="ytick_5">
     <g id="line2d_25">
      <path d="M 69.77 84.560519 
L 450 84.560519 
" clip-path="url(#pfb25460fa8)" style="fill: none; stroke: #b0b0b0; stroke-width: 0.8; stroke-linecap: square"/>
     </g>
     <g id="line2d_26">
      <g>
       <use xlink:href="#mf9098f531f" x="69.77" y="84.560519" style="stroke: #000000; stroke-width: 0.8"/>
      </g>
     </g>
     <g id="text_15">
      <!-- 400000 -->
      <g transform="translate(24.595 88.359738) scale(0.1 -0.1)">
       <use xlink:href="#DejaVuSans-34"/>
       <use xlink:href="#DejaVuSans-30" transform="translate(63.623047 0)"/>
       <use xlink:href="#DejaVuSans-30" transform="translate(127.246094 0)"/>
       <use xlink:href="#DejaVuSans-30" transform="translate(190.869141 0)"/>
       <use xlink:href="#DejaVuSans-30" transform="translate(254.492188 0)"/>
       <use xlink:href="#DejaVuSans-30" transform="translate(318.115234 0)"/>
      </g>
     </g>
    </g>
    <g id="ytick_6">
     <g id="line2d_27">
      <path d="M 69.77 32.935649 
L 450 32.935649 
" clip-path="url(#pfb25460fa8)" style="fill: none; stroke: #b0b0b0; stroke-width: 0.8; stroke-linecap: square"/>
     </g>
     <g id="line2d_28">
      <g>
       <use xlink:href="#mf9098f531f" x="69.77" y="32.935649" style="stroke: #000000; stroke-width: 0.8"/>
      </g>
     </g>
     <g id="text_16">
      <!-- 500000 -->
      <g transform="translate(24.595 36.734868) scale(0.1 -0.1)">
       <defs>
        <path id="DejaVuSans-35" d="M 691 4666 
L 3169 4666 
L 3169 4134 
L 1269 4134 
L 1269 2991 
Q 1406 3038 1543 3061 
Q 1681 3084 1819 3084 
Q 2600 3084 3056 2656 
Q 3513 2228 3513 1497 
Q 3513 744 3044 326 
Q 2575 -91 1722 -91 
Q 1428 -91 1123 -41 
Q 819 9 494 109 
L 494 744 
Q 775 591 1075 516 
Q 1375 441 1709 441 
Q 2250 441 2565 725 
Q 2881 1009 2881 1497 
Q 2881 1984 2565 2268 
Q 2250 2553 1709 2553 
Q 1456 2553 1204 2497 
Q 953 2441 691 2322 
L 691 4666 
z
" transform="scale(0.015625)"/>
       </defs>
       <use xlink:href="#DejaVuSans-35"/>
       <use xlink:href="#DejaVuSans-30" transform="translate(63.623047 0)"/>
       <use xlink:href="#DejaVuSans-30" transform="translate(127.246094 0)"/>
       <use xlink:href="#DejaVuSans-30" transform="translate(190.869141 0)"/>
       <use xlink:href="#DejaVuSans-30" transform="translate(254.492188 0)"/>
       <use xlink:href="#DejaVuSans-30" transform="translate(318.115234 0)"/>
      </g>
     </g>
    </g>
    <g id="text_17">
     <!-- Nanoseconds -->
     <g transform="translate(18.515313 198.730312) rotate(-90) scale(0.1 -0.1)">
      <defs>
       <path id="DejaVuSans-4e" d="M 628 4666 
L 1478 4666 
L 3547 763 
L 3547 4666 
L 4159 4666 
L 4159 0 
L 3309 0 
L 1241 3903 
L 1241 0 
L 628 0 
L 628 4666 
z
" transform="scale(0.015625)"/>
       <path id="DejaVuSans-61" d="M 2194 1759 
Q 1497 1759 1228 1600 
Q 959 1441 959 1056 
Q 959 750 1161 570 
Q 1363 391 1709 391 
Q 2188 391 2477 730 
Q 2766 1069 2766 1631 
L 2766 1759 
L 2194 1759 
z
M 3341 1997 
L 3341 0 
L 2766 0 
L 2766 531 
Q 2569 213 2275 61 
Q 1981 -91 1556 -91 
Q 1019 -91 701 211 
Q 384 513 384 1019 
Q 384 1609 779 1909 
Q 1175 2209 1959 2209 
L 2766 2209 
L 2766 2266 
Q 2766 2663 2505 2880 
Q 2244 3097 1772 3097 
Q 1472 3097 1187 3025 
Q 903 2953 641 2809 
L 641 3341 
Q 956 3463 1253 3523 
Q 1550 3584 1831 3584 
Q 2591 3584 2966 3190 
Q 3341 2797 3341 1997 
z
" transform="scale(0.015625)"/>
       <path id="DejaVuSans-63" d="M 3122 3366 
L 3122 2828 
Q 2878 2963 2633 3030 
Q 2388 3097 2138 3097 
Q 1578 3097 1268 2742 
Q 959 2388 959 1747 
Q 959 1106 1268 751 
Q 1578 397 2138 397 
Q 2388 397 2633 464 
Q 2878 531 3122 666 
L 3122 134 
Q 2881 22 2623 -34 
Q 2366 -91 2075 -91 
Q 1284 -91 818 406 
Q 353 903 353 1747 
Q 353 2603 823 3093 
Q 1294 3584 2113 3584 
Q 2378 3584 2631 3529 
Q 2884 3475 3122 3366 
z
" transform="scale(0.015625)"/>
      </defs>
      <use xlink:href="#DejaVuSans-4e"/>
      <use xlink:href="#DejaVuSans-61" transform="translate(74.804688 0)"/>
      <use xlink:href="#DejaVuSans-6e" transform="translate(136.083984 0)"/>
      <use xlink:href="#DejaVuSans-6f" transform="translate(199.462891 0)"/>
      <use xlink:href="#DejaVuSans-73" transform="translate(260.644531 0)"/>
      <use xlink:href="#DejaVuSans-65" transform="translate(312.744141 0)"/>
      <use xlink:href="#DejaVuSans-63" transform="translate(374.267578 0)"/>
      <use xlink:href="#DejaVuSans-6f" transform="translate(429.248047 0)"/>
      <use xlink:href="#DejaVuSans-6e" transform="translate(490.429688 0)"/>
      <use xlink:href="#DejaVuSans-64" transform="translate(553.808594 0)"/>
      <use xlink:href="#DejaVuSans-73" transform="translate(617.285156 0)"/>
     </g>
    </g>
   </g>
   <g id="line2d_29">
    <path d="M 87.053182 291.032123 
L 87.053413 290.00582 
L 87.163544 291.055354 
L 87.164237 291.045545 
L 87.257514 291.057935 
L 87.202102 290.796713 
L 87.273676 291.034704 
L 87.378728 290.513293 
L 87.375957 291.057419 
L 87.384269 291.052773 
L 87.487243 291.050708 
L 87.38704 291.004245 
L 87.488629 291.043996 
L 87.488859 290.866923 
L 87.537807 291.058451 
L 87.599684 291.052256 
L 87.693884 290.947458 
L 87.601762 291.058451 
L 87.710739 291.049159 
L 87.755761 290.591762 
L 87.720898 291.057419 
L 87.822025 291.029541 
L 87.862891 291.056903 
L 87.868201 290.989274 
L 87.93308 291.052773 
L 88.010887 291.009924 
L 88.01412 291.058968 
L 88.044135 291.038834 
L 88.140182 291.059484 
L 88.127484 291.002696 
L 88.152188 291.051224 
L 88.152419 290.69398 
L 88.17874 291.059484 
L 88.263243 291.056386 
L 88.294874 290.95262 
L 88.374991 291.058451 
L 88.457186 290.992888 
L 88.410316 291.059484 
L 88.486046 291.049675 
L 88.57586 291.059484 
L 88.520448 290.995469 
L 88.598487 291.053805 
L 88.608184 291.022314 
L 88.609107 291.059484 
L 88.710465 291.050708 
L 88.822213 291.058968 
L 88.757796 290.764189 
L 88.823598 291.057419 
L 88.877163 291.034188 
L 88.833295 291.059484 
L 88.934884 291.05587 
L 88.945967 291.032639 
L 89.048248 291.049159 
L 89.125825 290.965526 
L 89.050095 291.057935 
L 89.159303 291.056386 
L 89.231801 290.998566 
L 89.167153 291.057419 
L 89.27082 291.025928 
L 89.371485 291.057935 
L 89.272667 291.015086 
L 89.382337 291.046578 
L 89.470073 290.980498 
L 89.494085 291.05587 
L 90.243995 291.00631 
L 90.244226 281.873354 
L 90.321341 291.06 
L 90.35505 291.057935 
L 90.46218 291.057935 
L 90.415311 291.025928 
L 90.466336 291.054321 
L 90.482959 291.048643 
L 90.542758 290.954169 
L 90.545298 290.967075 
L 90.550608 290.712048 
L 90.603481 291.058968 
L 90.654506 291.045545 
L 90.739471 290.818396 
L 90.771333 291.05587 
L 90.77318 291.047094 
L 90.892316 291.054321 
L 94.112913 291.007343 
L 94.113144 290.875699 
L 94.148931 291.06 
L 94.223968 291.03935 
L 94.296235 290.986693 
L 94.233666 291.057419 
L 94.333407 291.058451 
L 94.450927 291.058451 
L 94.350493 291.045545 
L 94.45162 291.054838 
L 94.562675 291.008375 
L 94.457392 291.06 
L 94.56406 291.026444 
L 94.60585 290.982563 
L 94.606081 281.43764 
L 94.680195 291.058968 
L 94.716905 291.053805 
L 94.824497 291.058451 
L 94.777166 291.044513 
L 94.828191 291.054321 
L 94.937861 291.058968 
L 94.834194 291.051224 
L 94.94017 291.057935 
L 97.298185 291.059484 
L 97.298416 290.877764 
L 97.303034 291.06 
L 97.40924 291.059484 
L 97.531378 291.05587 
L 97.642433 291.058968 
L 97.606877 291.042448 
L 97.642895 291.058451 
L 97.695536 291.025928 
L 97.643356 291.058968 
L 97.75395 291.058451 
L 97.872855 291.058968 
L 97.976521 290.949007 
L 97.88209 291.059484 
L 97.984141 290.953137 
L 97.984602 290.967075 
L 98.004228 290.898414 
L 98.016233 290.925259 
L 98.016464 279.065478 
L 98.018311 291.029025 
L 98.127289 290.848338 
L 98.131214 290.864342 
L 98.226569 290.556658 
L 98.231186 290.614477 
L 98.286829 289.839588 
L 98.320076 291.059484 
L 98.322616 291.052773 
L 98.34178 290.880862 
L 98.434595 291.058451 
L 98.53526 291.052256 
L 98.44106 291.06 
L 98.545881 291.058451 
L 98.683257 291.056903 
L 98.683487 290.91132 
L 98.68949 291.06 
L 98.794312 291.052256 
L 98.906521 291.057935 
L 98.883895 290.928357 
L 98.906983 291.05587 
L 99.018038 291.050191 
L 98.908599 291.056903 
L 99.020347 291.05587 
L 99.116164 291.058968 
L 99.06306 291.037801 
L 99.116625 291.058451 
L 99.178271 290.848854 
L 99.121243 291.06 
L 99.22768 291.058451 
L 99.298331 290.858663 
L 99.349818 291.056386 
L 99.429935 291.06 
L 99.403614 290.870537 
L 99.431089 291.056386 
L 99.43132 290.863825 
L 99.442402 291.06 
L 99.542144 291.05174 
L 99.65343 291.058968 
L 99.545607 290.884475 
L 99.654123 291.056386 
L 99.745783 291.046578 
L 99.666821 291.06 
L 99.765178 291.058968 
L 99.885699 291.050191 
L 99.887315 291.05587 
L 99.948038 290.896865 
L 99.998601 291.057935 
L 100.057938 290.893768 
L 100.109887 291.05587 
L 100.230639 291.058451 
L 100.114505 291.052773 
L 100.231563 291.056386 
L 100.347697 291.038834 
L 100.232486 291.058451 
L 100.353008 291.055354 
L 100.444668 291.06 
L 100.422273 291.026444 
L 100.463832 291.04761 
L 100.53656 290.928873 
L 100.541178 291.058968 
L 100.574656 291.05587 
L 100.688713 291.058968 
L 100.585277 291.048126 
L 100.688943 291.058451 
L 101.478797 291.000631 
L 101.479028 276.355688 
L 101.528898 291.06 
L 101.589852 291.038834 
L 101.707141 291.058451 
L 101.648265 291.019733 
L 101.707372 291.057419 
L 101.780331 291.00631 
L 101.708988 291.058968 
L 101.818427 291.05587 
L 101.930174 291.059484 
L 101.911473 290.998566 
L 101.931098 291.058451 
L 101.934792 290.995985 
L 102.053235 291.059484 
L 102.123193 289.314047 
L 102.056006 291.06 
L 102.16429 291.057935 
L 106.618268 291.053289 
L 106.618499 290.918032 
L 106.621039 291.06 
L 106.729323 291.053805 
L 106.84869 291.050708 
L 106.731401 291.058968 
L 106.849845 291.053805 
L 106.925344 290.737345 
L 106.961361 291.06 
L 107.032012 291.033671 
L 107.072878 291.05587 
L 107.183472 291.06 
L 107.174467 291.03522 
L 107.184164 291.058451 
L 107.187166 291.052256 
L 107.295912 291.06 
L 107.397501 291.049675 
L 107.407198 291.05587 
L 107.477387 290.959848 
L 107.477848 290.937649 
L 107.503476 291.06 
L 107.587287 291.047094 
L 107.691185 291.010956 
L 107.700882 291.058451 
L 107.806858 291.049675 
L 107.813092 291.057935 
L 108.653739 291.057419 
L 108.65397 290.724955 
L 108.656048 291.059484 
L 108.764794 291.056903 
L 108.938188 290.998566 
L 108.974437 290.596409 
L 108.99891 291.058451 
L 109.049012 291.049159 
L 109.152679 291.058968 
L 109.128205 290.976368 
L 109.161222 291.054838 
L 109.189389 290.9774 
L 109.182463 291.058968 
L 109.272277 291.055354 
L 109.37502 291.06 
L 109.364861 291.004245 
L 109.384255 291.058451 
L 109.453059 290.996501 
L 109.506624 291.05587 
L 109.601517 291.057935 
L 109.527172 291.006826 
L 109.617679 291.048643 
L 109.653235 290.926292 
L 109.667319 291.06 
L 109.728734 291.05587 
L 109.732428 291.051224 
L 109.842559 291.057419 
L 109.908361 291.013021 
L 109.850871 291.059484 
L 109.955231 291.054321 
L 110.055203 291.06 
L 109.962388 291.050708 
L 110.066747 291.056386 
L 110.160948 291.000115 
L 110.069056 291.06 
L 110.180342 291.05174 
L 110.291397 291.058968 
L 110.183575 291.00631 
L 110.291628 291.057935 
L 110.410533 291.058451 
L 110.299478 291.046578 
L 110.410995 291.057419 
L 110.444242 291.019216 
L 110.429235 291.06 
L 110.52205 291.056903 
L 110.532902 291.027476 
L 110.642802 291.057935 
L 110.674203 291.01044 
L 110.648574 291.059484 
L 110.754088 291.056903 
L 110.792184 290.930422 
L 110.873224 291.06 
L 110.960729 290.96501 
L 110.984279 291.05174 
L 111.083329 291.06 
L 111.093026 291.013021 
L 111.093257 290.991339 
L 111.10203 291.059484 
L 111.203619 291.057935 
L 112.726759 290.955718 
L 112.841508 290.53704 
L 112.842432 290.684687 
L 112.842662 290.692947 
L 112.895073 290.032665 
L 112.895304 288.533995 
L 112.982578 291.06 
L 113.005897 291.057935 
L 115.421172 291.007859 
L 115.421403 290.875699 
L 115.42579 291.06 
L 115.531996 291.058968 
L 115.640973 291.046578 
L 115.534536 291.059484 
L 115.643744 291.057935 
L 115.756184 291.025928 
L 115.646976 291.059484 
L 115.765419 291.057935 
L 115.766112 291.055354 
L 115.77858 291.057935 
L 115.778811 286.373494 
L 115.78643 291.06 
L 115.889635 291.058968 
L 115.968597 291.047094 
L 115.891251 291.059484 
L 116.000921 291.057419 
L 116.122366 291.054321 
L 116.00323 291.059484 
L 116.122827 291.05587 
L 116.158845 291.057935 
L 116.222107 291.000115 
L 116.225571 291.008891 
L 116.232035 290.976884 
L 116.234113 291.06 
L 116.333393 291.056386 
L 116.443525 291.058968 
L 116.407276 291.029541 
L 116.44745 291.057935 
L 116.591983 290.947974 
L 116.697497 267.141165 
L 116.660556 291.06 
L 116.702115 291.043996 
L 116.770225 290.886024 
L 116.725665 291.057935 
L 116.817557 291.015086 
L 116.923763 291.06 
L 116.928843 291.057419 
L 116.966477 291.029025 
L 116.937616 291.059484 
L 117.040359 291.058451 
L 117.123708 291.008891 
L 117.162497 291.059484 
L 117.248386 291.022314 
L 117.284403 291.058968 
L 118.525173 290.956234 
L 118.572735 290.891187 
L 118.601595 291.06 
L 118.634842 291.056386 
L 118.753286 291.039866 
L 118.638075 291.06 
L 118.757211 291.049159 
L 118.864803 291.06 
L 118.777528 291.044513 
L 118.868497 291.057419 
L 119.024574 291.052773 
L 119.024805 290.784323 
L 119.070751 291.06 
L 119.135629 291.058451 
L 119.249917 291.044513 
L 119.257074 291.05174 
L 119.26654 291.059484 
L 119.362819 290.908739 
L 119.364897 290.979465 
L 119.383829 288.951124 
L 119.405763 291.058968 
L 119.47549 291.046061 
L 119.479184 290.999599 
L 119.539907 290.851436 
L 119.500887 291.059484 
L 119.590008 291.048643 
L 119.595319 291.036253 
L 119.596011 290.798778 
L 119.6348 291.06 
L 119.706374 291.057419 
L 124.919035 290.978949 
L 124.919266 263.16192 
L 124.922499 291.030574 
L 125.030091 290.726503 
L 125.034246 290.818396 
L 125.098894 290.363581 
L 125.140915 290.703272 
L 125.245274 289.962972 
L 125.145301 290.704305 
L 125.253586 290.304728 
L 125.254279 291.059484 
L 125.367412 290.973786 
L 125.393501 290.770384 
L 125.397196 290.863825 
L 125.397426 290.598474 
L 125.413819 291.06 
L 125.50802 290.983595 
L 125.508251 290.990823 
L 125.59691 290.667651 
L 125.60984 290.805489 
L 125.698037 290.689333 
L 125.617228 290.87002 
L 125.702655 290.716178 
L 125.702886 39.46 
L 125.810016 290.938165 
L 125.81371 290.909772 
L 125.85827 291.06 
L 125.926381 291.020765 
L 126.014348 290.991339 
L 125.939311 291.06 
L 126.038591 291.010956 
L 126.038821 291.011989 
L 126.100929 290.889122 
L 126.126557 290.684171 
L 126.102776 290.943328 
L 126.212215 290.73941 
L 126.227684 290.562336 
L 126.228839 291.06 
L 126.32073 291.036253 
L 126.322578 291.04348 
L 126.405927 290.984111 
L 126.431093 291.017668 
L 126.543764 291.058968 
L 126.496202 290.836464 
L 126.544457 291.058451 
L 126.629884 291.050191 
L 126.655974 291.058968 
L 133.446957 291.038318 
L 133.447187 290.880345 
L 133.556395 291.06 
L 133.558012 291.057935 
L 137.486036 290.974819 
L 137.533137 269.16899 
L 137.557841 291.06 
L 137.59663 291.056903 
L 138.472141 291.057419 
L 138.472372 290.93197 
L 138.522473 291.06 
L 138.583196 291.06 
L 138.67301 291.043996 
L 138.694713 291.057419 
L 138.815927 291.06 
L 138.696098 291.053289 
L 138.817081 291.058968 
L 144.684529 290.983079 
L 144.779422 290.763157 
L 144.787503 291.059484 
L 144.795122 291.059484 
L 144.884474 291.050191 
L 144.796277 291.06 
L 144.906639 291.052773 
L 145.017694 291.058968 
L 144.980291 291.04348 
L 145.018156 291.057935 
L 145.579434 291.058451 
L 145.579665 290.562852 
L 145.590055 291.06 
L 145.690489 291.058968 
L 145.809164 291.049675 
L 145.812627 291.057419 
L 145.926452 291.058968 
L 145.81863 291.050708 
L 145.926683 291.058451 
L 146.03035 291.053289 
L 145.927145 291.058968 
L 146.040509 291.056386 
L 146.146023 291.06 
L 146.047897 291.048643 
L 146.152257 291.058451 
L 146.257078 291.050191 
L 146.266313 291.053289 
L 146.358205 291.06 
L 146.327497 291.038318 
L 146.377599 291.056903 
L 146.486115 291.02283 
L 146.382679 291.06 
L 146.50066 291.053289 
L 146.62072 291.057935 
L 146.575467 290.977916 
L 146.623029 291.056386 
L 146.705454 291.04348 
L 146.627877 291.057935 
L 146.734084 291.058968 
L 147.297902 291.056386 
L 147.298133 276.374789 
L 147.328378 291.06 
L 147.408957 291.058968 
L 147.413113 291.056903 
L 147.530633 291.058968 
L 147.623679 291.048126 
L 147.64238 291.057935 
L 148.437544 290.966043 
L 148.516275 290.131269 
L 148.549522 290.778128 
L 148.578383 290.481801 
L 148.585771 291.06 
L 148.646724 291.054838 
L 148.757087 291.058968 
L 148.688745 291.042448 
L 148.758472 291.057419 
L 156.497694 290.959332 
L 156.523323 290.899963 
L 156.538792 291.06 
L 156.607133 291.054321 
L 156.720959 291.025411 
L 156.724653 291.036253 
L 156.806386 291.06 
L 156.726962 291.027993 
L 156.838479 291.03935 
L 156.92506 291.011989 
L 156.850716 291.058968 
L 156.949303 291.046578 
L 156.967081 291.024379 
L 157.06336 291.058451 
L 157.164487 291.026444 
L 157.187113 291.053805 
L 157.202352 291.040383 
L 157.310405 291.057419 
L 157.368126 291.040383 
L 157.423769 291.058968 
L 157.430926 291.057419 
L 157.431157 289.851462 
L 157.50227 291.06 
L 157.541982 291.058451 
L 157.640338 291.024895 
L 157.656038 291.04761 
L 157.740772 291.058451 
L 157.712605 290.774514 
L 157.767093 291.04761 
L 157.877917 291.032639 
L 157.783024 291.057935 
L 157.878841 291.033155 
L 157.9518 291.057935 
L 157.915782 290.986176 
L 157.990358 291.040899 
L 159.371273 290.939198 
L 159.376814 290.923194 
L 159.384203 291.06 
L 159.479789 291.058968 
L 162.693228 290.949523 
L 162.704772 290.921129 
L 162.716547 291.06 
L 162.79828 291.058451 
L 162.915569 291.053289 
L 162.919494 291.057935 
L 162.98114 291.046061 
L 163.031473 291.06 
L 163.142066 291.05587 
L 163.143913 291.057935 
L 163.254968 291.06 
L 163.15869 291.033671 
L 163.25543 291.056386 
L 163.263511 291.05174 
L 163.37549 291.058968 
L 163.484467 291.0187 
L 163.387034 291.06 
L 163.487468 291.027993 
L 163.583747 291.06 
L 163.600601 291.057419 
L 163.604064 291.046061 
L 163.714658 291.058968 
L 166.335881 291.058451 
L 166.336112 290.725471 
L 166.337728 291.06 
L 166.446936 291.06 
L 166.502579 291.044513 
L 166.559376 291.058451 
L 166.681052 291.032123 
L 166.682668 291.046578 
L 166.791183 291.058968 
L 166.704833 291.001664 
L 166.793954 291.057935 
L 166.891156 291.033155 
L 166.795801 291.06 
L 166.916322 291.056386 
L 167.02807 291.058968 
L 166.916784 291.052773 
L 167.028763 291.05587 
L 167.057623 290.847822 
L 167.083944 291.06 
L 167.139818 291.05587 
L 171.263863 290.949523 
L 171.265479 290.918548 
L 171.285797 291.059484 
L 171.371455 291.05587 
L 171.482279 291.06 
L 171.408627 291.04348 
L 171.483433 291.058451 
L 171.585022 291.042964 
L 171.486896 291.06 
L 171.594719 291.057419 
L 171.610188 291.039866 
L 171.596797 291.058968 
L 171.706005 291.058451 
L 171.708776 291.052773 
L 171.827681 291.059484 
L 171.846152 291.050708 
L 171.938736 291.059484 
L 172.052562 291.057935 
L 172.165464 291.059484 
L 172.166618 291.058968 
L 177.356422 290.959848 
L 177.356653 259.330322 
L 177.419454 291.059484 
L 177.467477 291.057935 
L 177.533972 291.04761 
L 177.469555 291.058451 
L 177.578994 291.05174 
L 177.682892 291.020765 
L 177.690511 291.058968 
L 177.813572 291.053805 
L 177.814034 291.054838 
L 177.818421 291.029541 
L 177.928783 291.059484 
L 178.015595 291.043996 
L 178.04284 291.056386 
L 178.047919 291.047094 
L 178.154357 291.058968 
L 178.16567 291.041415 
L 178.15782 291.059484 
L 178.265412 291.058451 
L 181.327391 290.958815 
L 181.39227 290.768836 
L 181.438216 290.842659 
L 181.486239 291.06 
L 181.472156 290.744572 
L 181.549502 291.058968 
L 181.664713 291.043996 
L 181.671408 291.056903 
L 181.779231 291.06 
L 181.676257 291.048126 
L 181.783156 291.058451 
L 181.783618 291.058968 
L 181.904601 291.058968 
L 185.43158 290.956234 
L 185.435275 290.93197 
L 185.432273 290.95675 
L 185.443817 290.951072 
L 185.444048 260.11915 
L 185.536171 291.06 
L 185.554872 291.053289 
L 185.666158 291.06 
L 185.571034 291.046578 
L 185.668005 291.058968 
L 185.780908 291.06 
L 185.677472 291.054321 
L 185.7816 291.057935 
L 185.903969 291.059484 
L 186.017563 291.049159 
L 186.025875 291.058451 
L 186.144549 291.06 
L 186.027722 291.056903 
L 186.145935 291.058451 
L 186.222126 291.042448 
L 186.147089 291.06 
L 186.25699 291.058451 
L 186.265071 291.042448 
L 186.258837 291.058968 
L 186.368045 291.058968 
L 186.48949 291.054838 
L 186.489951 291.058451 
L 186.610935 291.058451 
L 186.618554 291.041415 
L 186.630329 291.059484 
L 186.72199 291.058451 
L 186.841587 291.058968 
L 186.727069 291.053805 
L 186.841818 291.058451 
L 186.876913 291.041415 
L 186.843204 291.058968 
L 186.952873 291.058451 
L 187.073856 291.058968 
L 186.953797 291.053289 
L 187.074318 291.058451 
L 187.174983 291.04348 
L 187.076165 291.058968 
L 187.185835 291.057935 
L 187.301277 291.053805 
L 187.197841 291.042448 
L 187.304509 291.051224 
L 188.508106 291.058451 
L 188.508337 290.752832 
L 188.514802 291.059484 
L 188.619161 291.05587 
L 188.728831 291.06 
L 188.648022 291.040899 
L 188.73114 291.058451 
L 203.418115 291.052773 
L 203.418346 290.942812 
L 203.419038 291.058968 
L 203.52917 291.058451 
L 203.651538 291.054321 
L 203.652 291.05587 
L 203.773907 291.06 
L 203.673241 291.041415 
L 203.77483 291.058968 
L 203.887502 291.049159 
L 203.896506 291.057419 
L 204.008485 291.06 
L 203.908512 291.054838 
L 204.008715 291.057419 
L 204.009408 291.05587 
L 204.130391 291.06 
L 204.194346 291.050708 
L 204.241446 291.052773 
L 204.351116 291.06 
L 204.303554 291.045029 
L 204.352732 291.058968 
L 204.472099 291.053289 
L 204.354579 291.06 
L 204.474408 291.056903 
L 204.585001 291.06 
L 204.475101 291.052773 
L 204.586156 291.058451 
L 204.692131 291.044513 
L 204.587541 291.06 
L 204.708293 291.056903 
L 204.815192 291.06 
L 204.708755 291.046578 
L 204.820272 291.058968 
L 205.358231 290.959848 
L 205.427265 290.730633 
L 205.434884 291.06 
L 205.46767 291.056903 
L 205.580572 291.050708 
L 205.468131 291.058451 
L 205.581264 291.057935 
L 205.712406 290.957783 
L 205.785135 290.823042 
L 205.79183 291.06 
L 205.822538 291.058968 
L 205.942828 291.053805 
L 205.945137 291.056903 
L 206.952945 290.958299 
L 206.991964 290.902544 
L 207.006971 291.06 
L 207.062384 291.034704 
L 207.134188 291.06 
L 207.084087 290.997018 
L 207.1739 291.055354 
L 207.290266 291.030574 
L 207.296961 291.038834 
L 207.368535 291.06 
L 207.402937 291.015086 
L 207.408247 291.058451 
L 219.575358 291.056903 
L 219.575589 289.023915 
L 219.589903 291.06 
L 219.686413 291.055354 
L 219.797468 291.06 
L 219.692185 291.050708 
L 219.798391 291.057935 
L 219.91568 291.06 
L 219.800238 291.055354 
L 219.918913 291.056386 
L 220.020501 291.039866 
L 219.921914 291.06 
L 220.032507 291.057419 
L 220.15349 291.049159 
L 220.035047 291.06 
L 220.154645 291.056386 
L 232.622135 290.951588 
L 232.667157 290.776579 
L 232.673391 291.059484 
L 232.729958 291.05587 
L 232.836626 291.058968 
L 232.802917 291.037285 
L 232.841705 291.05587 
L 232.899888 291.038318 
L 232.847016 291.058968 
L 232.953222 291.056903 
L 233.066124 291.044513 
L 232.953915 291.057419 
L 233.073743 291.059484 
L 233.074667 291.05587 
L 233.194496 291.058451 
L 233.303242 291.048126 
L 233.306705 291.057935 
L 233.308552 291.045545 
L 233.423763 291.058968 
L 233.423994 291.042448 
L 233.439232 291.059484 
L 233.534818 291.058451 
L 234.194453 290.971721 
L 234.23024 290.866923 
L 234.296965 291.06 
L 234.305046 291.056903 
L 234.424413 291.01457 
L 234.312435 291.058968 
L 234.425337 291.02696 
L 234.429031 291.028509 
L 234.491369 290.843176 
L 234.536161 290.65268 
L 234.550707 291.06 
L 234.601963 291.057419 
L 234.695702 291.042964 
L 234.602425 291.058451 
L 234.715558 291.057419 
L 234.719944 291.048643 
L 234.831461 291.058968 
L 234.91735 291.03935 
L 234.859398 291.059484 
L 234.942516 291.057935 
L 235.060729 291.058451 
L 234.947827 291.053805 
L 235.061652 291.054321 
L 235.164626 291.040899 
L 235.062345 291.058968 
L 235.172707 291.051224 
L 235.196488 291.031606 
L 235.283993 291.058451 
L 235.375654 291.046061 
L 235.395972 291.049675 
L 235.50518 291.058968 
L 235.49202 291.017151 
L 235.507489 291.058451 
L 235.608847 291.04761 
L 235.513492 291.059484 
L 235.619236 291.05587 
L 235.700046 290.968108 
L 235.733755 290.591246 
L 235.769311 291.058451 
L 235.810408 291.05174 
L 235.934624 291.058451 
L 235.815488 291.036253 
L 235.934855 291.057935 
L 242.983042 290.958299 
L 243.009824 290.936617 
L 243.022985 291.06 
L 243.09225 291.04761 
L 243.202612 291.059484 
L 243.148585 291.024379 
L 243.202843 291.058451 
L 243.208153 291.029541 
L 243.205152 291.059484 
L 243.313898 291.053805 
L 243.41895 291.059484 
L 243.341142 291.034704 
L 243.425184 291.058451 
L 243.473901 291.039866 
L 243.432111 291.059484 
L 243.536239 291.058968 
L 243.656761 291.06 
L 243.543858 291.042448 
L 243.657684 291.058451 
L 245.321894 291.057419 
L 245.322125 290.903577 
L 245.411708 291.06 
L 245.432949 291.055354 
L 245.445186 291.041415 
L 245.435489 291.06 
L 245.544004 291.05587 
L 245.654366 291.059484 
L 245.564553 291.036769 
L 245.654597 291.058968 
L 245.743257 291.042448 
L 245.655983 291.059484 
L 245.765652 291.057935 
L 270.384322 291.057419 
L 270.384553 290.732698 
L 270.400484 291.06 
L 270.495377 291.05587 
L 270.603661 291.048643 
L 270.496531 291.058451 
L 270.607355 291.057935 
L 270.726722 291.06 
L 270.626057 291.048126 
L 270.7288 291.057419 
L 281.536467 291.052256 
L 281.536698 290.942295 
L 281.53993 291.06 
L 281.647522 291.057935 
L 281.76458 291.052256 
L 281.648446 291.058451 
L 281.769198 291.057935 
L 301.435873 291.056903 
L 301.436104 290.733731 
L 301.441876 291.06 
L 301.546928 291.058451 
L 307.231055 291.057419 
L 307.231285 290.921645 
L 307.240521 291.06 
L 307.34211 291.058968 
L 307.463324 291.054321 
L 307.464247 291.056386 
L 307.568837 291.06 
L 307.469557 291.052773 
L 307.576457 291.058451 
L 307.580151 291.06 
L 307.687743 291.053805 
L 307.795104 291.06 
L 307.799029 291.057935 
L 308.097792 291.058451 
L 308.098023 290.717727 
L 308.098254 291.06 
L 308.208847 291.06 
L 308.321288 291.054838 
L 308.322904 291.057935 
L 308.43419 291.06 
L 308.336526 291.052773 
L 308.43696 291.058968 
L 308.543398 291.052773 
L 308.441347 291.06 
L 308.550786 291.058451 
L 308.554249 291.055354 
L 308.671307 291.058451 
L 308.773589 291.049159 
L 308.674078 291.06 
L 308.782593 291.057419 
L 308.895495 291.06 
L 308.789289 291.053805 
L 308.89665 291.058968 
L 309.00632 291.054838 
L 308.900113 291.06 
L 309.010475 291.058968 
L 309.128919 291.06 
L 309.0144 291.05174 
L 309.13192 291.058451 
L 309.245284 291.053289 
L 309.245746 291.058451 
L 309.350798 291.044513 
L 309.248055 291.06 
L 309.367883 291.053805 
L 309.477322 291.06 
L 309.393512 291.045029 
L 309.479169 291.057935 
L 318.182793 291.058451 
L 318.183024 290.707918 
L 318.187411 291.06 
L 318.293848 291.057935 
L 318.414138 291.06 
L 318.298466 291.053805 
L 318.415293 291.058968 
L 318.517113 291.052773 
L 318.527502 291.058451 
L 324.913053 291.056903 
L 324.913284 290.930422 
L 324.93037 291.06 
L 325.024108 291.057419 
L 325.129161 291.052256 
L 325.039116 291.06 
L 325.136087 291.058451 
L 332.190508 291.057935 
L 332.190739 265.137088 
L 332.280553 291.06 
L 332.301563 291.056386 
L 332.409386 291.058968 
L 332.370367 291.046578 
L 332.41308 291.058451 
L 332.505434 291.049675 
L 332.414004 291.058968 
L 332.524135 291.056386 
L 332.531985 291.052256 
L 332.637961 291.057419 
L 332.698452 291.041415 
L 332.639808 291.057935 
L 332.749478 291.057935 
L 332.754557 291.049159 
L 332.863303 291.058968 
L 332.915945 290.971721 
L 332.985672 291.057419 
L 333.107117 291.058968 
L 332.991444 291.042448 
L 333.107348 291.058451 
L 333.218864 291.058451 
L 333.112196 291.06 
L 333.219557 291.058968 
L 335.039844 290.969656 
L 335.040075 290.945393 
L 335.040537 291.06 
L 335.149976 291.058968 
L 335.732034 290.949523 
L 335.817461 290.823042 
L 335.82508 291.058968 
L 335.839856 291.049159 
L 335.95045 291.058968 
L 335.850477 291.048126 
L 335.951142 291.058451 
L 337.379158 290.965526 
L 337.41633 290.827172 
L 337.469434 291.06 
L 337.489059 291.06 
L 337.601037 291.056386 
L 337.713709 291.06 
L 337.826149 291.052256 
L 337.826611 291.055354 
L 337.827073 291.046578 
L 337.949903 291.059484 
L 338.053108 291.048126 
L 338.063959 291.058451 
L 339.109401 290.984111 
L 339.187901 290.862277 
L 339.20337 291.059484 
L 339.220225 291.058968 
L 339.317427 291.045545 
L 339.331742 291.05587 
L 339.429867 291.041931 
L 339.334051 291.058451 
L 339.452725 291.053805 
L 339.56378 291.059484 
L 339.519219 291.038318 
L 339.564242 291.058968 
L 339.586868 291.042964 
L 339.573246 291.06 
L 339.675528 291.054838 
L 339.760724 291.05587 
L 339.711545 291.038834 
L 339.786583 291.048643 
L 339.884246 291.038834 
L 339.790969 291.06 
L 339.897176 291.056903 
L 340.017005 291.058968 
L 339.900408 291.044513 
L 340.018159 291.055354 
L 340.735053 290.953137 
L 340.761835 290.912869 
L 340.781691 291.058968 
L 340.845415 291.021281 
L 340.84657 291.03109 
L 340.949313 290.792067 
L 340.95116 290.809619 
L 340.963166 290.758511 
L 340.970554 291.058968 
L 341.056443 291.058451 
L 341.166344 291.045029 
L 341.168191 291.049159 
L 341.239996 290.962429 
L 341.302565 290.855049 
L 341.30395 291.058968 
L 341.350127 291.05174 
L 341.437863 291.038318 
L 341.374139 291.058968 
L 341.462568 291.057935 
L 341.582627 291.058968 
L 341.582858 291.057935 
L 341.597635 291.042964 
L 341.584705 291.058968 
L 341.693913 291.058968 
L 352.427928 291.049675 
L 352.428159 290.939198 
L 352.43624 291.06 
L 352.538983 291.058968 
L 354.12146 291.057419 
L 354.121691 290.922678 
L 354.124923 291.06 
L 354.232515 291.058451 
L 354.239211 291.06 
L 354.344956 291.053805 
L 354.455087 291.06 
L 354.382359 291.050191 
L 354.456242 291.056386 
L 354.556676 291.06 
L 354.45832 291.048643 
L 354.56822 291.058451 
L 355.809913 291.056386 
L 355.810144 290.897382 
L 355.817301 291.06 
L 355.920968 291.057419 
L 356.041951 291.057935 
L 355.927202 291.052256 
L 356.042182 291.057419 
L 356.126224 291.04761 
L 356.044491 291.058451 
L 356.155777 291.057935 
L 356.272373 291.06 
L 356.159471 291.052773 
L 356.275144 291.057419 
L 356.375578 291.049675 
L 356.289227 291.059484 
L 356.386199 291.057419 
L 356.498408 291.058451 
L 356.392202 291.052256 
L 356.499332 291.057935 
L 356.512723 291.020765 
L 356.500255 291.06 
L 356.610387 291.058968 
L 360.103196 290.974303 
L 360.103426 290.926292 
L 360.111969 291.06 
L 360.213789 291.054321 
L 365.202032 291.057935 
L 365.202263 290.899447 
L 365.205033 291.06 
L 365.313087 291.058968 
L 388.518517 291.056386 
L 388.518748 290.811168 
L 388.546223 291.06 
L 388.629572 291.057419 
L 388.637653 291.052256 
L 388.748708 291.057419 
L 388.833211 291.050708 
L 388.763715 291.06 
L 388.859763 291.058451 
L 396.385187 291.027993 
L 396.38588 290.90719 
L 396.492317 291.06 
L 396.496011 291.05587 
L 396.606604 291.06 
L 396.567354 290.995469 
L 396.610299 291.057935 
L 396.612146 291.056903 
L 396.732436 291.058968 
L 398.26458 290.957267 
L 398.315375 290.679008 
L 398.322301 291.058968 
L 398.374019 291.058451 
L 398.456445 291.015086 
L 398.496619 291.056386 
L 399.833666 291.009924 
L 399.862757 290.832851 
L 399.922325 291.058968 
L 399.94449 291.056386 
L 400.048157 291.06 
L 399.945183 291.05174 
L 400.056238 291.058968 
L 403.686423 290.954685 
L 403.696582 290.064673 
L 403.764461 291.06 
L 403.795631 291.057419 
L 411.503915 291.030058 
L 411.504146 290.901512 
L 411.512919 291.06 
L 411.61497 291.057935 
L 411.735491 291.058968 
L 411.620049 291.05174 
L 411.736415 291.058451 
L 411.847008 291.042448 
L 411.740109 291.058968 
L 411.847931 291.046061 
L 412.075352 290.943844 
L 412.120605 290.649582 
L 412.190101 290.786904 
L 412.190332 290.789486 
L 412.224041 290.476123 
L 412.269525 290.672813 
L 412.347102 287.121022 
L 412.272988 290.674362 
L 412.380811 290.211287 
L 412.396511 290.248457 
L 412.387276 289.833909 
L 412.400436 290.173085 
L 412.46162 263.278076 
L 412.468085 290.884992 
L 412.51126 290.824591 
L 412.537812 290.650615 
L 412.556283 291.057935 
L 412.603845 291.03522 
L 412.604999 291.037285 
L 412.658333 290.936617 
L 412.697583 290.951588 
L 412.719979 289.86953 
L 412.813025 290.823558 
L 412.813256 290.831302 
L 412.859202 290.438953 
L 412.919001 290.682106 
L 413.015049 288.873687 
L 412.920617 290.697077 
L 413.03375 290.206641 
L 413.070461 290.307826 
L 413.05984 288.298069 
L 413.07554 290.00582 
L 413.075771 269.369295 
L 413.182208 291.059484 
L 413.186595 291.058451 
L 413.391158 290.673846 
L 413.187057 291.058968 
L 413.407551 290.802392 
L 413.423482 291.059484 
L 413.518837 291.057419 
L 413.563397 291.04348 
L 413.609805 290.997018 
L 413.610267 291.001148 
L 413.701004 290.839046 
L 413.716012 291.059484 
L 413.720629 291.058968 
L 413.855927 290.9361 
L 413.857543 290.954685 
L 413.857774 291.06 
L 413.968598 291.013538 
L 414.025396 290.944877 
L 414.026088 291.057419 
L 414.080115 290.990823 
L 414.16231 291.059484 
L 414.144301 290.877764 
L 414.191632 291.048126 
L 414.305689 291.057935 
L 414.192094 291.042964 
L 414.307536 291.057419 
L 414.42875 291.052773 
L 414.429211 291.057419 
L 414.482315 290.984111 
L 414.482546 290.809619 
L 414.575361 291.06 
L 414.593139 291.053289 
L 414.706734 291.052256 
L 414.597064 291.058968 
L 414.712506 291.058451 
L 414.713429 291.053805 
L 414.832334 291.056903 
L 414.876895 291.046061 
L 414.843186 291.06 
L 414.943389 291.057935 
L 414.948007 291.052256 
L 415.056984 291.058968 
L 415.166423 291.04761 
L 415.168039 291.058968 
L 415.287868 291.053289 
L 415.168501 291.06 
L 415.290177 291.057419 
L 415.290639 291.054838 
L 415.410929 291.055354 
L 415.504899 291.045545 
L 415.414623 291.058451 
L 415.524293 291.05587 
L 415.633732 291.057935 
L 415.526602 291.048126 
L 415.636733 291.056903 
L 415.751713 291.052773 
L 415.757716 291.058451 
L 416.416197 291.058968 
L 416.416428 290.87828 
L 416.424278 291.06 
L 416.527252 291.057935 
L 416.630457 291.050191 
L 416.53464 291.06 
L 416.638538 291.058451 
L 416.64177 291.047094 
L 416.757905 291.06 
L 416.812855 291.049675 
L 416.86896 291.058451 
L 417.868917 290.971205 
L 417.869148 290.802908 
L 417.891313 291.06 
L 417.979741 291.056386 
L 420.672076 290.962429 
L 420.738802 290.543751 
L 420.784517 290.813749 
L 420.785671 290.772966 
L 420.788211 291.06 
L 420.883566 291.016635 
L 420.964837 291.06 
L 420.9683 291.008891 
L 420.994852 291.039866 
L 421.03087 291.012505 
L 421.0311 291.06 
L 421.104752 291.058968 
L 427.376016 291.057935 
L 427.376247 290.724955 
L 427.377401 291.06 
L 427.487071 291.06 
L 427.574576 291.050708 
L 427.59905 291.053805 
L 427.708489 291.057419 
L 427.639223 291.04348 
L 427.710336 291.056903 
L 427.804305 291.021281 
L 427.824392 291.05587 
L 427.939834 291.049159 
L 427.945606 291.054321 
L 428.043501 291.06 
L 427.952071 291.052773 
L 428.057123 291.056903 
L 430.366884 291.010956 
L 430.462931 290.860728 
L 430.476784 291.059484 
L 430.477708 291.059484 
L 430.585069 290.860728 
L 430.590379 291.055354 
L 430.595689 291.05587 
L 430.685272 290.9774 
L 430.68735 290.983079 
L 430.700511 290.426047 
L 430.793095 291.057419 
L 430.79448 290.900995 
L 430.793557 291.058451 
L 430.907844 291.047094 
L 430.908306 291.053289 
L 430.997196 290.901512 
L 431.014974 290.95262 
L 431.06092 290.896349 
L 431.065538 291.058968 
L 431.124182 291.026444 
L 431.187675 291.06 
L 431.186983 290.879829 
L 431.236161 291.038834 
L 431.313507 290.865374 
L 431.318586 291.057419 
L 431.346754 291.048643 
L 431.437491 290.885508 
L 431.347216 291.049159 
L 431.46589 291.054321 
L 431.586642 291.06 
L 431.472817 291.048643 
L 431.588489 291.058451 
L 431.682459 291.050191 
L 431.592645 291.058968 
L 431.700006 291.057419 
L 432.716818 291.058968 
L 432.716818 291.058968 
" clip-path="url(#pfb25460fa8)" style="fill: none; stroke: #1f77b4; stroke-width: 3; stroke-linecap: square"/>
   </g>
   <g id="line2d_30">
    <path d="M 87.053182 291.020249 
L 87.059185 290.704821 
L 87.163544 291.056386 
L 87.164237 291.045545 
L 87.172549 291.000115 
L 87.174165 291.053289 
L 87.275292 291.053289 
L 87.384731 291.059484 
L 87.282449 290.995469 
L 87.386809 291.05587 
L 87.465078 291.028509 
L 87.387963 291.058968 
L 87.500634 291.055354 
L 87.537807 291.058968 
L 87.503636 291.05174 
L 87.541039 291.054838 
L 87.54127 290.858147 
L 87.639857 291.059484 
L 87.652094 291.040383 
L 87.725284 291.059484 
L 87.76338 291.056386 
L 87.796397 291.02696 
L 87.882285 291.058968 
L 87.95409 291.042448 
L 87.88621 291.059484 
L 87.99334 291.054838 
L 88.003961 291.041931 
L 88.107166 291.058451 
L 88.197903 291.021281 
L 88.128638 291.059484 
L 88.218452 291.052256 
L 88.329738 291.059484 
L 88.221915 291.040899 
L 88.339666 291.052256 
L 88.373837 290.647517 
L 88.342206 291.058968 
L 88.450721 291.052773 
L 88.457186 290.993404 
L 88.451645 291.056386 
L 88.571473 291.053805 
L 88.683683 291.056386 
L 88.575398 290.929389 
L 88.683914 291.054838 
L 88.795661 291.058968 
L 88.691994 291.045545 
L 88.801202 291.04761 
L 88.808591 291.036769 
L 88.827985 291.058451 
L 88.912027 291.056386 
L 89.469842 291.056386 
L 89.470073 290.263428 
L 89.509785 291.057419 
L 89.580897 291.056903 
L 89.653163 290.991339 
L 89.703496 291.053805 
L 89.816629 291.058968 
L 89.710884 291.041415 
L 89.817783 291.056386 
L 89.881507 291.019733 
L 89.825634 291.059484 
L 89.930224 291.054838 
L 89.934842 291.059484 
L 90.051438 291.049159 
L 90.108697 291.059484 
L 90.148871 291.040383 
L 90.162493 291.056386 
L 90.236837 291.036769 
L 90.172883 291.059484 
L 90.273548 291.055354 
L 90.393377 291.058968 
L 90.274933 291.051224 
L 90.394762 291.055354 
L 90.415311 291.043996 
L 90.398225 291.058968 
L 90.505817 291.056386 
L 92.213895 291.056903 
L 92.214126 290.936617 
L 92.247604 291.06 
L 92.32495 291.057419 
L 92.945796 291.055354 
L 92.946027 290.227807 
L 92.984815 291.059484 
L 93.056851 291.056903 
L 93.143663 291.036253 
L 93.057544 291.059484 
L 93.178065 291.057419 
L 93.287966 291.059484 
L 93.243174 291.04348 
L 93.289582 291.055354 
L 93.393941 291.058451 
L 93.317057 291.042964 
L 93.401791 291.054838 
L 93.402715 291.053289 
L 93.524391 291.056903 
L 93.541476 291.037285 
L 93.5267 291.057935 
L 93.635908 291.055354 
L 93.757814 291.056903 
L 93.693398 291.011989 
L 93.758045 291.056386 
L 93.837931 291.047094 
L 93.759661 291.058451 
L 93.869331 291.056386 
L 93.980386 291.06 
L 93.876027 291.042964 
L 93.983388 291.057419 
L 97.292182 291.057935 
L 97.292413 290.098229 
L 97.303034 291.06 
L 97.403237 291.058451 
L 106.925113 291.059484 
L 106.925344 290.748702 
L 106.928345 291.06 
L 107.036168 291.057935 
L 109.832401 291.058451 
L 109.832631 279.072189 
L 109.938145 291.06 
L 109.943456 291.057935 
L 110.05428 291.056386 
L 110.055665 291.058451 
L 126.297642 291.057935 
L 126.297873 290.520004 
L 126.301336 291.058968 
L 126.408697 291.057935 
L 126.411468 291.051224 
L 126.530142 291.057419 
L 126.637503 291.050708 
L 126.535452 291.058968 
L 126.641428 291.057935 
L 126.642352 291.056903 
L 126.763335 291.058451 
L 126.879238 291.04761 
L 126.766567 291.06 
L 126.88501 291.058451 
L 132.350259 291.058451 
L 132.35049 271.956217 
L 132.370115 291.06 
L 132.461314 291.057935 
L 133.68292 291.055354 
L 133.683151 290.908223 
L 133.690077 291.06 
L 133.793975 291.049675 
L 133.855621 291.056903 
L 133.823066 291.00631 
L 133.904799 291.046578 
L 133.911956 291.022314 
L 133.938277 291.058968 
L 134.015623 291.056903 
L 134.119059 291.057419 
L 134.023011 291.03935 
L 134.120213 291.040383 
L 134.120444 291.00631 
L 134.208411 291.06 
L 134.231038 291.057419 
L 134.236117 291.051224 
L 134.352713 291.058451 
L 134.409742 291.041931 
L 134.46423 291.057935 
L 134.573207 291.038318 
L 134.586137 291.05587 
L 134.69142 291.06 
L 134.628619 291.037801 
L 134.697885 291.056903 
L 148.544674 291.052773 
L 148.544905 290.920613 
L 148.591081 291.06 
L 148.655729 291.057935 
L 148.767938 291.041415 
L 148.769324 291.057419 
L 148.881533 291.058451 
L 148.793566 291.042448 
L 148.883149 291.057935 
L 148.945488 291.03109 
L 148.996744 291.057935 
L 149.112648 291.057935 
L 149.000669 291.053289 
L 149.11311 291.056386 
L 149.162288 291.030574 
L 149.132504 291.06 
L 149.224165 291.054838 
L 149.335451 291.057935 
L 149.269187 291.029541 
L 149.335912 291.057419 
L 149.42411 291.045029 
L 149.34307 291.06 
L 149.448353 291.056386 
L 149.551789 291.041931 
L 149.451585 291.058968 
L 149.569567 291.056386 
L 149.675542 291.06 
L 149.576493 291.027993 
L 149.680622 291.050191 
L 149.7455 291.036769 
L 149.687779 291.058968 
L 149.791677 291.053805 
L 149.883569 291.059484 
L 149.840162 291.033155 
L 149.903194 291.057935 
L 150.018636 291.051224 
L 150.025331 291.056903 
L 154.641389 291.050191 
L 154.64162 287.697156 
L 154.717812 291.058968 
L 154.752444 291.057935 
L 155.434706 291.050708 
L 155.434937 290.943844 
L 155.464721 291.058968 
L 155.545761 291.056386 
L 155.647581 290.949523 
L 155.546684 291.058451 
L 155.657047 291.05587 
L 155.766717 291.057935 
L 155.750093 291.019216 
L 155.769487 291.056903 
L 155.887469 291.052256 
L 155.770873 291.057935 
L 155.890701 291.057935 
L 157.430926 291.053805 
L 157.431157 271.666085 
L 157.45009 291.06 
L 157.541982 291.054838 
L 157.547985 291.040383 
L 157.653037 291.057419 
L 157.749315 287.210333 
L 157.685129 291.058451 
L 157.764092 291.056386 
L 157.76617 291.040383 
L 157.876532 291.057935 
L 162.653747 291.037285 
L 162.653978 290.461668 
L 162.724628 291.06 
L 162.764802 291.056903 
L 162.771036 291.04348 
L 162.878166 291.06 
L 162.975368 291.037801 
L 162.989452 291.057419 
L 172.264051 291.046061 
L 172.264282 290.494708 
L 172.314845 291.057419 
L 172.375106 291.019216 
L 172.471846 291.051224 
L 172.39173 290.959848 
L 172.486392 291.032123 
L 172.549885 291.058451 
L 172.516176 290.825623 
L 172.597678 291.046061 
L 172.635312 290.952104 
L 172.679873 291.057419 
L 172.708271 291.057419 
L 172.828331 291.057419 
L 172.717045 291.033671 
L 172.829254 291.056386 
L 172.940079 291.029541 
L 172.836181 291.057935 
L 172.940771 291.05587 
L 173.048825 291.058451 
L 172.947467 291.04348 
L 173.054135 291.05587 
L 173.156878 291.022314 
L 173.071451 291.06 
L 173.165652 291.054838 
L 173.273013 291.058451 
L 173.183661 291.043996 
L 173.276476 291.053289 
L 173.307184 291.038318 
L 173.345972 291.06 
L 173.387531 291.054321 
L 173.499972 291.059484 
L 173.440865 291.042964 
L 173.500202 291.056903 
L 173.544301 291.036253 
L 173.61449 291.059484 
L 173.6512 291.025411 
L 173.726238 291.058451 
L 173.837293 291.059484 
L 173.729008 291.044513 
L 173.838216 291.057419 
L 180.074386 291.057419 
L 180.074616 290.86589 
L 180.094242 291.058968 
L 180.185441 291.058968 
L 180.286337 291.036253 
L 180.299497 291.057935 
L 183.647773 291.054838 
L 183.648004 290.675911 
L 183.665551 291.06 
L 183.758828 291.054838 
L 183.868036 291.057935 
L 183.825092 291.028509 
L 183.872423 291.054321 
L 183.910749 291.036769 
L 183.876117 291.058451 
L 183.98417 291.056903 
L 184.095687 291.057935 
L 184.04166 291.029541 
L 184.096149 291.056903 
L 184.125933 291.035736 
L 184.099612 291.059484 
L 184.207204 291.057419 
L 184.210206 291.050708 
L 184.328649 291.057935 
L 184.388679 291.039866 
L 184.440397 291.057419 
L 184.554684 291.058968 
L 184.442013 291.035736 
L 184.557916 291.052773 
L 184.651194 291.046578 
L 184.565305 291.06 
L 184.668741 291.056903 
L 186.921242 291.053289 
L 186.921473 290.790518 
L 186.989815 291.058968 
L 187.032297 291.055354 
L 187.141274 291.043996 
L 187.034375 291.056903 
L 187.15305 291.056386 
L 187.247943 291.059484 
L 187.220929 291.037801 
L 187.264335 291.054838 
L 187.375852 291.057419 
L 187.318824 291.004761 
L 187.376083 291.056903 
L 187.494988 291.020249 
L 187.376545 291.057419 
L 187.497528 291.056903 
L 187.618742 291.058451 
L 187.498682 291.054838 
L 187.619666 291.057935 
L 190.647475 291.024895 
L 190.647705 290.768319 
L 190.70381 291.057419 
L 190.75853 291.057419 
L 190.849498 291.038834 
L 190.761762 291.057935 
L 190.869585 291.05587 
L 190.883207 291.034188 
L 190.983872 291.058451 
L 191.097005 291.034704 
L 191.10601 291.056903 
L 191.111089 291.036769 
L 191.219604 291.058968 
L 191.324426 291.038834 
L 191.331121 291.057419 
L 191.444023 291.059484 
L 191.369217 291.037285 
L 191.444485 291.056903 
L 191.517214 291.033671 
L 191.444947 291.057935 
L 191.556233 291.053805 
L 191.672367 291.029541 
L 191.558773 291.058451 
L 191.676062 291.057935 
L 193.160644 291.057935 
L 193.160875 264.497972 
L 193.271699 291.056386 
L 193.389681 291.027993 
L 193.274239 291.057935 
L 193.393606 291.055354 
L 193.493809 291.06 
L 193.407228 291.048126 
L 193.505584 291.057935 
L 196.031221 291.052256 
L 196.031452 290.94023 
L 196.053617 291.06 
L 196.142276 291.056903 
L 196.202999 291.030574 
L 196.180372 291.059484 
L 196.253331 291.05587 
L 198.481821 291.050708 
L 198.482052 290.784839 
L 198.582486 291.06 
L 198.592876 291.057419 
L 198.711781 291.057935 
L 198.594954 291.052256 
L 198.712474 291.055354 
L 198.794668 291.030574 
L 198.726096 291.06 
L 198.823529 291.057419 
L 219.575358 291.058451 
L 219.575589 277.800152 
L 219.590596 291.06 
L 219.686413 291.056903 
L 219.805318 291.057935 
L 219.696341 291.045545 
L 219.805549 291.056386 
L 219.811321 291.04761 
L 219.808088 291.06 
L 219.916604 291.057419 
L 220.035047 291.06 
L 219.918451 291.056386 
L 220.036432 291.056903 
L 220.061137 291.05174 
L 220.037356 291.06 
L 220.147488 291.058451 
L 220.268932 291.06 
L 220.159493 291.052256 
L 220.269163 291.058451 
L 220.376062 291.053805 
L 220.27101 291.06 
L 220.381373 291.058451 
L 252.651759 291.058968 
L 252.65199 282.613655 
L 252.655915 291.06 
L 252.762814 291.056386 
L 252.872253 291.058968 
L 252.778745 291.049675 
L 252.874562 291.057419 
L 252.874793 291.050708 
L 252.875486 291.059484 
L 252.985617 291.057935 
L 253.105908 291.058968 
L 252.987003 291.05587 
L 253.107062 291.057935 
L 253.21881 291.05587 
L 253.113065 291.06 
L 253.219272 291.058451 
L 264.265672 291.058451 
L 264.265903 285.321379 
L 264.282296 291.06 
L 264.376727 291.056903 
L 301.927194 291.06 
L 301.927425 290.87828 
L 302.038249 291.058451 
L 303.15665 291.045029 
L 303.15688 290.54117 
L 303.231225 291.06 
L 303.267705 291.057935 
L 316.546289 291.048126 
L 316.54652 290.897382 
L 316.578151 291.06 
L 316.657344 291.05174 
L 316.76586 291.059484 
L 316.720606 291.036769 
L 316.768861 291.058451 
L 316.865601 291.047094 
L 316.876915 291.057419 
L 316.877146 289.982073 
L 316.903697 291.06 
L 316.98797 291.057935 
L 317.092329 291.059484 
L 317.034839 291.040383 
L 317.099487 291.05587 
L 317.219084 291.058451 
L 317.219777 291.056903 
L 317.279807 291.043996 
L 317.224856 291.058968 
L 317.330832 291.057935 
L 329.786316 291.050191 
L 329.786547 290.902028 
L 329.808481 291.06 
L 329.897371 291.056903 
L 330.019047 291.057935 
L 329.903836 291.048126 
L 330.019278 291.057419 
L 336.281537 291.057419 
L 336.281768 277.756787 
L 336.310628 291.059484 
L 336.392592 291.057935 
L 346.530927 291.053805 
L 346.531158 286.927945 
L 346.579413 291.058451 
L 346.641982 291.056903 
L 346.710093 291.033671 
L 346.647754 291.057935 
L 346.754192 291.056903 
L 346.865016 291.059484 
L 346.788824 291.037285 
L 346.865939 291.050191 
L 346.917195 291.025928 
L 346.901264 291.058451 
L 346.976763 291.056903 
L 347.097054 291.048126 
L 346.977687 291.057935 
L 347.098439 291.056903 
L 347.101441 291.03935 
L 347.217113 291.059484 
L 347.261212 291.040383 
L 347.328168 291.058451 
L 347.437146 291.06 
L 347.333017 291.034704 
L 347.439685 291.054838 
L 347.441071 291.059484 
L 347.559976 291.053805 
L 347.6708 291.057935 
L 347.634551 291.032123 
L 347.671262 291.05587 
L 347.671954 291.030058 
L 347.783471 291.057935 
L 347.890139 291.027993 
L 347.895681 291.057935 
L 348.011353 291.057419 
L 347.915768 291.03109 
L 348.012046 291.053289 
L 348.094933 291.034188 
L 348.03652 291.058451 
L 348.123101 291.056903 
L 348.233694 291.04348 
L 348.125641 291.058451 
L 348.244546 291.057419 
L 348.363913 291.057935 
L 348.2457 291.038834 
L 348.364836 291.055354 
L 348.401316 291.040383 
L 348.37361 291.058451 
L 348.475891 291.056903 
L 348.479816 291.045545 
L 348.595951 291.058451 
L 348.63497 291.037285 
L 348.707006 291.057419 
L 348.815521 291.037285 
L 348.707468 291.057935 
L 348.819216 291.057419 
L 348.84138 291.033155 
L 348.939506 291.057935 
L 349.035092 291.000115 
L 349.050792 291.057419 
L 349.079421 290.994953 
L 349.052639 291.057935 
L 349.162309 291.057419 
L 349.281907 291.058451 
L 349.163694 291.045545 
L 349.28283 291.056386 
L 349.322773 291.026444 
L 349.300608 291.06 
L 349.394347 291.056903 
L 349.506556 291.057419 
L 349.398503 291.03109 
L 349.507942 291.056903 
L 349.629848 291.030058 
L 349.509327 291.059484 
L 349.63031 291.052256 
L 349.725434 291.06 
L 349.655707 291.041415 
L 349.741827 291.057419 
L 349.835566 291.036769 
L 349.751986 291.06 
L 349.854036 291.056903 
L 359.998605 291.05174 
L 359.998836 278.17753 
L 360.07572 291.06 
L 360.10966 291.058451 
L 360.112893 291.045545 
L 360.230874 291.057935 
L 360.340313 291.049675 
L 360.35255 291.056903 
L 360.462682 291.058451 
L 360.420892 291.034188 
L 360.46499 291.057935 
L 369.174155 291.057935 
L 369.174386 282.440712 
L 369.232569 291.06 
L 369.28521 291.056903 
L 369.396727 291.04761 
L 369.285903 291.057935 
L 369.406424 291.057935 
L 369.526022 291.057935 
L 369.422817 291.04348 
L 369.526253 291.057419 
L 369.526484 291.039866 
L 369.53595 291.06 
L 369.637308 291.057419 
L 369.755059 291.06 
L 369.65601 291.046061 
L 369.755982 291.054838 
L 369.756444 291.037801 
L 369.771913 291.06 
L 369.867037 291.057935 
L 369.979939 291.04348 
L 369.867499 291.058451 
L 369.981094 291.053805 
L 370.092149 291.059484 
L 369.992638 291.042964 
L 370.092611 291.054321 
L 370.202742 291.059484 
L 370.109696 291.023346 
L 370.205282 291.057419 
L 379.025502 291.034704 
L 379.025733 290.904093 
L 379.081145 291.056903 
L 379.136557 291.037285 
L 379.172344 291.008891 
L 379.162185 291.059484 
L 379.247381 291.04761 
L 379.355204 291.059484 
L 379.345507 291.036253 
L 379.358667 291.05587 
L 379.463488 291.059484 
L 379.387758 291.035736 
L 379.471107 291.057419 
L 380.981549 291.057935 
L 380.98178 285.177346 
L 381.06813 291.06 
L 381.092604 291.057935 
L 390.710989 291.015086 
L 390.711219 290.559239 
L 390.721147 291.056903 
L 390.822044 291.022314 
L 390.902391 291.056386 
L 390.875147 290.9774 
L 390.93333 291.04761 
L 390.983662 290.609315 
L 390.93864 291.055354 
L 391.043923 291.057419 
L 391.156132 291.059484 
L 391.067011 291.041415 
L 391.162597 291.054321 
L 391.212237 291.038318 
L 391.192381 291.058968 
L 391.273652 291.056386 
L 403.262058 291.043996 
L 403.31216 285.613576 
L 403.339405 291.057419 
L 403.373114 291.054321 
L 403.38004 291.034188 
L 403.495944 291.057935 
L 403.59961 291.042964 
L 403.609769 291.057935 
L 403.727982 291.043996 
L 403.731445 291.05587 
L 403.842962 291.058968 
L 403.75615 291.047094 
L 403.843424 291.057935 
L 403.878056 291.016119 
L 403.844116 291.058968 
L 403.955402 291.054321 
L 404.066226 291.059484 
L 403.988419 291.021281 
L 404.067381 291.054838 
L 404.157656 291.041931 
L 404.069459 291.059484 
L 404.178667 291.057419 
L 404.289722 291.059484 
L 404.205218 291.032639 
L 404.290645 291.057419 
L 404.353215 291.033155 
L 404.292262 291.06 
L 404.403086 291.049159 
L 404.512525 291.06 
L 404.473505 291.032639 
L 404.514372 291.058451 
L 404.635124 291.043996 
L 404.515064 291.059484 
L 404.63674 291.056386 
L 404.754029 291.06 
L 404.645514 291.044513 
L 404.758647 291.057419 
L 404.772269 291.038834 
L 404.764419 291.059484 
L 404.869933 291.052773 
L 404.980988 291.06 
L 404.900871 291.032123 
L 404.98168 291.057935 
L 405.079113 291.041415 
L 404.982835 291.06 
L 405.095737 291.05587 
L 405.205176 291.058451 
L 405.180933 291.024895 
L 405.207716 291.057935 
L 405.326621 291.06 
L 405.225263 291.045545 
L 405.328237 291.056903 
L 405.340705 291.033155 
L 405.333778 291.058968 
L 405.439754 291.057419 
L 405.551271 291.06 
L 405.447142 291.037801 
L 405.553118 291.056386 
L 405.606683 291.045545 
L 405.557966 291.057935 
L 405.664634 291.057935 
L 407.833787 291.056386 
L 407.834018 289.974329 
L 407.848794 291.06 
L 407.944842 291.057419 
L 424.389073 291.057935 
L 424.389304 287.138575 
L 424.400617 291.06 
L 424.500128 291.056903 
L 432.716818 291.05587 
L 432.716818 291.05587 
" clip-path="url(#pfb25460fa8)" style="fill: none; stroke: #ff7f0e; stroke-width: 3; stroke-linecap: square"/>
   </g>
   <g id="patch_3">
    <path d="M 69.77 303.64 
L 69.77 26.88 
" style="fill: none; stroke: #000000; stroke-width: 0.8; stroke-linejoin: miter; stroke-linecap: square"/>
   </g>
   <g id="patch_4">
    <path d="M 450 303.64 
L 450 26.88 
" style="fill: none; stroke: #000000; stroke-width: 0.8; stroke-linejoin: miter; stroke-linecap: square"/>
   </g>
   <g id="patch_5">
    <path d="M 69.77 303.64 
L 450 303.64 
" style="fill: none; stroke: #000000; stroke-width: 0.8; stroke-linejoin: miter; stroke-linecap: square"/>
   </g>
   <g id="patch_6">
    <path d="M 69.77 26.88 
L 450 26.88 
" style="fill: none; stroke: #000000; stroke-width: 0.8; stroke-linejoin: miter; stroke-linecap: square"/>
   </g>
   <g id="text_18">
    <!-- Comparison of 2 Measurements -->
    <g transform="translate(164.325625 20.88) scale(0.12 -0.12)">
     <defs>
      <path id="DejaVuSans-43" d="M 4122 4306 
L 4122 3641 
Q 3803 3938 3442 4084 
Q 3081 4231 2675 4231 
Q 1875 4231 1450 3742 
Q 1025 3253 1025 2328 
Q 1025 1406 1450 917 
Q 1875 428 2675 428 
Q 3081 428 3442 575 
Q 3803 722 4122 1019 
L 4122 359 
Q 3791 134 3420 21 
Q 3050 -91 2638 -91 
Q 1578 -91 968 557 
Q 359 1206 359 2328 
Q 359 3453 968 4101 
Q 1578 4750 2638 4750 
Q 3056 4750 3426 4639 
Q 3797 4528 4122 4306 
z
" transform="scale(0.015625)"/>
      <path id="DejaVuSans-70" d="M 1159 525 
L 1159 -1331 
L 581 -1331 
L 581 3500 
L 1159 3500 
L 1159 2969 
Q 1341 3281 1617 3432 
Q 1894 3584 2278 3584 
Q 2916 3584 3314 3078 
Q 3713 2572 3713 1747 
Q 3713 922 3314 415 
Q 2916 -91 2278 -91 
Q 1894 -91 1617 61 
Q 1341 213 1159 525 
z
M 3116 1747 
Q 3116 2381 2855 2742 
Q 2594 3103 2138 3103 
Q 1681 3103 1420 2742 
Q 1159 2381 1159 1747 
Q 1159 1113 1420 752 
Q 1681 391 2138 391 
Q 2594 391 2855 752 
Q 3116 1113 3116 1747 
z
" transform="scale(0.015625)"/>
      <path id="DejaVuSans-72" d="M 2631 2963 
Q 2534 3019 2420 3045 
Q 2306 3072 2169 3072 
Q 1681 3072 1420 2755 
Q 1159 2438 1159 1844 
L 1159 0 
L 581 0 
L 581 3500 
L 1159 3500 
L 1159 2956 
Q 1341 3275 1631 3429 
Q 1922 3584 2338 3584 
Q 2397 3584 2469 3576 
Q 2541 3569 2628 3553 
L 2631 2963 
z
" transform="scale(0.015625)"/>
      <path id="DejaVuSans-69" d="M 603 3500 
L 1178 3500 
L 1178 0 
L 603 0 
L 603 3500 
z
M 603 4863 
L 1178 4863 
L 1178 4134 
L 603 4134 
L 603 4863 
z
" transform="scale(0.015625)"/>
      <path id="DejaVuSans-4d" d="M 628 4666 
L 1569 4666 
L 2759 1491 
L 3956 4666 
L 4897 4666 
L 4897 0 
L 4281 0 
L 4281 4097 
L 3078 897 
L 2444 897 
L 1241 4097 
L 1241 0 
L 628 0 
L 628 4666 
z
" transform="scale(0.015625)"/>
     </defs>
     <use xlink:href="#DejaVuSans-43"/>
     <use xlink:href="#DejaVuSans-6f" transform="translate(69.824219 0)"/>
     <use xlink:href="#DejaVuSans-6d" transform="translate(131.005859 0)"/>
     <use xlink:href="#DejaVuSans-70" transform="translate(228.417969 0)"/>
     <use xlink:href="#DejaVuSans-61" transform="translate(291.894531 0)"/>
     <use xlink:href="#DejaVuSans-72" transform="translate(353.173828 0)"/>
     <use xlink:href="#DejaVuSans-69" transform="translate(394.287109 0)"/>
     <use xlink:href="#DejaVuSans-73" transform="translate(422.070312 0)"/>
     <use xlink:href="#DejaVuSans-6f" transform="translate(474.169922 0)"/>
     <use xlink:href="#DejaVuSans-6e" transform="translate(535.351562 0)"/>
     <use xlink:href="#DejaVuSans-20" transform="translate(598.730469 0)"/>
     <use xlink:href="#DejaVuSans-6f" transform="translate(630.517578 0)"/>
     <use xlink:href="#DejaVuSans-66" transform="translate(691.699219 0)"/>
     <use xlink:href="#DejaVuSans-20" transform="translate(726.904297 0)"/>
     <use xlink:href="#DejaVuSans-32" transform="translate(758.691406 0)"/>
     <use xlink:href="#DejaVuSans-20" transform="translate(822.314453 0)"/>
     <use xlink:href="#DejaVuSans-4d" transform="translate(854.101562 0)"/>
     <use xlink:href="#DejaVuSans-65" transform="translate(940.380859 0)"/>
     <use xlink:href="#DejaVuSans-61" transform="translate(1001.904297 0)"/>
     <use xlink:href="#DejaVuSans-73" transform="translate(1063.183594 0)"/>
     <use xlink:href="#DejaVuSans-75" transform="translate(1115.283203 0)"/>
     <use xlink:href="#DejaVuSans-72" transform="translate(1178.662109 0)"/>
     <use xlink:href="#DejaVuSans-65" transform="translate(1217.525391 0)"/>
     <use xlink:href="#DejaVuSans-6d" transform="translate(1279.048828 0)"/>
     <use xlink:href="#DejaVuSans-65" transform="translate(1376.460938 0)"/>
     <use xlink:href="#DejaVuSans-6e" transform="translate(1437.984375 0)"/>
     <use xlink:href="#DejaVuSans-74" transform="translate(1501.363281 0)"/>
     <use xlink:href="#DejaVuSans-73" transform="translate(1540.572266 0)"/>
    </g>
   </g>
   <g id="legend_1">
    <g id="patch_7">
     <path d="M 314.574375 71.7075 
L 441.6 71.7075 
Q 444 71.7075 444 69.3075 
L 444 35.28 
Q 444 32.88 441.6 32.88 
L 314.574375 32.88 
Q 312.174375 32.88 312.174375 35.28 
L 312.174375 69.3075 
Q 312.174375 71.7075 314.574375 71.7075 
z
" style="fill: #ffffff; opacity: 0.8; stroke: #cccccc; stroke-linejoin: miter"/>
    </g>
    <g id="line2d_31">
     <path d="M 316.974375 42.598125 
L 328.974375 42.598125 
L 340.974375 42.598125 
" style="fill: none; stroke: #1f77b4; stroke-width: 3; stroke-linecap: square"/>
    </g>
    <g id="text_19">
     <!-- Euler Tour Tree -->
     <g transform="translate(350.574375 46.798125) scale(0.12 -0.12)">
      <defs>
       <path id="DejaVuSans-45" d="M 628 4666 
L 3578 4666 
L 3578 4134 
L 1259 4134 
L 1259 2753 
L 3481 2753 
L 3481 2222 
L 1259 2222 
L 1259 531 
L 3634 531 
L 3634 0 
L 628 0 
L 628 4666 
z
" transform="scale(0.015625)"/>
       <path id="DejaVuSans-6c" d="M 603 4863 
L 1178 4863 
L 1178 0 
L 603 0 
L 603 4863 
z
" transform="scale(0.015625)"/>
       <path id="DejaVuSans-54" d="M -19 4666 
L 3928 4666 
L 3928 4134 
L 2272 4134 
L 2272 0 
L 1638 0 
L 1638 4134 
L -19 4134 
L -19 4666 
z
" transform="scale(0.015625)"/>
      </defs>
      <use xlink:href="#DejaVuSans-45"/>
      <use xlink:href="#DejaVuSans-75" transform="translate(63.183594 0)"/>
      <use xlink:href="#DejaVuSans-6c" transform="translate(126.5625 0)"/>
      <use xlink:href="#DejaVuSans-65" transform="translate(154.345703 0)"/>
      <use xlink:href="#DejaVuSans-72" transform="translate(215.869141 0)"/>
      <use xlink:href="#DejaVuSans-20" transform="translate(256.982422 0)"/>
      <use xlink:href="#DejaVuSans-54" transform="translate(288.769531 0)"/>
      <use xlink:href="#DejaVuSans-6f" transform="translate(332.853516 0)"/>
      <use xlink:href="#DejaVuSans-75" transform="translate(394.035156 0)"/>
      <use xlink:href="#DejaVuSans-72" transform="translate(457.414062 0)"/>
      <use xlink:href="#DejaVuSans-20" transform="translate(498.527344 0)"/>
      <use xlink:href="#DejaVuSans-54" transform="translate(530.314453 0)"/>
      <use xlink:href="#DejaVuSans-72" transform="translate(576.648438 0)"/>
      <use xlink:href="#DejaVuSans-65" transform="translate(615.511719 0)"/>
      <use xlink:href="#DejaVuSans-65" transform="translate(677.035156 0)"/>
     </g>
    </g>
    <g id="line2d_32">
     <path d="M 316.974375 60.211875 
L 328.974375 60.211875 
L 340.974375 60.211875 
" style="fill: none; stroke: #ff7f0e; stroke-width: 3; stroke-linecap: square"/>
    </g>
    <g id="text_20">
     <!-- Link-Cut Tree -->
     <g transform="translate(350.574375 64.411875) scale(0.12 -0.12)">
      <defs>
       <path id="DejaVuSans-4c" d="M 628 4666 
L 1259 4666 
L 1259 531 
L 3531 531 
L 3531 0 
L 628 0 
L 628 4666 
z
" transform="scale(0.015625)"/>
       <path id="DejaVuSans-6b" d="M 581 4863 
L 1159 4863 
L 1159 1991 
L 2875 3500 
L 3609 3500 
L 1753 1863 
L 3688 0 
L 2938 0 
L 1159 1709 
L 1159 0 
L 581 0 
L 581 4863 
z
" transform="scale(0.015625)"/>
       <path id="DejaVuSans-2d" d="M 313 2009 
L 1997 2009 
L 1997 1497 
L 313 1497 
L 313 2009 
z
" transform="scale(0.015625)"/>
      </defs>
      <use xlink:href="#DejaVuSans-4c"/>
      <use xlink:href="#DejaVuSans-69" transform="translate(55.712891 0)"/>
      <use xlink:href="#DejaVuSans-6e" transform="translate(83.496094 0)"/>
      <use xlink:href="#DejaVuSans-6b" transform="translate(146.875 0)"/>
      <use xlink:href="#DejaVuSans-2d" transform="translate(204.785156 0)"/>
      <use xlink:href="#DejaVuSans-43" transform="translate(240.869141 0)"/>
      <use xlink:href="#DejaVuSans-75" transform="translate(310.693359 0)"/>
      <use xlink:href="#DejaVuSans-74" transform="translate(374.072266 0)"/>
      <use xlink:href="#DejaVuSans-20" transform="translate(413.28125 0)"/>
      <use xlink:href="#DejaVuSans-54" transform="translate(445.068359 0)"/>
      <use xlink:href="#DejaVuSans-72" transform="translate(491.402344 0)"/>
      <use xlink:href="#DejaVuSans-65" transform="translate(530.265625 0)"/>
      <use xlink:href="#DejaVuSans-65" transform="translate(591.789062 0)"/>
     </g>
    </g>
   </g>
  </g>
 </g>
 <defs>
  <clipPath id="pfb25460fa8">
   <rect x="69.77" y="26.88" width="380.23" height="276.76"/>
  </clipPath>
 </defs>
</svg>
